<svg width="12" height="12" viewBox="0 0 12 12" fill="none" xmlns="http://www.w3.org/2000/svg">
<path d="M7.13278 2.25003C8.30429 2.25003 9.25781 3.20355 9.25781 4.37506V9.5H10.1328C10.8913 9.5 11.5078 8.88358 11.5078 8.12506V1.37506C11.5078 0.616547 10.8913 3.05176e-05 10.1328 3.05176e-05H3.88284C3.12433 3.05176e-05 2.50781 0.616547 2.50781 1.37506V2.25003H7.13278Z" fill="black"/>
<path d="M0.507843 10.625C0.507843 11.3845 1.12335 12 1.88278 12H7.13278C7.8923 12 8.50781 11.3845 8.50781 10.625V4.37503C8.50781 3.61551 7.8923 3 7.13278 3H1.88278C1.12335 3 0.507843 3.61551 0.507843 4.37503V10.625Z" fill="black"/>
</svg>