<svg width="149" height="21" viewBox="0 0 149 21" fill="none" xmlns="http://www.w3.org/2000/svg">
<path d="M6.4707 1.81401C6.4389 1.81401 6.4071 1.81112 6.37241 1.81112C5.94455 1.81112 5.51669 1.81112 5.08883 1.80823C4.95874 1.80823 4.8749 1.86315 4.82286 1.97879C4.74815 2.15122 4.6378 2.3059 4.49908 2.43267C4.18974 2.69864 3.83705 2.84029 3.42364 2.80849C3.3033 2.79948 3.18519 2.77118 3.07384 2.72466C2.81229 2.626 2.58246 2.45812 2.40892 2.23898C2.25959 2.04528 2.17016 1.81215 2.15163 1.56828C2.12561 1.29075 2.1603 1.02189 2.2875 0.773268C2.50721 0.339626 2.85702 0.0852234 3.33981 0.0158407C3.61387 -0.0253595 3.89399 0.0161874 4.1443 0.13516C4.39461 0.254133 4.6037 0.445116 4.74481 0.683649C4.76793 0.721231 4.78528 0.761704 4.80552 0.799287C4.83531 0.863853 4.88361 0.918112 4.9443 0.955172C5.00498 0.992232 5.07531 1.01042 5.14636 1.00743C5.3256 1.00743 5.50773 1.00454 5.68696 1.00454C6.38657 1.00454 7.08907 1.00454 7.78868 1.00165C7.86999 0.998572 7.9506 1.01766 8.02189 1.05687C8.09319 1.09608 8.15247 1.15394 8.19341 1.22426C8.49716 1.70415 8.80167 2.18405 9.10695 2.66395C9.11852 2.68418 9.13297 2.70153 9.14453 2.72176C9.24283 2.88655 9.39026 2.95882 9.57818 2.95593C10.113 2.94437 10.6449 2.94726 11.1798 2.94726C11.5325 2.94726 11.888 2.94726 12.2407 2.95593C12.42 2.96171 12.5501 2.88366 12.6426 2.73333C12.9548 2.23609 13.2699 1.74173 13.585 1.24449C13.6039 1.21301 13.6251 1.18305 13.6486 1.15487C13.6852 1.10849 13.7317 1.07091 13.7848 1.04489C13.8378 1.01887 13.896 1.00509 13.9551 1.00454C14.0273 1.00165 14.0996 1.00454 14.169 1.00454H16.6957C16.7492 1.00467 16.8018 0.990543 16.848 0.963614C16.8942 0.936684 16.9325 0.897926 16.9588 0.851324C16.9761 0.822414 16.9877 0.793505 17.005 0.764595C17.2392 0.330954 17.5977 0.0678777 18.0862 0.0100588C18.8465 -0.0766696 19.4826 0.406118 19.6271 1.12307C19.6947 1.45508 19.6399 1.80034 19.4727 2.09507C19.3056 2.3898 19.0374 2.61408 18.7178 2.7265C18.3982 2.83892 18.0487 2.83187 17.7338 2.70665C17.419 2.58143 17.1601 2.34651 17.005 2.04528C16.9848 2.0077 16.9645 1.96723 16.9414 1.92965C16.9196 1.89107 16.8875 1.8593 16.8487 1.83787C16.8099 1.81643 16.766 1.80617 16.7217 1.80823C16.2823 1.81112 15.8429 1.81112 15.4034 1.81112C15.389 1.81112 15.3745 1.81401 15.363 1.81401C15.3572 1.81401 15.3485 1.81112 15.3427 1.81112H14.2702C14.2586 1.81112 14.2471 1.81401 14.2355 1.81401C14.2276 1.81022 14.219 1.8082 14.2102 1.80808C14.2015 1.80796 14.1928 1.80976 14.1848 1.81334C14.1769 1.81691 14.1698 1.82219 14.164 1.8288C14.1583 1.8354 14.1541 1.84318 14.1517 1.85159C14.1401 1.87472 14.1256 1.89495 14.1112 1.91808C13.8857 2.27367 13.6602 2.62829 13.4347 2.98195C13.4205 3.00311 13.4079 3.02534 13.3971 3.04844C13.3653 3.11204 13.374 3.13806 13.4347 3.16986C13.4665 3.18432 13.4983 3.19877 13.5301 3.21033C13.8535 3.33543 14.165 3.48926 14.461 3.66999C15.1808 4.1152 15.7359 4.71073 16.1001 5.47973C16.3576 6.0343 16.5133 6.63065 16.5598 7.24031C16.5907 7.62303 16.5693 8.00819 16.4962 8.38513C16.3952 8.89571 16.2127 9.3867 15.9556 9.83927C15.6376 10.4117 15.3109 10.9754 14.9814 11.542C14.857 11.7589 14.7298 11.9728 14.6055 12.1896C14.5846 12.2202 14.5731 12.2562 14.5726 12.2932C14.5721 12.3303 14.5826 12.3666 14.6026 12.3978C14.6258 12.4324 14.6431 12.47 14.6633 12.5076C14.9206 12.9557 15.23 13.3662 15.5509 13.771C15.5567 13.7767 15.5653 13.7825 15.5711 13.7883C15.5769 13.7941 15.574 13.8028 15.5798 13.8085C15.7417 14.0196 15.8978 14.2335 16.0828 14.4243C16.1605 14.5393 16.2465 14.6485 16.3401 14.751C16.5482 14.9938 16.7564 15.2338 16.9645 15.4766C16.9967 15.5137 17.0257 15.5533 17.0513 15.5951C17.0836 15.6513 17.1009 15.7149 17.1014 15.7798C17.1019 15.8446 17.0856 15.9085 17.0542 15.9652C17.0325 16.0056 17.0063 16.0434 16.9761 16.0779C16.5829 16.5607 16.1898 17.0406 15.7966 17.5234C15.7526 17.5809 15.6975 17.6291 15.6347 17.6651C15.5808 17.6945 15.5208 17.7111 15.4594 17.7135C15.398 17.7159 15.3369 17.704 15.2809 17.6788C15.2249 17.6536 15.1755 17.6157 15.1365 17.5682C15.0976 17.5207 15.0702 17.4648 15.0565 17.4049C15.0247 17.269 15.0652 17.1476 15.149 17.0406C15.2329 16.9336 15.3254 16.8209 15.415 16.711C15.6058 16.4769 15.7995 16.2427 15.9903 16.0085C16.026 15.9688 16.057 15.9252 16.0828 15.8785C16.0993 15.8519 16.1079 15.8211 16.1074 15.7899C16.1069 15.7586 16.0973 15.7281 16.0799 15.7021C16.0671 15.6798 16.0526 15.6585 16.0365 15.6385C15.8544 15.4275 15.6723 15.2135 15.4902 15.0025C15.3925 14.8611 15.2873 14.725 15.175 14.5949C15.1172 14.5255 15.0652 14.4474 14.9929 14.3896C14.9883 14.365 14.9774 14.3421 14.9611 14.3231C14.6633 13.9444 14.3771 13.5541 14.1141 13.1494C14.1054 13.1349 14.0996 13.1176 14.0765 13.1089C14.0476 13.1581 14.0187 13.2043 13.9926 13.2535C13.7209 13.7218 13.4549 14.1901 13.1803 14.6556C12.4865 15.8351 11.0872 16.2601 9.8904 15.7946C9.31221 15.5691 8.86989 15.1788 8.55767 14.644C8.28014 14.1699 8.00839 13.6929 7.73375 13.2159C7.72219 13.1957 7.71352 13.1754 7.6875 13.1667C7.67023 13.1789 7.65711 13.196 7.64992 13.2159C7.4938 13.4587 7.32324 13.6929 7.14978 13.9242C7.04282 14.0658 6.93585 14.2104 6.83178 14.352C6.70747 14.5081 6.58027 14.6614 6.45596 14.8175C6.4097 14.8753 6.35477 14.9302 6.32008 14.9967C6.20733 15.1152 6.10904 15.2396 6.00208 15.3639C5.92113 15.4564 5.84308 15.5489 5.76502 15.6443C5.67829 15.7484 5.6754 15.8322 5.76213 15.9421C5.86909 16.075 5.97606 16.208 6.08591 16.341C6.26804 16.5636 6.45017 16.7891 6.63519 17.0117C6.69015 17.072 6.72807 17.1458 6.74505 17.2256C6.77396 17.3731 6.74505 17.5089 6.6323 17.613C6.51956 17.7171 6.3779 17.7373 6.23046 17.6969C6.15841 17.6752 6.09545 17.6305 6.05122 17.5697C5.80838 17.2719 5.56554 16.977 5.32271 16.6792C5.15214 16.4711 4.98736 16.2601 4.8139 16.0548C4.6549 15.8669 4.68092 15.6587 4.82257 15.4968C5.03072 15.254 5.23598 15.0112 5.44413 14.7712C5.52507 14.6758 5.60602 14.5804 5.68696 14.4879C5.71134 14.4627 5.7292 14.4319 5.739 14.3983C5.76502 14.3867 5.77947 14.3607 5.79682 14.3405C5.95871 14.1583 6.10326 13.9646 6.25359 13.7738C6.28539 13.7334 6.31719 13.6958 6.34899 13.6553C6.64197 13.2879 6.91044 12.9016 7.15267 12.4989C7.21627 12.392 7.21338 12.3052 7.15267 12.1983C6.64387 11.3252 6.13795 10.4464 5.63204 9.57041C5.52158 9.37849 5.4259 9.17844 5.34583 8.97199C5.16538 8.50224 5.0837 8.00033 5.10588 7.49761C5.12736 7.12155 5.19137 6.74913 5.29669 6.38748C5.53664 5.54044 5.9616 4.80324 6.60339 4.19326C7.08474 3.73638 7.66132 3.39181 8.29171 3.18432C8.31483 3.17564 8.33507 3.16986 8.35531 3.16119C8.41602 3.13228 8.42758 3.10337 8.39867 3.04555C8.38593 3.02047 8.37144 2.99632 8.35531 2.97328C8.1645 2.66973 7.97081 2.36907 7.77712 2.06552C7.72797 1.98746 7.67593 1.9123 7.62679 1.83424C7.60944 1.80244 7.58053 1.81112 7.55451 1.81112H7.02258C6.83496 1.81112 6.65283 1.81401 6.4707 1.81401ZM10.8592 15.1875C10.9695 15.1846 11.0796 15.174 11.1884 15.1557C11.7551 15.0574 12.1829 14.7597 12.4807 14.2653C12.8594 13.6322 13.2208 12.9904 13.5879 12.3515C13.615 12.3057 13.6319 12.2547 13.6374 12.2018C13.6429 12.1489 13.6369 12.0954 13.6197 12.0451C13.3595 11.1575 13.1976 10.2527 13.0618 9.33914C13.0213 9.06161 12.9808 8.78697 12.9432 8.50944C12.9057 8.24058 12.8739 7.96883 12.8392 7.69708C12.8131 7.48026 12.79 7.26055 12.764 7.04373L12.6859 6.30654C12.6599 6.04924 12.6368 5.79195 12.6108 5.53465C12.5819 5.234 12.5558 4.93045 12.5298 4.62979C12.5154 4.47368 12.5067 4.31757 12.4894 4.16146C12.4691 3.96487 12.3477 3.82321 12.1714 3.77407C12.1195 3.76006 12.066 3.75325 12.0124 3.75383H9.76609C9.74773 3.75335 9.72936 3.75432 9.71116 3.75672C9.49434 3.77407 9.35268 3.89838 9.30932 4.11231C9.29197 4.20193 9.28908 4.29155 9.28041 4.38117C9.23994 4.83794 9.20235 5.29181 9.15899 5.74858C9.12719 6.08972 9.0925 6.43085 9.05781 6.76909C9.01733 7.15358 8.97108 7.53519 8.92482 7.91968C8.88435 8.24925 8.84099 8.57882 8.79473 8.90839C8.74269 9.28132 8.68198 9.65425 8.62127 10.0243C8.54611 10.4637 8.46516 10.9002 8.36109 11.3368C8.30038 11.597 8.23389 11.8571 8.15294 12.1144C8.13517 12.1659 8.12932 12.2208 8.13583 12.2749C8.14234 12.329 8.16104 12.3809 8.19052 12.4267C8.21943 12.4729 8.24545 12.5221 8.27436 12.5712C8.58658 13.1118 8.89013 13.6582 9.21392 14.1901C9.28434 14.3068 9.36359 14.418 9.45097 14.5226C9.82419 14.9562 10.3041 15.1615 10.8592 15.1875ZM5.96768 7.49761C5.97158 7.87534 6.02702 8.25077 6.13246 8.61351C6.23364 8.95753 6.38686 9.27554 6.56032 9.58776C6.83785 10.0937 7.13851 10.588 7.4276 11.0882C7.4343 11.1004 7.44203 11.112 7.45073 11.1228C7.49988 11.1807 7.57215 11.1691 7.59817 11.0997C7.60338 11.0847 7.60725 11.0692 7.60973 11.0535C7.69935 10.6632 7.77452 10.2729 7.84101 9.87685C7.89883 9.53283 7.95375 9.18881 8.00001 8.8419C8.03759 8.54991 8.07806 8.26081 8.11276 7.96883C8.14745 7.67684 8.18503 7.38197 8.21683 7.08709C8.24863 6.81245 8.27754 6.53492 8.30645 6.26028C8.33536 5.99431 8.35849 5.72546 8.38451 5.45949C8.40185 5.28314 8.4192 5.1039 8.43365 4.92756C8.44232 4.8177 8.45967 4.70784 8.43943 4.5951C8.41938 4.47976 8.3548 4.37693 8.25961 4.30879C8.16443 4.24064 8.04627 4.21265 7.93063 4.23084C7.85565 4.24555 7.78469 4.2761 7.72248 4.32046C6.58923 5.07788 6.01364 6.14175 5.96768 7.49761ZM15.768 7.67106C15.7535 7.28078 15.7217 6.93965 15.6437 6.6043C15.4182 5.65029 14.8891 4.91021 14.0768 4.36671C14.0359 4.34 13.9923 4.31771 13.9467 4.30022C13.8751 4.27384 13.798 4.26615 13.7226 4.27787C13.6472 4.2896 13.576 4.32036 13.5158 4.36724C13.4556 4.41412 13.4084 4.47557 13.3786 4.5458C13.3487 4.61602 13.3373 4.69268 13.3454 4.76855C13.3569 4.90154 13.3714 5.03452 13.3829 5.1675C13.4147 5.48551 13.4437 5.80351 13.4755 6.11862C13.5044 6.4135 13.5304 6.70838 13.5651 7.00036C13.6027 7.33571 13.6431 7.67106 13.6836 8.00641C13.7241 8.33309 13.7674 8.65687 13.8137 8.98066C13.8628 9.32179 13.9149 9.66003 13.9756 10.0012C14.0334 10.3278 14.0941 10.6545 14.1664 10.9812C14.1701 11.0042 14.1769 11.0266 14.1866 11.0477C14.1922 11.0598 14.2007 11.0703 14.2114 11.0783C14.222 11.0863 14.2345 11.0915 14.2477 11.0935C14.2609 11.0955 14.2743 11.0942 14.2869 11.0898C14.2994 11.0853 14.3107 11.0778 14.3196 11.0679C14.3347 11.0498 14.3483 11.0305 14.3601 11.0101C14.655 10.4984 14.9469 9.9896 15.2418 9.4779C15.3585 9.27548 15.4581 9.06371 15.5396 8.84479C15.687 8.45162 15.7911 8.04978 15.768 7.67106ZM17.6529 1.40639C17.6523 1.52556 17.6872 1.64221 17.753 1.74154C17.8189 1.84087 17.9127 1.91839 18.0227 1.96426C18.1327 2.01013 18.2539 2.02228 18.3708 1.99917C18.4877 1.97606 18.5951 1.91873 18.6794 1.83446C18.7636 1.75019 18.821 1.64279 18.8441 1.52587C18.8672 1.40896 18.855 1.28782 18.8092 1.17782C18.7633 1.06783 18.6858 0.973947 18.5865 0.908094C18.4871 0.842241 18.3705 0.807388 18.2513 0.807959C18.0927 0.808417 17.9408 0.871612 17.8287 0.98374C17.7165 1.09587 17.6533 1.24781 17.6529 1.40639ZM3.54506 0.807959C3.42658 0.807387 3.3106 0.841997 3.21181 0.907404C3.11302 0.972811 3.03587 1.06607 2.99013 1.17537C2.9444 1.28466 2.93213 1.40508 2.9549 1.52135C2.97766 1.63762 3.03442 1.74452 3.118 1.8285C3.20157 1.91248 3.3082 1.96977 3.42436 1.99309C3.54052 2.01642 3.66099 2.00474 3.77051 1.95953C3.88002 1.91432 3.97366 1.83762 4.03954 1.73915C4.10543 1.64068 4.1406 1.52487 4.1406 1.40639C4.1414 1.32782 4.12657 1.24988 4.09697 1.1771C4.06736 1.10432 4.02357 1.03816 3.96815 0.982463C3.91272 0.926771 3.84677 0.882661 3.77414 0.852702C3.7015 0.822743 3.62363 0.807533 3.54506 0.807959Z" fill="#51225D"/>
<path d="M14.2373 1.81679C14.2487 1.81439 14.2604 1.81342 14.272 1.8139H15.3445C15.3503 1.8139 15.359 1.81679 15.3648 1.81679C15.3677 1.83992 15.385 1.85148 15.3995 1.86594C15.6018 2.08276 15.8129 2.28801 16.0181 2.50194C16.3997 2.89511 16.79 3.27961 17.1716 3.67278C17.4434 3.9532 17.7238 4.22495 17.9926 4.50826C18.143 4.66437 18.2962 4.81759 18.4465 4.97659C18.698 5.24545 18.9669 5.49407 19.2184 5.76293C19.5104 6.07226 19.8197 6.36424 20.1146 6.67358C20.2447 6.80945 20.3806 6.94532 20.5107 7.0812C20.7969 7.38475 21.1004 7.66806 21.3866 7.97161C21.4907 8.08147 21.6063 8.18265 21.6988 8.30696C21.8058 8.45151 21.8174 8.61629 21.7133 8.76951C21.6847 8.8115 21.6528 8.85114 21.6179 8.88804L21.2363 9.26964L16.2089 14.297C16.1685 14.3404 16.1193 14.3751 16.0846 14.4242C15.8996 14.2334 15.7406 14.0195 15.5816 13.8084C15.5782 13.8019 15.5753 13.7952 15.5729 13.7882C15.5816 13.7651 15.6018 13.7535 15.6192 13.7362C15.9314 13.4268 16.2407 13.1146 16.553 12.8082C16.8594 12.5075 17.16 12.1982 17.4607 11.8917L17.6515 11.7009C17.7158 11.6389 17.7668 11.5642 17.8011 11.4817C17.8354 11.3991 17.8524 11.3104 17.851 11.221V5.81207C17.8507 5.61812 17.7738 5.43213 17.6371 5.2946C17.5417 5.19341 17.4434 5.09512 17.348 4.99683C17.1572 4.79735 16.9606 4.60655 16.7727 4.40708C16.5414 4.16424 16.3014 3.93007 16.0673 3.69012C15.7204 3.33164 15.3619 2.98184 15.015 2.62336C14.7692 2.36896 14.5119 2.12612 14.272 1.86594C14.2604 1.85148 14.2402 1.83703 14.2373 1.81679ZM18.6518 8.52089V9.79001C18.6518 9.923 18.6489 10.0531 18.6518 10.1861C18.6547 10.2699 18.6865 10.3393 18.7674 10.3769C18.8046 10.3964 18.8468 10.4043 18.8885 10.3997C18.9302 10.3951 18.9696 10.3781 19.0016 10.3509C19.0308 10.3283 19.0588 10.3042 19.0854 10.2786L19.4237 9.93167C19.8284 9.52694 20.2331 9.11931 20.6407 8.71747C20.6654 8.69486 20.685 8.66738 20.6985 8.63678C20.7119 8.60617 20.7189 8.57311 20.7189 8.53968C20.7189 8.50625 20.7119 8.47319 20.6985 8.44258C20.685 8.41198 20.6654 8.3845 20.6407 8.36189C20.5078 8.2289 20.3777 8.09592 20.2476 7.96005C19.8515 7.54953 19.441 7.15925 19.0507 6.74296C19.0314 6.7198 19.009 6.69938 18.9842 6.68225C18.9569 6.66284 18.9253 6.65026 18.892 6.64555C18.8588 6.64084 18.825 6.64414 18.7933 6.65517C18.7616 6.6662 18.733 6.68465 18.7099 6.70897C18.6868 6.73329 18.6698 6.76279 18.6604 6.795C18.6509 6.83079 18.647 6.86785 18.6489 6.90485C18.6518 7.44257 18.6518 7.98028 18.6518 8.52089Z" fill="#9AC9E8"/>
<path d="M6.47032 1.81403C6.65245 1.81403 6.83458 1.81114 7.01671 1.81114H7.54865C7.57467 1.81114 7.60647 1.80247 7.62092 1.83427C7.60589 1.83517 7.59127 1.83956 7.57823 1.84709C7.56518 1.85461 7.55407 1.86507 7.54576 1.87763C7.48505 1.94412 7.42145 2.00772 7.36074 2.07421C7.17861 2.26502 6.99937 2.45582 6.81724 2.64662C6.60909 2.86633 6.39805 3.08315 6.1899 3.30287C6.09161 3.40983 5.98754 3.51101 5.88635 3.61798C5.74759 3.76831 5.60593 3.91286 5.46139 4.0574C5.03642 4.48815 4.60856 4.91312 4.18359 5.33809C4.15757 5.36411 4.13155 5.39302 4.10842 5.41904C3.97255 5.57804 3.93208 5.76595 3.93208 5.96543V11.0969C3.93198 11.1656 3.93779 11.2343 3.94942 11.3021C3.97504 11.4658 4.05437 11.6163 4.17491 11.73L4.58254 12.1376L6.13208 13.6871C6.16678 13.7218 6.19858 13.7594 6.24772 13.771C6.09739 13.9618 5.95285 14.1584 5.79095 14.3376C5.77361 14.3578 5.75915 14.3839 5.73313 14.3954C5.72143 14.3959 5.7098 14.3935 5.69923 14.3884C5.68866 14.3834 5.67946 14.3759 5.67242 14.3665L5.58859 14.2827L0.208539 8.90263C0.167719 8.86235 0.129116 8.81989 0.0929009 8.77542C-0.0371916 8.60775 -0.0227368 8.47766 0.0871191 8.31287C0.1178 8.26913 0.152655 8.22846 0.191193 8.19145L3.42327 4.95938C3.88004 4.50261 4.33681 4.04873 4.79069 3.58907C4.92656 3.4532 5.06243 3.31732 5.18964 3.17566C5.29949 3.05425 5.41802 2.9415 5.53077 2.82008C5.78517 2.54544 6.05114 2.27947 6.31132 2.01351C6.37203 1.9528 6.43563 1.89498 6.47032 1.81403ZM3.13996 8.53258V6.8674C3.13698 6.83765 3.12744 6.80893 3.11203 6.7833C3.09663 6.75767 3.07573 6.73578 3.05085 6.71919C3.02597 6.70261 2.99773 6.69174 2.96814 6.68737C2.93856 6.68301 2.90838 6.68525 2.87977 6.69394C2.82927 6.71205 2.78372 6.74176 2.74679 6.78067L1.17122 8.35624C1.15332 8.37416 1.13688 8.39349 1.12208 8.41406C1.05269 8.50657 1.05269 8.57017 1.1163 8.66557C1.16183 8.72361 1.21211 8.77776 1.26662 8.82746C1.75519 9.31892 2.24569 9.80942 2.73812 10.299C2.77783 10.3407 2.82617 10.3732 2.87977 10.3944C2.96361 10.4233 3.10816 10.3683 3.12839 10.2556C3.13524 10.2145 3.13911 10.1729 3.13996 10.1313V8.53258Z" fill="#9AC9E8"/>
<path d="M14.9921 14.3924C15.0614 14.4531 15.1135 14.5283 15.1742 14.5977C15.2865 14.7278 15.3917 14.8639 15.4893 15.0053C15.4517 15.0458 15.4141 15.0862 15.3765 15.1238L12.8007 17.6997C12.6995 17.8008 12.6966 17.8182 12.7574 17.9454C12.8555 18.15 12.9171 18.3701 12.9395 18.5958C12.9798 18.9671 12.9167 19.3423 12.7574 19.68C12.6383 19.9418 12.4637 20.1746 12.2457 20.3622C11.9802 20.5875 11.6635 20.7443 11.3234 20.819C11.1272 20.8627 10.9254 20.8764 10.725 20.8595C10.2988 20.8225 9.89467 20.6537 9.56879 20.3766C9.24291 20.0994 9.01146 19.7276 8.90661 19.3128C8.87826 19.2039 8.85988 19.0926 8.85169 18.9803C8.8488 18.9081 8.84012 18.8387 8.84301 18.7664C8.84963 18.4984 8.90855 18.2342 9.01647 17.9888C9.03281 17.9479 9.05214 17.9083 9.07429 17.8702C9.1032 17.8153 9.09742 17.798 9.05405 17.7546C8.8806 17.5782 8.70425 17.4048 8.5279 17.2284L6.35391 15.0544C6.33566 15.0406 6.32083 15.0228 6.31055 15.0024C6.35092 14.9391 6.39636 14.8791 6.44642 14.8232C6.57073 14.6671 6.69793 14.5138 6.82224 14.3577C6.82371 14.373 6.82864 14.3876 6.83666 14.4007C6.84468 14.4137 6.85557 14.4247 6.8685 14.4329L9.56575 17.1301C9.62646 17.1909 9.64091 17.1909 9.71319 17.1417C9.78546 17.0926 9.86352 17.0405 9.94157 17C10.3434 16.789 10.7742 16.7283 11.2194 16.7919C11.4858 16.8286 11.7406 16.9244 11.9652 17.0723C12.0057 17.0983 12.0462 17.1272 12.0867 17.1533C12.1387 17.1851 12.1647 17.1851 12.2139 17.1475C12.2335 17.1317 12.2519 17.1142 12.2688 17.0954C12.581 16.7803 12.899 16.4681 13.2054 16.1501C13.4252 15.9217 13.6535 15.702 13.8761 15.4765C14.2202 15.1325 14.5613 14.7885 14.9111 14.4531C14.9371 14.4271 14.9545 14.3982 14.9921 14.3924ZM10.9014 20.0587C11.52 20.076 12.1705 19.5354 12.1474 18.7635C12.1271 18.116 11.5576 17.558 10.8956 17.5609C10.2104 17.5609 9.64381 18.1391 9.6467 18.8185C9.6467 19.4834 10.2364 20.076 10.9014 20.0587Z" fill="#9AC9E8"/>
<path d="M10.4919 10.1081C10.4919 9.78427 10.4948 9.46048 10.4919 9.13669C10.4861 8.69727 10.4948 8.25785 10.4948 7.81842C10.4968 7.64066 10.4616 7.46443 10.3914 7.30111C10.3212 7.13778 10.2176 6.99099 10.0871 6.87019C10.0611 6.84417 10.0322 6.81816 10.0062 6.79214C9.67083 6.45101 9.56377 6.04916 9.685 5.58661C9.81798 5.08359 10.1967 4.75113 10.7142 4.67597C11.4167 4.57189 12.0411 5.08648 12.1278 5.74272C12.1828 6.15902 12.0556 6.52039 11.752 6.81237C11.6194 6.93516 11.5088 7.0799 11.4253 7.24023C11.3303 7.43641 11.2837 7.65254 11.2895 7.87046C11.2924 8.60765 11.2981 9.34484 11.2981 10.082C11.2981 10.8308 11.2972 11.5795 11.2953 12.3283C11.2977 12.4003 11.29 12.4724 11.2721 12.5422C11.2172 12.7301 11.0409 12.8429 10.8385 12.8226C10.6592 12.8053 10.506 12.6434 10.4916 12.4613C10.4887 12.4295 10.4887 12.3977 10.4887 12.363C10.4919 11.6171 10.4919 10.8626 10.4919 10.1081ZM10.8879 6.36428C10.9767 6.36428 11.0634 6.33792 11.1372 6.28855C11.2109 6.23919 11.2683 6.16903 11.3022 6.08699C11.336 6.00494 11.3447 5.91469 11.3272 5.82769C11.3097 5.74069 11.2667 5.66086 11.2037 5.59831C11.1408 5.53575 11.0607 5.49331 10.9736 5.47635C10.8864 5.45938 10.7963 5.46867 10.7144 5.50303C10.6326 5.53739 10.5628 5.59527 10.5139 5.66934C10.465 5.74341 10.4393 5.83033 10.4398 5.91907C10.441 6.03727 10.4887 6.15024 10.5726 6.23356C10.6564 6.31687 10.7697 6.36383 10.8879 6.36428Z" fill="#51225D"/>
<path d="M35.3402 18.6238H28.1641V1.52563H35.3147C38.0388 1.52563 40.2563 2.2951 41.9674 3.83404C43.6784 5.37297 44.5297 7.45054 44.5212 10.0667C44.5212 12.6829 43.6699 14.7648 41.9674 16.3122C40.2648 17.8597 38.0558 18.6303 35.3402 18.6238ZM35.3147 14.7765C36.7619 14.7765 37.9111 14.3191 38.7623 13.4043C39.6091 12.5003 40.0678 11.298 40.0392 10.0571C40.0904 8.81048 39.6499 7.59391 38.8134 6.67145C37.9962 5.8058 36.8385 5.37297 35.3402 5.37297H32.5566V14.7765H35.3147Z" fill="#51225D"/>
<path d="M51.583 18.6239H47.1904V1.52563H51.583V18.6239Z" fill="#51225D"/>
<path d="M63.4575 18.9317C60.8526 18.9317 58.6649 18.1194 56.8942 16.495C55.1236 14.8706 54.2383 12.7332 54.2383 10.0828C54.2383 7.43453 55.1236 5.29712 56.8942 3.67055C58.6649 2.04398 60.8526 1.23176 63.4575 1.2339C65.0299 1.18107 66.5834 1.59118 67.9267 2.41375C69.0929 3.15785 70.0579 4.17992 70.7358 5.38903L67.0584 7.3127C66.703 6.68236 66.1987 6.14946 65.5899 5.76094C64.958 5.33992 64.2158 5.11676 63.4575 5.11971C62.8212 5.1006 62.1882 5.21764 61.6003 5.46307C61.0125 5.7085 60.4834 6.0767 60.0482 6.54323C59.1538 7.49403 58.6716 8.76242 58.7074 10.07C58.6893 10.7174 58.7984 11.3622 59.0285 11.9673C59.2585 12.5724 59.605 13.1261 60.0482 13.5967C60.4834 14.0632 61.0125 14.4314 61.6003 14.6768C62.1882 14.9223 62.8212 15.0393 63.4575 15.0202C64.0629 15.0144 64.663 14.906 65.2324 14.6996C65.7271 14.5446 66.1899 14.3013 66.5987 13.9814V12.6733H62.768V8.80033H70.9848V15.5973C70.048 16.6705 68.8888 17.525 67.5885 18.101C66.2883 18.677 64.8783 18.9605 63.4575 18.9317Z" fill="#51225D"/>
<path d="M78.4231 18.6239H74.0273V1.52563H78.4231V18.6239Z" fill="#51225D"/>
<path d="M98.4927 18.6239H93.5128L92.6732 16.1616H85.9535L85.1108 18.6239H80.1309L86.5409 1.52563H92.0539L98.4927 18.6239ZM91.4697 12.3142L89.299 5.87633L87.1283 12.3142H91.4697Z" fill="#51225D"/>
<path d="M116.037 18.6239H111.797L104.596 8.72337V18.6239H100.203V1.52563H104.723L111.619 10.9388V1.52563H116.037V18.6239Z" fill="#51225D"/>
<path d="M127.76 18.6239H123.367V5.37297H118.579V1.52563H132.497V5.37297H127.76V18.6239Z" fill="#51225D"/>
<path d="M141.396 18.9316C138.246 18.9316 135.727 18.0254 133.837 16.2129L136.161 12.9042C136.865 13.6303 137.71 14.204 138.643 14.59C139.576 14.976 140.579 15.166 141.588 15.1484C142.204 15.1806 142.818 15.0431 143.363 14.7509C143.551 14.6561 143.709 14.5117 143.822 14.3332C143.934 14.1548 143.996 13.9489 144.001 13.7377C144.001 13.3787 143.765 13.0965 143.286 12.8529C142.718 12.5956 142.116 12.4228 141.498 12.3399C140.712 12.2146 139.936 12.0347 139.174 11.8012C138.379 11.5684 137.603 11.2769 136.85 10.9292C136.114 10.5782 135.493 10.0217 135.063 9.32612C134.571 8.53527 134.322 7.61635 134.348 6.68428C134.346 5.94659 134.509 5.21786 134.825 4.55194C135.141 3.88602 135.602 3.29993 136.174 2.83694C137.393 1.76824 139.049 1.23389 141.141 1.23389C143.907 1.23389 146.214 2.029 148.062 3.61924L145.683 6.7997C144.287 5.63178 142.521 5.00404 140.703 5.02993C139.478 5.02993 138.865 5.44031 138.865 6.26108C138.865 6.58169 139.104 6.86383 139.58 7.09467C140.148 7.35371 140.75 7.53073 141.367 7.62047C142.148 7.75711 142.92 7.94127 143.679 8.17192C144.474 8.40797 145.251 8.70377 146.003 9.05681C146.734 9.41554 147.353 9.9703 147.79 10.6599C148.282 11.4225 148.531 12.3168 148.505 13.2248C148.536 14.0169 148.384 14.8056 148.061 15.5287C147.737 16.2519 147.251 16.8899 146.641 17.3927C145.394 18.4208 143.646 18.9338 141.396 18.9316Z" fill="#51225D"/>
</svg>
