<svg width="127" height="62" viewBox="0 0 127 62" fill="none" xmlns="http://www.w3.org/2000/svg">
<g clip-path="url(#clip0_1_2)">
<path d="M54.934 14.305C54.872 14.305 54.811 14.299 54.743 14.299C53.914 14.299 53.086 14.299 52.257 14.294C52.005 14.294 51.842 14.4 51.742 14.624C51.597 14.957 51.383 15.258 51.115 15.503C50.515 16.018 49.832 16.293 49.032 16.231C48.798 16.214 48.57 16.158 48.354 16.069C47.847 15.878 47.402 15.553 47.066 15.128C46.777 14.752 46.604 14.301 46.567 13.828C46.518 13.291 46.584 12.77 46.831 12.289C47.257 11.449 47.934 10.956 48.869 10.822C49.4 10.742 49.943 10.822 50.427 11.053C50.912 11.283 51.318 11.653 51.59 12.115C51.635 12.188 51.669 12.266 51.708 12.339C51.766 12.464 51.86 12.57 51.977 12.641C52.095 12.712 52.231 12.748 52.368 12.742C52.716 12.742 53.068 12.737 53.416 12.737C54.771 12.737 56.132 12.737 57.486 12.731C57.644 12.725 57.8 12.762 57.939 12.838C58.077 12.914 58.191 13.026 58.271 13.163C58.859 14.092 59.448 15.021 60.04 15.951C60.062 15.99 60.091 16.024 60.113 16.063C60.303 16.382 60.589 16.523 60.953 16.517C61.989 16.494 63.019 16.5 64.055 16.5C64.739 16.5 65.427 16.5 66.111 16.517C66.457 16.527 66.709 16.376 66.888 16.085C67.493 15.122 68.104 14.164 68.714 13.201C68.751 13.14 68.792 13.082 68.838 13.028C68.908 12.937 68.998 12.866 69.102 12.815C69.204 12.764 69.316 12.738 69.432 12.737C69.571 12.731 69.711 12.737 69.845 12.737H74.74C74.844 12.737 74.945 12.71 75.034 12.657C75.124 12.605 75.198 12.53 75.249 12.44C75.283 12.384 75.305 12.328 75.338 12.272C75.792 11.433 76.486 10.922 77.433 10.81C78.906 10.643 80.139 11.577 80.418 12.966C80.549 13.609 80.443 14.277 80.119 14.849C79.796 15.419 79.276 15.854 78.657 16.072C78.037 16.29 77.361 16.276 76.75 16.033C76.141 15.791 75.639 15.336 75.338 14.752C75.3 14.679 75.261 14.602 75.216 14.528C75.173 14.454 75.111 14.392 75.037 14.351C74.961 14.309 74.875 14.289 74.79 14.294C73.94 14.299 73.088 14.299 72.237 14.299C72.208 14.299 72.181 14.305 72.159 14.305C72.147 14.305 72.131 14.299 72.119 14.299H70.041C70.02 14.299 69.996 14.305 69.975 14.305C69.959 14.298 69.942 14.294 69.926 14.293C69.909 14.293 69.891 14.296 69.876 14.303C69.861 14.31 69.847 14.32 69.836 14.333C69.825 14.346 69.817 14.361 69.812 14.378C69.79 14.422 69.762 14.461 69.733 14.506C69.297 15.196 68.86 15.881 68.423 16.567C68.396 16.609 68.371 16.651 68.351 16.696C68.289 16.818 68.306 16.869 68.423 16.931C68.485 16.959 68.547 16.987 68.608 17.009C69.235 17.252 69.838 17.549 70.411 17.899C71.805 18.762 72.88 19.916 73.586 21.405C74.085 22.479 74.386 23.635 74.477 24.816C74.537 25.557 74.495 26.303 74.353 27.033C74.158 28.023 73.804 28.974 73.307 29.849C72.69 30.958 72.057 32.051 71.419 33.148C71.178 33.569 70.932 33.982 70.692 34.402C70.65 34.462 70.628 34.532 70.627 34.603C70.627 34.675 70.647 34.745 70.686 34.806C70.73 34.873 70.763 34.945 70.804 35.018C71.302 35.887 71.901 36.681 72.522 37.466C72.534 37.477 72.55 37.488 72.562 37.499C72.572 37.511 72.567 37.527 72.578 37.538C72.892 37.947 73.195 38.362 73.553 38.731C73.703 38.953 73.87 39.165 74.052 39.363C74.455 39.835 74.858 40.299 75.261 40.769C75.323 40.841 75.379 40.918 75.428 40.999C75.492 41.108 75.525 41.231 75.526 41.356C75.527 41.482 75.495 41.606 75.434 41.716C75.393 41.794 75.342 41.868 75.283 41.934C74.522 42.87 73.76 43.799 72.998 44.734C72.913 44.846 72.806 44.939 72.684 45.009C72.581 45.065 72.464 45.098 72.345 45.103C72.226 45.106 72.108 45.084 72 45.035C71.891 44.986 71.795 44.913 71.719 44.821C71.644 44.729 71.591 44.621 71.565 44.504C71.504 44.241 71.581 44.006 71.744 43.799C71.907 43.592 72.086 43.374 72.259 43.161C72.629 42.707 73.004 42.253 73.374 41.799C73.442 41.723 73.502 41.638 73.553 41.547C73.585 41.497 73.601 41.436 73.6 41.376C73.599 41.315 73.58 41.256 73.547 41.207C73.522 41.163 73.494 41.122 73.463 41.083C73.11 40.674 72.758 40.26 72.405 39.851C72.215 39.577 72.012 39.314 71.795 39.062C71.683 38.927 71.581 38.775 71.441 38.663C71.433 38.616 71.412 38.572 71.38 38.535C70.804 37.802 70.248 37.045 69.739 36.262C69.723 36.233 69.711 36.2 69.666 36.184C69.611 36.278 69.554 36.368 69.504 36.463C68.978 37.371 68.463 38.278 67.93 39.178C66.587 41.464 63.876 42.287 61.558 41.386C60.437 40.949 59.58 40.193 58.976 39.157C58.438 38.238 57.912 37.314 57.38 36.39C57.358 36.351 57.341 36.312 57.291 36.295C57.258 36.318 57.232 36.352 57.218 36.39C56.916 36.86 56.585 37.314 56.249 37.762C56.043 38.036 55.835 38.317 55.632 38.592C55.392 38.893 55.146 39.19 54.905 39.493C54.816 39.605 54.71 39.711 54.641 39.84C54.423 40.069 54.234 40.31 54.026 40.551C53.869 40.731 53.719 40.91 53.566 41.095C53.399 41.296 53.393 41.458 53.561 41.671C53.768 41.929 53.975 42.186 54.189 42.444C54.541 42.875 54.893 43.312 55.252 43.743C55.359 43.86 55.432 44.003 55.465 44.158C55.522 44.443 55.465 44.706 55.247 44.907C55.028 45.109 54.754 45.149 54.468 45.07C54.329 45.029 54.206 44.941 54.122 44.824C53.65 44.247 53.18 43.676 52.71 43.099C52.38 42.696 52.06 42.287 51.724 41.889C51.417 41.526 51.466 41.122 51.741 40.808C52.144 40.338 52.542 39.868 52.945 39.404C53.102 39.219 53.259 39.033 53.416 38.854C53.463 38.806 53.497 38.746 53.516 38.681C53.566 38.659 53.595 38.608 53.629 38.569C53.942 38.216 54.222 37.841 54.513 37.471C54.575 37.393 54.637 37.32 54.698 37.241C55.266 36.53 55.786 35.782 56.255 35.002C56.378 34.794 56.373 34.626 56.255 34.42C55.269 32.728 54.289 31.025 53.31 29.328C53.095 28.957 52.91 28.569 52.754 28.17C52.406 27.26 52.247 26.288 52.29 25.314C52.331 24.586 52.455 23.865 52.659 23.164C53.125 21.523 53.947 20.095 55.19 18.914C56.123 18.029 57.24 17.36 58.461 16.959C58.506 16.942 58.545 16.931 58.585 16.914C58.701 16.858 58.724 16.802 58.668 16.69C58.644 16.642 58.615 16.594 58.585 16.55C58.215 15.962 57.84 15.379 57.464 14.791C57.37 14.64 57.268 14.495 57.173 14.343C57.14 14.282 57.083 14.299 57.034 14.299H56.002C55.639 14.299 55.287 14.305 54.934 14.305ZM63.434 40.21C63.649 40.204 63.861 40.184 64.072 40.148C65.17 39.957 65.999 39.381 66.575 38.423C67.309 37.196 68.009 35.954 68.72 34.717C68.773 34.627 68.805 34.528 68.815 34.425C68.827 34.324 68.815 34.22 68.781 34.123C68.278 32.403 67.964 30.651 67.7 28.881C67.623 28.343 67.544 27.812 67.471 27.274C67.399 26.753 67.336 26.226 67.27 25.701C67.22 25.28 67.175 24.855 67.124 24.435L66.973 23.007C66.923 22.508 66.878 22.01 66.827 21.511C66.771 20.929 66.721 20.341 66.67 19.759C66.642 19.457 66.626 19.154 66.591 18.851C66.553 18.471 66.318 18.196 65.976 18.102C65.876 18.075 65.772 18.061 65.668 18.062H61.316C61.281 18.062 61.246 18.063 61.21 18.068C60.791 18.102 60.516 18.342 60.433 18.756C60.398 18.93 60.392 19.104 60.376 19.277C60.298 20.162 60.225 21.041 60.141 21.926C60.079 22.587 60.012 23.247 59.945 23.902C59.867 24.647 59.777 25.386 59.688 26.131C59.609 26.77 59.525 27.409 59.436 28.046C59.334 28.769 59.217 29.491 59.1 30.209C58.953 31.06 58.797 31.905 58.595 32.751C58.477 33.254 58.349 33.758 58.192 34.257C58.158 34.357 58.146 34.463 58.159 34.568C58.172 34.673 58.207 34.773 58.265 34.862C58.321 34.951 58.371 35.047 58.428 35.142C59.032 36.189 59.621 37.247 60.248 38.278C60.384 38.503 60.537 38.719 60.706 38.922C61.43 39.762 62.359 40.159 63.434 40.21ZM53.959 25.314C53.967 26.046 54.074 26.773 54.278 27.476C54.474 28.142 54.771 28.758 55.107 29.363C55.644 30.343 56.228 31.3 56.787 32.269C56.8 32.292 56.816 32.315 56.832 32.336C56.928 32.448 57.067 32.426 57.117 32.291C57.128 32.262 57.135 32.232 57.14 32.202C57.314 31.446 57.459 30.69 57.588 29.922C57.7 29.256 57.807 28.589 57.896 27.918C57.968 27.352 58.047 26.792 58.114 26.226C58.182 25.661 58.255 25.09 58.316 24.519C58.377 23.987 58.434 23.449 58.489 22.917C58.546 22.402 58.591 21.881 58.641 21.366C58.674 21.025 58.708 20.677 58.735 20.336C58.753 20.123 58.786 19.91 58.747 19.692C58.708 19.468 58.583 19.27 58.398 19.138C58.215 19.005 57.986 18.951 57.762 18.986C57.616 19.015 57.479 19.074 57.359 19.16C55.163 20.627 54.048 22.687 53.959 25.314ZM72.943 25.65C72.915 24.894 72.853 24.234 72.702 23.583C72.265 21.735 71.241 20.302 69.667 19.25C69.587 19.198 69.504 19.154 69.415 19.12C69.276 19.069 69.126 19.054 68.98 19.078C68.834 19.1 68.698 19.159 68.581 19.25C68.464 19.342 68.372 19.461 68.314 19.596C68.257 19.732 68.234 19.881 68.25 20.027C68.273 20.286 68.3 20.542 68.323 20.801C68.384 21.417 68.441 22.032 68.502 22.643C68.558 23.214 68.609 23.785 68.676 24.35C68.748 25.001 68.827 25.65 68.905 26.3C68.984 26.932 69.068 27.559 69.157 28.186C69.253 28.848 69.354 29.503 69.471 30.164C69.583 30.796 69.7 31.428 69.841 32.061C69.848 32.106 69.861 32.15 69.88 32.191C69.89 32.215 69.907 32.235 69.928 32.25C69.948 32.265 69.973 32.276 69.997 32.279C70.023 32.283 70.049 32.281 70.074 32.272C70.099 32.263 70.12 32.249 70.138 32.23C70.167 32.195 70.193 32.157 70.215 32.118C70.787 31.127 71.353 30.14 71.924 29.149C72.149 28.758 72.343 28.348 72.501 27.924C72.786 27.162 72.987 26.383 72.943 25.65ZM76.594 13.515C76.592 13.746 76.661 13.972 76.788 14.164C76.915 14.356 77.097 14.507 77.31 14.596C77.523 14.684 77.758 14.708 77.984 14.663C78.211 14.618 78.419 14.507 78.582 14.345C78.746 14.181 78.856 13.973 78.901 13.746C78.946 13.52 78.922 13.285 78.834 13.072C78.744 12.86 78.595 12.677 78.403 12.55C78.211 12.422 77.984 12.355 77.753 12.355C77.446 12.356 77.151 12.479 76.934 12.696C76.717 12.914 76.595 13.207 76.594 13.515ZM49.267 12.355C49.037 12.355 48.812 12.421 48.621 12.549C48.429 12.675 48.281 12.856 48.191 13.067C48.103 13.279 48.079 13.513 48.123 13.738C48.168 13.963 48.277 14.17 48.44 14.333C48.601 14.495 48.808 14.606 49.033 14.651C49.258 14.697 49.491 14.675 49.703 14.586C49.915 14.499 50.097 14.351 50.224 14.16C50.351 13.969 50.42 13.745 50.42 13.515C50.422 13.363 50.393 13.212 50.336 13.071C50.278 12.93 50.194 12.802 50.086 12.694C49.979 12.586 49.851 12.5 49.71 12.443C49.57 12.385 49.419 12.355 49.267 12.355Z" fill="#51225D"/>
<path d="M69.979 14.31C70.001 14.306 70.023 14.303 70.046 14.305H72.123C72.134 14.305 72.152 14.31 72.162 14.31C72.168 14.355 72.201 14.378 72.23 14.406C72.622 14.825 73.031 15.223 73.428 15.637C74.167 16.399 74.924 17.144 75.663 17.905C76.189 18.448 76.731 18.975 77.252 19.524C77.543 19.826 77.84 20.123 78.132 20.431C78.619 20.951 79.14 21.433 79.627 21.954C80.193 22.553 80.792 23.119 81.363 23.719C81.615 23.981 81.878 24.244 82.13 24.507C82.684 25.095 83.272 25.644 83.827 26.232C84.029 26.445 84.253 26.641 84.432 26.882C84.639 27.162 84.662 27.48 84.459 27.777C84.405 27.859 84.342 27.937 84.275 28.007L83.536 28.746L73.797 38.484C73.719 38.569 73.624 38.636 73.557 38.732C73.198 38.362 72.891 37.947 72.582 37.538C72.576 37.526 72.57 37.513 72.565 37.499C72.582 37.454 72.622 37.432 72.655 37.399C73.26 36.799 73.859 36.194 74.464 35.6C75.058 35.018 75.64 34.42 76.222 33.826L76.591 33.456C76.716 33.335 76.815 33.192 76.881 33.031C76.948 32.871 76.981 32.7 76.978 32.527V22.05C76.978 21.674 76.829 21.313 76.564 21.047C76.379 20.851 76.189 20.66 76.004 20.471C75.634 20.084 75.254 19.714 74.889 19.327C74.442 18.857 73.977 18.403 73.524 17.939C72.851 17.245 72.156 16.567 71.485 15.872C71.009 15.379 70.51 14.909 70.046 14.406C70.023 14.378 69.984 14.349 69.979 14.31ZM78.53 27.297V29.755C78.53 30.012 78.524 30.264 78.53 30.522C78.535 30.684 78.597 30.819 78.754 30.891C78.826 30.929 78.907 30.944 78.988 30.936C79.069 30.926 79.145 30.893 79.208 30.84C79.264 30.797 79.318 30.751 79.369 30.701L80.024 30.028C80.808 29.245 81.593 28.455 82.383 27.677C82.43 27.634 82.467 27.579 82.494 27.521C82.52 27.462 82.533 27.397 82.533 27.333C82.533 27.268 82.52 27.203 82.494 27.145C82.467 27.086 82.43 27.031 82.383 26.988C82.124 26.731 81.872 26.473 81.62 26.21C80.853 25.414 80.058 24.659 79.302 23.853C79.265 23.807 79.222 23.768 79.173 23.735C79.12 23.697 79.059 23.673 78.995 23.663C78.931 23.655 78.865 23.661 78.803 23.682C78.742 23.703 78.687 23.74 78.642 23.787C78.597 23.834 78.564 23.891 78.546 23.953C78.528 24.023 78.52 24.095 78.524 24.166C78.53 25.207 78.53 26.249 78.53 27.297Z" fill="#9AC9E8"/>
<path d="M54.932 14.305C55.286 14.305 55.638 14.299 55.992 14.299H57.022C57.073 14.299 57.134 14.282 57.162 14.343C57.133 14.346 57.104 14.354 57.078 14.369C57.054 14.384 57.033 14.404 57.016 14.428C56.898 14.557 56.776 14.679 56.658 14.809C56.305 15.178 55.958 15.548 55.605 15.918C55.202 16.343 54.793 16.763 54.39 17.188C54.199 17.396 53.998 17.591 53.802 17.799C53.533 18.09 53.259 18.37 52.978 18.65C52.156 19.484 51.326 20.308 50.503 21.131C50.453 21.181 50.402 21.238 50.357 21.287C50.095 21.596 50.017 21.96 50.017 22.346V32.286C50.016 32.42 50.027 32.552 50.05 32.684C50.099 33.001 50.254 33.292 50.487 33.512L51.277 34.302L54.278 37.303C54.345 37.371 54.407 37.444 54.502 37.466C54.211 37.835 53.931 38.216 53.617 38.563C53.583 38.602 53.556 38.653 53.505 38.675C53.483 38.676 53.459 38.672 53.439 38.662C53.419 38.652 53.401 38.638 53.387 38.619L53.225 38.457L42.803 28.036C42.724 27.958 42.65 27.875 42.579 27.789C42.328 27.464 42.356 27.213 42.569 26.894C42.627 26.809 42.696 26.73 42.77 26.658L49.03 20.398C49.915 19.512 50.8 18.633 51.68 17.743C51.942 17.48 52.205 17.217 52.453 16.942C52.665 16.706 52.895 16.488 53.113 16.254C53.605 15.721 54.122 15.206 54.625 14.691C54.743 14.573 54.866 14.461 54.932 14.305ZM48.482 27.319V24.093C48.476 24.036 48.458 23.98 48.428 23.931C48.397 23.881 48.357 23.839 48.309 23.806C48.261 23.774 48.207 23.753 48.149 23.745C48.092 23.736 48.033 23.74 47.978 23.757C47.88 23.793 47.792 23.849 47.72 23.925L44.669 26.977C44.633 27.011 44.601 27.049 44.573 27.089C44.439 27.268 44.439 27.392 44.563 27.576C44.65 27.689 44.748 27.794 44.854 27.889C45.8 28.842 46.75 29.792 47.703 30.74C47.781 30.822 47.874 30.884 47.978 30.925C48.141 30.981 48.42 30.875 48.46 30.657C48.473 30.576 48.48 30.496 48.482 30.415V27.319Z" fill="#9AC9E8"/>
<path d="M71.441 38.669C71.575 38.787 71.677 38.933 71.795 39.068C72.012 39.319 72.215 39.583 72.405 39.857C72.332 39.935 72.259 40.014 72.186 40.086L67.197 45.076C67 45.271 66.996 45.306 67.112 45.552C67.303 45.948 67.422 46.375 67.466 46.812C67.544 47.531 67.421 48.258 67.112 48.912C66.883 49.419 66.544 49.87 66.121 50.233C65.607 50.67 64.995 50.973 64.336 51.118C63.955 51.203 63.564 51.229 63.176 51.197C62.35 51.125 61.567 50.797 60.937 50.261C60.305 49.724 59.857 49.004 59.654 48.2C59.599 47.989 59.563 47.773 59.547 47.557C59.542 47.416 59.525 47.282 59.531 47.142C59.543 46.623 59.657 46.112 59.867 45.636C59.899 45.557 59.935 45.48 59.979 45.406C60.034 45.3 60.024 45.267 59.94 45.182C59.603 44.84 59.262 44.504 58.921 44.162L54.71 39.952C54.674 39.926 54.645 39.89 54.625 39.851C54.704 39.729 54.791 39.612 54.889 39.504C55.129 39.202 55.376 38.905 55.616 38.602C55.619 38.632 55.629 38.66 55.644 38.686C55.66 38.711 55.681 38.732 55.705 38.748L60.931 43.973C61.048 44.091 61.076 44.091 61.216 43.995C61.357 43.9 61.507 43.799 61.658 43.72C62.437 43.312 63.272 43.195 64.134 43.317C64.649 43.388 65.143 43.574 65.578 43.861C65.657 43.911 65.735 43.967 65.814 44.017C65.914 44.079 65.965 44.079 66.06 44.006C66.098 43.975 66.134 43.942 66.166 43.905C66.771 43.295 67.387 42.69 67.981 42.074C68.406 41.632 68.848 41.207 69.28 40.769C69.947 40.104 70.607 39.437 71.284 38.787C71.335 38.737 71.368 38.681 71.441 38.669ZM63.518 49.645C64.716 49.679 65.976 48.631 65.932 47.137C65.893 45.882 64.788 44.801 63.506 44.807C62.179 44.807 61.082 45.927 61.087 47.243C61.087 48.531 62.23 49.679 63.518 49.645Z" fill="#9AC9E8"/>
<path d="M62.721 30.37C62.721 29.743 62.727 29.116 62.721 28.489C62.711 27.638 62.727 26.786 62.727 25.935C62.731 25.591 62.663 25.25 62.527 24.934C62.391 24.617 62.19 24.333 61.938 24.099C61.887 24.049 61.831 23.998 61.781 23.947C61.131 23.287 60.924 22.508 61.159 21.613C61.415 20.638 62.15 19.994 63.151 19.848C64.513 19.647 65.722 20.644 65.89 21.915C65.996 22.722 65.75 23.422 65.162 23.987C64.905 24.224 64.692 24.505 64.529 24.816C64.345 25.195 64.256 25.614 64.266 26.037C64.272 27.464 64.283 28.892 64.283 30.321C64.283 31.77 64.282 33.221 64.278 34.672C64.283 34.811 64.267 34.95 64.233 35.085C64.126 35.45 63.784 35.668 63.393 35.629C63.045 35.596 62.748 35.282 62.721 34.929C62.715 34.867 62.715 34.806 62.715 34.739C62.721 33.294 62.721 31.832 62.721 30.37ZM63.488 23.119C63.661 23.119 63.829 23.068 63.972 22.973C64.114 22.877 64.225 22.74 64.291 22.581C64.357 22.422 64.374 22.248 64.339 22.079C64.305 21.911 64.223 21.756 64.1 21.635C63.979 21.514 63.823 21.431 63.655 21.399C63.486 21.366 63.31 21.384 63.153 21.451C62.995 21.517 62.859 21.629 62.764 21.773C62.669 21.917 62.62 22.084 62.621 22.256C62.623 22.486 62.715 22.704 62.878 22.865C63.041 23.027 63.26 23.118 63.488 23.119Z" fill="#51225D"/>
<path d="M37.685 16.784H27.035L26.735 25.984H36.285L35.735 31.284H26.585L26.535 32.934L27.135 45.934H20.135L20.735 33.784L20.135 11.434H38.235L37.685 16.784Z" fill="#51225D"/>
<path d="M100.56 11.37C103.76 11.37 106.31 12.2867 108.21 14.12C110.11 15.92 111.06 18.4033 111.06 21.57C111.06 24.7367 109.86 27.4533 107.46 29.72C105.06 31.9533 102.127 33.07 98.66 33.07H95.81L96.41 45.87H89.71L90.31 33.72L89.71 11.37H100.56ZM98.76 16.42H96.31L95.96 28.22H99.36C101.027 28.22 102.31 27.67 103.21 26.57C104.143 25.47 104.61 23.9033 104.61 21.87C104.61 18.2367 102.66 16.42 98.76 16.42Z" fill="#51225D"/>
</g>
<defs>
<clipPath id="clip0_1_2">
<rect width="127" height="62" fill="white"/>
</clipPath>
</defs>
</svg>
