<svg width="16" height="16" viewBox="0 0 16 16" fill="none" xmlns="http://www.w3.org/2000/svg">
<path d="M15.9493 7.07856C15.9153 6.99721 15.8667 6.92321 15.8047 6.86121L13.8053 4.86187C13.5447 4.60187 13.1233 4.60187 12.8627 4.86187C12.602 5.12253 12.602 5.54453 12.8627 5.80453L13.7247 6.66653H10.0006C9.63198 6.66653 9.33398 6.96518 9.33398 7.33318C9.33398 7.70118 9.63198 7.99984 10.0006 7.99984H13.7246L12.8626 8.86184C12.602 9.1225 12.602 9.5445 12.8626 9.8045C12.9926 9.93515 13.1633 9.99984 13.334 9.99984C13.5047 9.99984 13.6753 9.93518 13.8053 9.8045L15.8047 7.80515C15.8667 7.74381 15.9153 7.66981 15.9493 7.58781C16.0166 7.42521 16.0166 7.24121 15.9493 7.07856Z" fill="#7F7F7F"/>
<path d="M11.3343 9.33334C10.9656 9.33334 10.6676 9.632 10.6676 10V13.3333H8.00098V2.66666C8.00098 2.37266 7.80763 2.11266 7.52563 2.028L5.21029 1.33334H10.6676V4.66669C10.6676 5.03469 10.9656 5.33334 11.3343 5.33334C11.7029 5.33334 12.0009 5.03469 12.0009 4.66669V0.666687C12.0009 0.298656 11.7029 0 11.3343 0H0.667633C0.643633 0 0.622289 0.01 0.598977 0.0126563C0.567633 0.016 0.538977 0.0213125 0.508977 0.0286562C0.438977 0.0466563 0.375633 0.074 0.31632 0.111313C0.301664 0.120656 0.283664 0.121312 0.269664 0.131969C0.264289 0.136 0.262289 0.143344 0.256945 0.147344C0.184289 0.204656 0.123633 0.274656 0.0796328 0.358C0.0702891 0.376 0.0682891 0.395344 0.0609766 0.414C0.0396328 0.464656 0.0163203 0.514 0.00832031 0.57C0.00497656 0.59 0.0109766 0.608656 0.0103203 0.628C0.00966406 0.641344 0.000976562 0.653344 0.000976562 0.666656V14C0.000976562 14.318 0.225633 14.5913 0.536977 14.6533L7.20363 15.9867C7.24698 15.996 7.29098 16 7.33429 16C7.48695 16 7.63695 15.9474 7.75695 15.8487C7.91095 15.722 8.00095 15.5333 8.00095 15.3333V14.6667H11.3343C11.7029 14.6667 12.0009 14.368 12.0009 14V10C12.0009 9.632 11.7029 9.33334 11.3343 9.33334Z" fill="#7F7F7F"/>
<clipPath id="clip0_749_664">
<rect width="16" height="16" fill="white"/>
</clipPath>
</svg>