<svg width="127" height="62" viewBox="0 0 127 62" fill="none" xmlns="http://www.w3.org/2000/svg">
<path d="M19.9901 57.9397H12.1152V28.0923H1.37673V21.2086H30.6735V28.0923H19.9901V57.9397ZM43.2309 57.9397H35.6865V21.2086H43.5063V44.9434L60.5226 21.2086H68.5627V57.9397H60.7429V33.3238L43.2309 57.9397ZM115.62 57.9397H107.745V32.2225L97.3922 57.9397H93.9779L83.6249 32.2225V57.9397H75.8051V21.2086H86.7639L95.6851 43.4015L104.606 21.2086H115.62V57.9397Z" fill="black"/>
<path d="M4.13387 10H3.01534V5.83479H1.54526V4.85474H5.6146V5.83479H4.13387V10ZM9.6836 10H6.5304V4.85474H9.60903C10.0848 4.85474 10.4577 4.97903 10.7276 5.22759C10.9974 5.47615 11.1324 5.79218 11.1324 6.17568C11.1324 6.47396 11.0507 6.72607 10.8874 6.93202C10.724 7.13797 10.5181 7.27646 10.2695 7.34748C10.5465 7.41139 10.7773 7.56408 10.9619 7.80554C11.1466 8.0399 11.2389 8.30622 11.2389 8.6045C11.2389 9.0164 11.1004 9.35374 10.8234 9.6165C10.5536 9.87217 10.1736 10 9.6836 10ZM9.44924 9.01995C9.64809 9.01995 9.80433 8.97024 9.91796 8.87081C10.0316 8.76429 10.0884 8.62225 10.0884 8.44471C10.0884 8.28136 10.0316 8.14288 9.91796 8.02925C9.80433 7.91562 9.64809 7.85881 9.44924 7.85881H7.64893V9.01995H9.44924ZM9.41728 6.87876C9.59482 6.87876 9.73331 6.8326 9.83273 6.74027C9.93926 6.64085 9.99252 6.51657 9.99252 6.36743C9.99252 6.20409 9.93926 6.07625 9.83273 5.98393C9.73331 5.88451 9.59482 5.83479 9.41728 5.83479H7.64893V6.87876H9.41728ZM14.9489 10.1278C14.1535 10.1278 13.5143 9.86862 13.0314 9.35019C12.5485 8.82465 12.307 8.18194 12.307 7.42205C12.307 6.66215 12.5485 6.02299 13.0314 5.50456C13.5143 4.98613 14.1535 4.72691 14.9489 4.72691C15.7514 4.72691 16.3941 4.98613 16.877 5.50456C17.3599 6.02299 17.6014 6.66215 17.6014 7.42205C17.6014 8.18904 17.3599 8.83175 16.877 9.35019C16.3941 9.86862 15.7514 10.1278 14.9489 10.1278ZM14.9489 9.13713C15.4105 9.13713 15.7727 8.97379 16.0354 8.64711C16.3053 8.31332 16.4402 7.90497 16.4402 7.42205C16.4402 6.94623 16.3053 6.54497 16.0354 6.21829C15.7727 5.88451 15.4105 5.71761 14.9489 5.71761C14.4943 5.71761 14.1322 5.88451 13.8623 6.21829C13.5995 6.54497 13.4681 6.94623 13.4681 7.42205C13.4681 7.90497 13.5995 8.31332 13.8623 8.64711C14.1322 8.97379 14.4943 9.13713 14.9489 9.13713ZM19.8091 10H18.7331V4.85474H19.8517V8.31687L22.2166 4.85474H23.3351V10H22.2166V6.442L19.8091 10ZM22.8984 3.37402C22.4367 3.99898 21.8153 4.31146 21.0341 4.31146C20.26 4.31146 19.6351 3.99898 19.1593 3.37402L19.6706 2.94791C20.0115 3.41663 20.466 3.65099 21.0341 3.65099C21.6023 3.65099 22.0532 3.41663 22.387 2.94791L22.8984 3.37402ZM28.5996 10H27.5237V4.85474H28.6422V8.31687L31.0071 4.85474H32.1257V10H31.0071V6.442L28.5996 10ZM34.6968 10H33.5783V4.85474H34.6968V6.87876H37.0617V4.85474H38.1802V10H37.0617V7.85881H34.6968V10ZM41.6888 10H40.5703V5.83479H39.1002V4.85474H43.1695V5.83479H41.6888V10ZM46.4609 10.1278C45.6797 10.1278 45.0334 9.87927 44.5221 9.38214C44.0179 8.87792 43.7657 8.22455 43.7657 7.42205C43.7657 6.66925 44.0108 6.03364 44.5008 5.51521C44.9979 4.98968 45.6229 4.72691 46.3757 4.72691C47.1356 4.72691 47.7463 4.98968 48.2079 5.51521C48.6766 6.04075 48.911 6.71187 48.911 7.52857V7.79489H44.9375C44.9802 8.19969 45.147 8.53703 45.4382 8.8069C45.7294 9.07677 46.1093 9.2117 46.5781 9.2117C46.8408 9.2117 47.1036 9.16199 47.3664 9.06256C47.6362 8.96314 47.8599 8.82465 48.0375 8.64711L48.5488 9.38214C48.0304 9.87927 47.3344 10.1278 46.4609 10.1278ZM47.8244 7.00659C47.8102 6.6515 47.6788 6.33547 47.4303 6.0585C47.1888 5.78153 46.8373 5.64304 46.3757 5.64304C45.9353 5.64304 45.5909 5.78153 45.3423 6.0585C45.0938 6.32837 44.9553 6.6444 44.9269 7.00659H47.8244ZM52.7848 10.1278C52.103 10.1278 51.5526 9.84731 51.1336 9.28627V11.9601H50.0151V4.85474H51.1336V5.55782C51.5455 5.00388 52.0959 4.72691 52.7848 4.72691C53.4594 4.72691 54.0063 4.96837 54.4253 5.4513C54.8514 5.93422 55.0644 6.59114 55.0644 7.42205C55.0644 8.25296 54.8514 8.91342 54.4253 9.40345C54.0063 9.88637 53.4594 10.1278 52.7848 10.1278ZM52.4545 9.13713C52.8948 9.13713 53.2464 8.97734 53.5091 8.65776C53.7719 8.33818 53.9033 7.92627 53.9033 7.42205C53.9033 6.91782 53.7719 6.50946 53.5091 6.19699C53.2464 5.8774 52.8948 5.71761 52.4545 5.71761C52.1989 5.71761 51.9467 5.78508 51.6982 5.92001C51.4496 6.05495 51.2614 6.21829 51.1336 6.41004V8.44471C51.2614 8.63645 51.4496 8.7998 51.6982 8.93473C51.9467 9.06966 52.1989 9.13713 52.4545 9.13713ZM57.2922 10H56.1737V4.85474H57.2922V6.87876H59.6571V4.85474H60.7756V10H59.6571V7.85881H57.2922V10ZM64.6038 10.1278C63.8226 10.1278 63.1763 9.87927 62.665 9.38214C62.1607 8.87792 61.9086 8.22455 61.9086 7.42205C61.9086 6.66925 62.1536 6.03364 62.6437 5.51521C63.1408 4.98968 63.7658 4.72691 64.5185 4.72691C65.2784 4.72691 65.8892 4.98968 66.3508 5.51521C66.8195 6.04075 67.0539 6.71187 67.0539 7.52857V7.79489H63.0804C63.123 8.19969 63.2899 8.53703 63.5811 8.8069C63.8723 9.07677 64.2522 9.2117 64.7209 9.2117C64.9837 9.2117 65.2465 9.16199 65.5092 9.06256C65.7791 8.96314 66.0028 8.82465 66.1804 8.64711L66.6917 9.38214C66.1733 9.87927 65.4773 10.1278 64.6038 10.1278ZM65.9673 7.00659C65.9531 6.6515 65.8217 6.33547 65.5732 6.0585C65.3317 5.78153 64.9802 5.64304 64.5185 5.64304C64.0782 5.64304 63.7338 5.78153 63.4852 6.0585C63.2367 6.32837 63.0982 6.6444 63.0698 7.00659H65.9673ZM70.2139 10H69.0954V5.83479H67.6253V4.85474H71.6946V5.83479H70.2139V10ZM74.7623 7.90142H72.2056V6.94267H74.7623V7.90142ZM81.5673 10H80.4488V6.42069L78.9148 10H78.4673L76.9227 6.42069V10H75.8042V4.85474H77.2636L78.6911 8.17839L80.0972 4.85474H81.5673V10ZM87.2746 10H86.156V9.44606C85.7583 9.90057 85.2044 10.1278 84.4942 10.1278C84.0255 10.1278 83.61 9.97869 83.2478 9.68042C82.8856 9.37504 82.7045 8.95604 82.7045 8.4234C82.7045 7.87656 82.8821 7.46111 83.2372 7.17703C83.5994 6.89296 84.0184 6.75093 84.4942 6.75093C85.2257 6.75093 85.7796 6.97108 86.156 7.41139V6.6444C86.156 6.34612 86.0459 6.11176 85.8258 5.94132C85.6056 5.77088 85.3145 5.68566 84.9523 5.68566C84.377 5.68566 83.8692 5.90226 83.4289 6.33547L82.9709 5.55782C83.5532 5.00388 84.274 4.72691 85.1334 4.72691C85.7654 4.72691 86.2803 4.87605 86.678 5.17433C87.0757 5.4726 87.2746 5.94487 87.2746 6.59114V10ZM84.931 9.36084C85.492 9.36084 85.9004 9.18329 86.156 8.8282V8.05056C85.9004 7.69547 85.492 7.51792 84.931 7.51792C84.6114 7.51792 84.3486 7.60314 84.1427 7.77359C83.9367 7.94403 83.8337 8.16774 83.8337 8.44471C83.8337 8.72168 83.9367 8.94538 84.1427 9.11583C84.3486 9.27917 84.6114 9.36084 84.931 9.36084ZM92.6236 4.85474V5.83479H89.8433V10H88.7247V4.85474H92.6236ZM97.8024 10H96.6839V9.44606C96.2862 9.90057 95.7322 10.1278 95.0221 10.1278C94.5533 10.1278 94.1379 9.97869 93.7757 9.68042C93.4135 9.37504 93.2324 8.95604 93.2324 8.4234C93.2324 7.87656 93.4099 7.46111 93.765 7.17703C94.1272 6.89296 94.5462 6.75093 95.0221 6.75093C95.7535 6.75093 96.3075 6.97108 96.6839 7.41139V6.6444C96.6839 6.34612 96.5738 6.11176 96.3536 5.94132C96.1335 5.77088 95.8423 5.68566 95.4801 5.68566C94.9049 5.68566 94.3971 5.90226 93.9568 6.33547L93.4987 5.55782C94.0811 5.00388 94.8019 4.72691 95.6612 4.72691C96.2933 4.72691 96.8082 4.87605 97.2059 5.17433C97.6036 5.4726 97.8024 5.94487 97.8024 6.59114V10ZM95.4588 9.36084C96.0199 9.36084 96.4282 9.18329 96.6839 8.8282V8.05056C96.4282 7.69547 96.0199 7.51792 95.4588 7.51792C95.1392 7.51792 94.8765 7.60314 94.6705 7.77359C94.4646 7.94403 94.3616 8.16774 94.3616 8.44471C94.3616 8.72168 94.4646 8.94538 94.6705 9.11583C94.8765 9.27917 95.1392 9.36084 95.4588 9.36084ZM101.106 10.1278C100.098 10.1278 99.3094 9.85086 98.7413 9.29692L99.2633 8.58319C99.732 9.0022 100.346 9.2117 101.106 9.2117C101.497 9.2117 101.802 9.15133 102.022 9.0306C102.25 8.90277 102.363 8.73233 102.363 8.51927C102.363 8.07186 101.912 7.84815 101.01 7.84815H99.9131V6.95333H101.01C101.401 6.95333 101.706 6.89651 101.926 6.78288C102.154 6.66925 102.267 6.50236 102.267 6.28221C102.267 6.09756 102.15 5.94487 101.916 5.82414C101.681 5.70341 101.387 5.64304 101.032 5.64304C100.343 5.64304 99.7923 5.849 99.3804 6.2609L98.8265 5.57913C99.3733 5.01809 100.091 4.73756 100.978 4.73756C101.738 4.73046 102.335 4.85474 102.768 5.11041C103.208 5.35897 103.428 5.69986 103.428 6.13307C103.428 6.45975 103.29 6.73672 103.013 6.96398C102.743 7.18414 102.427 7.31907 102.065 7.36878C102.427 7.39719 102.761 7.51792 103.066 7.73097C103.379 7.94403 103.535 8.2352 103.535 8.6045C103.535 9.05191 103.315 9.41765 102.875 9.70172C102.441 9.9858 101.852 10.1278 101.106 10.1278ZM105.738 10H104.662V4.85474H105.781V8.31687L108.146 4.85474H109.264V10H108.146V6.442L105.738 10ZM111.835 10H110.717V4.85474H111.835V6.87876H114.2V4.85474H115.319V10H114.2V7.85881H111.835V10Z" fill="black"/>
<circle cx="119.619" cy="53.2637" r="5.86801" fill="#00BE57" stroke="white" stroke-width="2.70831"/>
</svg>
