<svg width="14" height="14" viewBox="0 0 14 14" fill="none" xmlns="http://www.w3.org/2000/svg">
<path d="M13.9145 13.0897L9.84765 9.0228C10.619 8.0705 11.0833 6.85982 11.0833 5.54169C11.0833 2.48602 8.59733 0 5.54166 0C2.48599 0 0 2.48602 0 5.54169C0 8.59736 2.48602 11.0834 5.54169 11.0834C6.85982 11.0834 8.0705 10.619 9.0228 9.84768L13.0897 13.9146C13.2036 14.0285 13.3883 14.0285 13.5022 13.9146L13.9146 13.5022C14.0285 13.3883 14.0285 13.2036 13.9145 13.0897ZM5.54169 9.9167C3.12917 9.9167 1.16668 7.9542 1.16668 5.54169C1.16668 3.12917 3.12917 1.16668 5.54169 1.16668C7.9542 1.16668 9.91669 3.12917 9.91669 5.54169C9.91669 7.9542 7.9542 9.9167 5.54169 9.9167Z" fill="#51225D"/>
</svg>