<svg width="50" height="48" viewBox="0 0 50 48" fill="none" xmlns="http://www.w3.org/2000/svg">
<path d="M14.8448 4.16176C14.7718 4.16176 14.6989 4.15513 14.6193 4.15513C13.6377 4.15513 12.656 4.15513 11.6744 4.14849C11.376 4.14849 11.1836 4.27451 11.0642 4.53982C10.8928 4.93542 10.6397 5.29029 10.3214 5.58113C9.61169 6.19133 8.80251 6.51632 7.85406 6.44337C7.57796 6.42269 7.30698 6.35775 7.05151 6.25102C6.45145 6.02468 5.92417 5.63953 5.52602 5.13675C5.18342 4.69236 4.97823 4.1575 4.93572 3.59799C4.87603 2.96126 4.95562 2.34443 5.24745 1.77403C5.75153 0.779145 6.55407 0.195479 7.66171 0.0362969C8.29048 -0.0582271 8.93316 0.0370923 9.50743 0.310047C10.0817 0.583002 10.5614 1.02117 10.8851 1.56842C10.9382 1.65465 10.978 1.7475 11.0244 1.83373C11.0928 1.98186 11.2036 2.10634 11.3428 2.19137C11.4821 2.27639 11.6434 2.31813 11.8064 2.31127C12.2176 2.31127 12.6355 2.30464 13.0467 2.30464C14.6518 2.30464 16.2635 2.30464 17.8686 2.29801C18.0551 2.29094 18.2401 2.33473 18.4036 2.42469C18.5672 2.51465 18.7032 2.64739 18.7971 2.80871C19.494 3.90972 20.1926 5.01073 20.893 6.11174C20.9196 6.15816 20.9527 6.19796 20.9793 6.24439C21.2048 6.62244 21.543 6.78826 21.9741 6.78163C23.2012 6.7551 24.4216 6.76173 25.6486 6.76173C26.4578 6.76173 27.2736 6.76173 28.0828 6.78163C28.494 6.79489 28.7924 6.61581 29.0047 6.27092C29.721 5.13012 30.4439 3.99595 31.1669 2.85514C31.2101 2.78292 31.2589 2.71418 31.3128 2.64953C31.3967 2.54312 31.5035 2.45689 31.6252 2.3972C31.7468 2.33751 31.8803 2.30588 32.0159 2.30464C32.1817 2.29801 32.3475 2.30464 32.5067 2.30464H38.3036C38.4263 2.30493 38.5469 2.27252 38.653 2.21073C38.7591 2.14895 38.8468 2.06003 38.9071 1.95311C38.9469 1.88679 38.9734 1.82046 39.0132 1.75413C39.5505 0.759247 40.3729 0.155683 41.4938 0.0230317C43.2382 -0.175946 44.6974 0.931695 45.029 2.57657C45.1841 3.33829 45.0583 4.1304 44.6748 4.80658C44.2914 5.48277 43.6762 5.99734 42.9429 6.25526C42.2095 6.51317 41.4077 6.49699 40.6854 6.20971C39.9631 5.92243 39.3691 5.38347 39.0132 4.69237C38.9668 4.60614 38.9204 4.51329 38.8673 4.42706C38.8173 4.33856 38.7437 4.26568 38.6547 4.2165C38.5657 4.16732 38.4648 4.14378 38.3632 4.14849C37.3551 4.15513 36.3469 4.15513 35.3388 4.15513C35.3056 4.15513 35.2725 4.16176 35.2459 4.16176C35.2327 4.16176 35.2128 4.15513 35.1995 4.15513H32.7388C32.7123 4.15513 32.6858 4.16176 32.6592 4.16176C32.6411 4.15307 32.6214 4.14842 32.6013 4.14816C32.5812 4.14789 32.5614 4.15201 32.543 4.16021C32.5247 4.16842 32.5084 4.18053 32.4953 4.19569C32.4821 4.21085 32.4724 4.22869 32.4669 4.24798C32.4404 4.30104 32.4072 4.34747 32.374 4.40053C31.8567 5.21634 31.3393 6.02993 30.822 6.84132C30.7894 6.88987 30.7605 6.94087 30.7358 6.99387C30.6628 7.13979 30.6827 7.19948 30.822 7.27244C30.895 7.3056 30.9679 7.33876 31.0409 7.36529C31.7829 7.65229 32.4976 8.00523 33.1766 8.41987C34.8281 9.44129 36.1015 10.8076 36.9372 12.5719C37.528 13.8442 37.8852 15.2124 37.9918 16.6111C38.0628 17.4892 38.0137 18.3728 37.8459 19.2376C37.6141 20.409 37.1954 21.5355 36.6056 22.5738C35.876 23.887 35.1265 25.1804 34.3704 26.4804C34.0852 26.9778 33.7934 27.4686 33.5082 27.9661C33.4602 28.0362 33.4339 28.1189 33.4327 28.2038C33.4315 28.2888 33.4555 28.3722 33.5016 28.4436C33.5546 28.5232 33.5944 28.6094 33.6409 28.6957C34.2311 29.7237 34.9408 30.6655 35.6771 31.5941C35.6903 31.6074 35.7102 31.6206 35.7235 31.6339C35.7367 31.6472 35.7301 31.6671 35.7434 31.6803C36.1148 32.1645 36.473 32.6553 36.8974 33.0931C37.0757 33.357 37.2729 33.6075 37.4877 33.8425C37.9653 34.3997 38.4428 34.9502 38.9204 35.5073C38.9941 35.5923 39.0606 35.6833 39.1194 35.7793C39.1936 35.9082 39.2332 36.0541 39.2344 36.2029C39.2356 36.3516 39.1982 36.4982 39.126 36.6282C39.0763 36.721 39.0162 36.8078 38.9469 36.8869C38.0449 37.9945 37.1428 39.0955 36.2408 40.2032C36.1398 40.3351 36.0135 40.4456 35.8694 40.5282C35.7457 40.5958 35.6081 40.6338 35.4672 40.6393C35.3264 40.6447 35.1862 40.6175 35.0577 40.5596C34.9291 40.5018 34.8158 40.4149 34.7264 40.3059C34.6371 40.1969 34.5743 40.0686 34.5429 39.9312C34.4699 39.6195 34.5628 39.3409 34.7551 39.0955C34.9475 38.8501 35.1597 38.5915 35.3653 38.3394C35.8031 37.8022 36.2474 37.2649 36.6852 36.7277C36.767 36.6366 36.8382 36.5364 36.8974 36.4292C36.9354 36.3683 36.955 36.2977 36.9538 36.226C36.9526 36.1542 36.9308 36.0843 36.8908 36.0247C36.8615 35.9735 36.8283 35.9247 36.7913 35.8787C36.3735 35.3946 35.9556 34.9037 35.5378 34.4196C35.3138 34.0951 35.0724 33.7829 34.8148 33.4844C34.6822 33.3252 34.5628 33.1461 34.397 33.0135C34.3864 32.9571 34.3613 32.9045 34.324 32.8609C33.6408 31.9921 32.9842 31.0967 32.3807 30.1681C32.3608 30.1349 32.3475 30.0951 32.2944 30.0752C32.2281 30.188 32.1618 30.2941 32.1021 30.4069C31.4786 31.4813 30.8684 32.5558 30.2383 33.6237C28.6465 36.3298 25.4364 37.3047 22.6905 36.2369C21.364 35.7196 20.3492 34.8242 19.6328 33.5971C18.9961 32.5094 18.3727 31.415 17.7426 30.3206C17.716 30.2742 17.6961 30.2278 17.6364 30.2079C17.5968 30.2357 17.5667 30.2751 17.5502 30.3206C17.1921 30.8778 16.8007 31.415 16.4028 31.9456C16.1574 32.2706 15.912 32.6022 15.6732 32.9272C15.388 33.2854 15.0962 33.6369 14.811 33.9951C14.7048 34.1277 14.5788 34.2538 14.4992 34.4063C14.2406 34.6782 14.0151 34.9634 13.7697 35.2486C13.5839 35.4609 13.4049 35.6731 13.2258 35.892C13.0268 36.1308 13.0202 36.3231 13.2191 36.5752C13.4646 36.8803 13.71 37.1854 13.962 37.4905C14.3798 38.0012 14.7977 38.5185 15.2222 39.0292C15.3483 39.1675 15.4353 39.3369 15.4742 39.52C15.5405 39.8583 15.4742 40.17 15.2156 40.4088C14.9569 40.6476 14.6319 40.694 14.2936 40.6011C14.1283 40.5514 13.9839 40.4489 13.8824 40.3093C13.3253 39.6261 12.7681 38.9496 12.211 38.2665C11.8197 37.7889 11.4416 37.3047 11.0437 36.8338C10.6789 36.4027 10.7386 35.9252 11.0636 35.5537C11.5411 34.9966 12.012 34.4395 12.4896 33.889C12.6753 33.6701 12.861 33.4512 13.0467 33.239C13.1026 33.1812 13.1436 33.1106 13.1661 33.0334C13.2258 33.0068 13.2589 32.9471 13.2987 32.9007C13.6702 32.4829 14.0018 32.0385 14.3467 31.6007C14.4196 31.5079 14.4926 31.4216 14.5656 31.3288C15.2377 30.4859 15.8537 29.5996 16.4094 28.6758C16.5553 28.4304 16.5487 28.2314 16.4094 27.986C15.2421 25.9829 14.0814 23.9666 12.9207 21.957C12.6673 21.5166 12.4478 21.0577 12.2641 20.584C11.8501 19.5063 11.6627 18.3548 11.7136 17.2014C11.7628 16.3386 11.9097 15.4842 12.1513 14.6545C12.7018 12.7112 13.6768 11.0198 15.1492 9.62037C16.2536 8.57217 17.5764 7.78164 19.0226 7.3056C19.0757 7.2857 19.1221 7.27244 19.1686 7.25254C19.3079 7.18621 19.3344 7.11989 19.2681 6.98724C19.2388 6.92969 19.2056 6.87428 19.1686 6.82142C18.7308 6.125 18.2864 5.43521 17.8421 4.73879C17.7293 4.55971 17.6099 4.38727 17.4972 4.20819C17.4574 4.13523 17.391 4.15513 17.3313 4.15513H16.1109C15.6805 4.15513 15.2626 4.16176 14.8448 4.16176ZM24.913 34.8441C25.1663 34.8374 25.4187 34.8131 25.6685 34.7711C26.9685 34.5456 27.9501 33.8624 28.6333 32.7283C29.5021 31.2757 30.3312 29.8033 31.1735 28.3375C31.2357 28.2325 31.2745 28.1153 31.2871 27.994C31.2996 27.8726 31.2858 27.75 31.2465 27.6344C30.6496 25.5982 30.2781 23.5222 29.9664 21.4264C29.8735 20.7896 29.7807 20.1595 29.6945 19.5228C29.6082 18.906 29.5353 18.2825 29.4557 17.6591C29.396 17.1616 29.3429 16.6575 29.2832 16.1601L29.1042 14.4688C29.0445 13.8785 28.9914 13.2882 28.9317 12.6979C28.8654 12.0081 28.8057 11.3117 28.746 10.6219C28.7128 10.2637 28.6929 9.90557 28.6532 9.54741C28.6067 9.0964 28.3282 8.7714 27.9236 8.65865C27.8047 8.62651 27.6819 8.61089 27.5588 8.61222H22.4053C22.3631 8.61112 22.321 8.61333 22.2792 8.61885C21.7818 8.65865 21.4568 8.94385 21.3573 9.43466C21.3175 9.64027 21.3109 9.84588 21.291 10.0515C21.1981 11.0994 21.1119 12.1407 21.0124 13.1887C20.9395 13.9713 20.8599 14.754 20.7803 15.53C20.6874 16.4121 20.5813 17.2876 20.4752 18.1698C20.3823 18.9259 20.2828 19.682 20.1767 20.4381C20.0573 21.2937 19.918 22.1493 19.7788 22.9983C19.6063 24.0064 19.4206 25.0079 19.1818 26.0095C19.0425 26.6064 18.89 27.2033 18.7043 27.7936C18.6635 27.9118 18.6501 28.0376 18.665 28.1617C18.68 28.2858 18.7229 28.4049 18.7905 28.5099C18.8568 28.6161 18.9165 28.7288 18.9829 28.8416C19.6992 30.0819 20.3956 31.3354 21.1384 32.5558C21.3 32.8236 21.4818 33.0786 21.6823 33.3186C22.5386 34.3134 23.6396 34.7844 24.913 34.8441ZM13.6907 17.2014C13.6997 18.068 13.8269 18.9294 14.0688 19.7616C14.3009 20.5509 14.6524 21.2804 15.0504 21.9968C15.6871 23.1575 16.3769 24.2916 17.0402 25.4391C17.0555 25.4671 17.0733 25.4937 17.0932 25.5187C17.206 25.6513 17.3718 25.6248 17.4315 25.4656C17.4434 25.4311 17.4523 25.3956 17.458 25.3595C17.6636 24.4641 17.8361 23.5687 17.9886 22.66C18.1213 21.8707 18.2473 21.0815 18.3534 20.2856C18.4396 19.6157 18.5325 18.9524 18.6121 18.2825C18.6917 17.6126 18.7779 16.9361 18.8509 16.2596C18.9238 15.6295 18.9902 14.9928 19.0565 14.3627C19.1228 13.7525 19.1759 13.1356 19.2356 12.5254C19.2754 12.1209 19.3151 11.7096 19.3483 11.305C19.3682 11.053 19.408 10.801 19.3616 10.5423C19.3156 10.2777 19.1674 10.0418 18.949 9.88542C18.7306 9.72908 18.4596 9.66485 18.1942 9.70659C18.0222 9.74035 17.8594 9.81045 17.7167 9.9122C15.1167 11.6499 13.7962 14.0907 13.6907 17.2014ZM36.1752 17.5994C36.142 16.704 36.069 15.9213 35.89 15.1519C35.3726 12.9632 34.1589 11.2652 32.2951 10.0183C32.2013 9.95704 32.1012 9.90591 31.9966 9.86577C31.8324 9.80525 31.6554 9.7876 31.4825 9.81451C31.3095 9.84141 31.1463 9.91198 31.0082 10.0195C30.8701 10.1271 30.7617 10.2681 30.6933 10.4292C30.6248 10.5903 30.5986 10.7662 30.6171 10.9403C30.6436 11.2453 30.6768 11.5504 30.7033 11.8555C30.7762 12.5851 30.8426 13.3147 30.9155 14.0377C30.9818 14.7142 31.0415 15.3907 31.1211 16.0606C31.2074 16.83 31.3002 17.5994 31.3931 18.3687C31.4859 19.1182 31.5854 19.8611 31.6915 20.6039C31.8043 21.3866 31.9237 22.1626 32.063 22.9452C32.1956 23.6947 32.3349 24.4442 32.5007 25.1937C32.5091 25.2464 32.5247 25.2977 32.5471 25.3462C32.56 25.3739 32.5795 25.3981 32.6039 25.4164C32.6284 25.4348 32.657 25.4468 32.6872 25.4514C32.7174 25.456 32.7483 25.453 32.7771 25.4428C32.8059 25.4325 32.8317 25.4153 32.8522 25.3926C32.8869 25.3511 32.918 25.3068 32.9451 25.26C33.6216 24.086 34.2915 22.9187 34.968 21.7447C35.2356 21.2803 35.4641 20.7945 35.6512 20.2922C35.9894 19.3902 36.2282 18.4682 36.1752 17.5994ZM40.4996 3.22657C40.4983 3.49998 40.5782 3.76762 40.7293 3.9955C40.8804 4.22339 41.0958 4.40124 41.3482 4.50647C41.6005 4.61171 41.8784 4.63959 42.1467 4.58657C42.4149 4.53355 42.6613 4.40203 42.8547 4.20869C43.048 4.01535 43.1795 3.76893 43.2325 3.5007C43.2856 3.23247 43.2577 2.95454 43.1524 2.70219C43.0472 2.44983 42.8694 2.23444 42.6415 2.08336C42.4136 1.93227 42.146 1.85231 41.8725 1.85362C41.5087 1.85467 41.1601 1.99966 40.9029 2.25691C40.6456 2.51416 40.5006 2.86276 40.4996 3.22657ZM8.13262 1.85362C7.8608 1.85231 7.59471 1.93171 7.36806 2.08177C7.14141 2.23183 6.9644 2.4458 6.85947 2.69655C6.75454 2.94731 6.7264 3.22357 6.77862 3.49033C6.83085 3.75709 6.96108 4.00234 7.15283 4.19501C7.34457 4.38769 7.58919 4.51911 7.85569 4.57262C8.1222 4.62614 8.39859 4.59934 8.64985 4.49562C8.90111 4.3919 9.11593 4.21594 9.26708 3.99002C9.41824 3.7641 9.49893 3.49839 9.49893 3.22657C9.50078 3.04631 9.46676 2.86749 9.39883 2.70052C9.3309 2.53354 9.23044 2.38175 9.10328 2.25398C8.97613 2.12621 8.82482 2.02501 8.65818 1.95627C8.49154 1.88754 8.31288 1.85265 8.13262 1.85362Z" fill="white"/>
<path d="M32.6667 4.16837C32.6928 4.16287 32.7196 4.16065 32.7463 4.16174H35.207C35.2202 4.16174 35.2401 4.16837 35.2534 4.16837C35.26 4.22143 35.2998 4.24796 35.333 4.28112C35.7973 4.77857 36.2814 5.24948 36.7524 5.74029C37.6279 6.64232 38.5233 7.52445 39.3988 8.42648C40.0222 9.06984 40.6656 9.69331 41.2824 10.3433C41.6273 10.7015 41.9788 11.053 42.3237 11.4178C42.9008 12.0346 43.5176 12.605 44.0946 13.2218C44.7645 13.9315 45.4742 14.6014 46.1507 15.3111C46.4492 15.6228 46.7609 15.9346 47.0594 16.2463C47.716 16.9427 48.4124 17.5927 49.0691 18.2891C49.3078 18.5412 49.5731 18.7733 49.7854 19.0585C50.0308 19.3901 50.0573 19.7682 49.8185 20.1197C49.753 20.2161 49.6798 20.307 49.5997 20.3917L48.7242 21.2672L37.1901 32.8012C37.0973 32.9007 36.9845 32.9803 36.9049 33.093C36.4804 32.6553 36.1156 32.1645 35.7508 31.6803C35.743 31.6654 35.7364 31.6498 35.7309 31.6339C35.7508 31.5808 35.7973 31.5543 35.8371 31.5145C36.5534 30.8048 37.2631 30.0885 37.9794 29.3854C38.6824 28.6956 39.3722 27.986 40.062 27.2829L40.4998 26.8451C40.6474 26.7027 40.7642 26.5315 40.8429 26.3422C40.9216 26.1528 40.9606 25.9492 40.9574 25.7441V13.3346C40.9568 12.8896 40.7803 12.4629 40.4666 12.1474C40.2477 11.9152 40.0222 11.6897 39.8033 11.4642C39.3656 11.0066 38.9146 10.5688 38.4835 10.1112C37.9529 9.55402 37.4023 9.01678 36.8651 8.46628C36.0692 7.64384 35.2468 6.8413 34.4509 6.01886C33.8871 5.43519 33.2968 4.87806 32.7463 4.28112C32.7198 4.24796 32.6733 4.2148 32.6667 4.16837ZM42.7946 19.5493V22.461C42.7946 22.7661 42.788 23.0646 42.7946 23.3697C42.8013 23.562 42.8742 23.7212 43.0599 23.8074C43.1452 23.8522 43.242 23.8704 43.3377 23.8598C43.4334 23.8492 43.5238 23.8101 43.5972 23.7477C43.6643 23.696 43.7285 23.6407 43.7895 23.5819L44.5655 22.786C45.4941 21.8575 46.4227 20.9223 47.3578 20.0003C47.4143 19.9485 47.4594 19.8854 47.4903 19.8152C47.5211 19.745 47.5371 19.6691 47.5371 19.5924C47.5371 19.5157 47.5211 19.4399 47.4903 19.3697C47.4594 19.2994 47.4143 19.2364 47.3578 19.1845C47.0527 18.8794 46.7543 18.5743 46.4558 18.2626C45.5472 17.3208 44.6053 16.4254 43.7099 15.4703C43.6656 15.4171 43.6143 15.3703 43.5574 15.331C43.4946 15.2865 43.4221 15.2576 43.3459 15.2468C43.2697 15.236 43.192 15.2436 43.1193 15.2689C43.0466 15.2942 42.981 15.3365 42.928 15.3923C42.875 15.4481 42.8361 15.5158 42.8145 15.5897C42.7926 15.6718 42.7837 15.7568 42.788 15.8417C42.7946 17.0754 42.7946 18.309 42.7946 19.5493Z" fill="white"/>
<path d="M14.8446 4.16174C15.2625 4.16174 15.6803 4.15511 16.0982 4.15511H17.3186C17.3782 4.15511 17.4512 4.13521 17.4844 4.20817C17.4499 4.21025 17.4163 4.22032 17.3864 4.23759C17.3565 4.25486 17.331 4.27884 17.3119 4.30766C17.1726 4.46021 17.0267 4.60613 16.8874 4.75868C16.4696 5.19643 16.0584 5.63418 15.6405 6.07193C15.163 6.576 14.6788 7.07345 14.2012 7.57752C13.9757 7.82293 13.737 8.05507 13.5048 8.30047C13.1865 8.64537 12.8615 8.977 12.5298 9.30862C11.5548 10.2969 10.5732 11.2719 9.59823 12.2469C9.53854 12.3065 9.47885 12.3729 9.42579 12.4326C9.11406 12.7974 9.0212 13.2285 9.0212 13.6861V25.4589C9.02099 25.6168 9.0343 25.7743 9.061 25.9299C9.11977 26.3054 9.30177 26.6507 9.57834 26.9115L10.5135 27.8467L14.0686 31.4017C14.1482 31.4813 14.2211 31.5675 14.3339 31.5941C13.989 32.0318 13.6574 32.4828 13.2859 32.8941C13.2462 32.9405 13.213 33.0002 13.1533 33.0267C13.1264 33.0277 13.0998 33.0222 13.0755 33.0107C13.0513 32.9991 13.0302 32.9819 13.014 32.9604L12.8217 32.768L0.478442 20.4248C0.38479 20.3324 0.296225 20.235 0.213139 20.133C-0.0853271 19.7483 -0.0521642 19.4498 0.199874 19.0718C0.270263 18.9714 0.350229 18.8781 0.438646 18.7932L7.85387 11.378C8.90181 10.33 9.94976 9.28873 10.9911 8.23415C11.3028 7.92242 11.6145 7.61068 11.9064 7.28569C12.1584 7.00712 12.4303 6.74845 12.689 6.46988C13.2727 5.83979 13.8829 5.22959 14.4798 4.61939C14.6191 4.48011 14.765 4.34746 14.8446 4.16174ZM7.20387 19.5759V15.7555C7.19704 15.6872 7.17516 15.6213 7.13981 15.5625C7.10446 15.5037 7.05652 15.4535 6.99944 15.4155C6.94236 15.3774 6.87756 15.3525 6.80969 15.3425C6.74182 15.3324 6.67258 15.3376 6.60694 15.3575C6.49108 15.3991 6.38658 15.4672 6.30184 15.5565L2.68709 19.1713C2.646 19.2124 2.6083 19.2567 2.57434 19.3039C2.41515 19.5162 2.41515 19.6621 2.56107 19.881C2.66553 20.0141 2.7809 20.1383 2.90597 20.2524C4.02687 21.3799 5.1522 22.5052 6.28195 23.6284C6.37306 23.7241 6.48397 23.7988 6.60694 23.8472C6.79929 23.9136 7.13092 23.7875 7.17734 23.5289C7.19306 23.4346 7.20193 23.3392 7.20387 23.2437V19.5759Z" fill="white"/>
<path d="M34.397 33.0201C34.5562 33.1594 34.6756 33.3318 34.8149 33.491C35.0725 33.7895 35.3138 34.1017 35.5378 34.4262C35.4516 34.5191 35.3654 34.6119 35.2792 34.6982L29.3695 40.6078C29.1374 40.8399 29.1308 40.8797 29.27 41.1715C29.4951 41.6409 29.6365 42.1459 29.6879 42.6639C29.7803 43.5156 29.6357 44.3763 29.27 45.1511C28.9969 45.7518 28.5963 46.286 28.0961 46.7164C27.487 47.2332 26.7605 47.593 25.9803 47.7643C25.53 47.8646 25.067 47.896 24.6073 47.8572C23.6295 47.7725 22.7023 47.3852 21.9546 46.7493C21.207 46.1134 20.676 45.2603 20.4354 44.3088C20.3704 44.0589 20.3282 43.8036 20.3094 43.546C20.3028 43.3802 20.2829 43.221 20.2895 43.0552C20.3047 42.4402 20.4399 41.8342 20.6875 41.271C20.725 41.1773 20.7693 41.0864 20.8201 40.9991C20.8865 40.8731 20.8732 40.8333 20.7737 40.7338C20.3758 40.3292 19.9712 39.9313 19.5666 39.5267L14.5789 34.539C14.537 34.5073 14.503 34.4665 14.4794 34.4196C14.572 34.2743 14.6763 34.1368 14.7911 34.0084C15.0763 33.6502 15.3682 33.2987 15.6534 32.9405C15.6567 32.9755 15.668 33.0092 15.6864 33.039C15.7048 33.0689 15.7298 33.0942 15.7595 33.113L21.9477 39.3012C22.087 39.4404 22.1201 39.4404 22.2859 39.3277C22.4518 39.2149 22.6308 39.0955 22.8099 39.0027C23.7318 38.5185 24.7201 38.3792 25.7415 38.5251C26.3527 38.6094 26.9374 38.8292 27.4527 39.1685C27.5456 39.2282 27.6384 39.2945 27.7313 39.3542C27.8507 39.4272 27.9104 39.4272 28.0231 39.341C28.0683 39.3046 28.1104 39.2647 28.1491 39.2216C28.8655 38.4986 29.595 37.7823 30.2981 37.0527C30.8022 36.5287 31.3261 36.0247 31.8368 35.5073C32.6261 34.718 33.4088 33.9288 34.2113 33.1594C34.271 33.0997 34.3108 33.0334 34.397 33.0201ZM25.0119 46.02C26.4313 46.0598 27.9236 44.8195 27.8706 43.0486C27.8241 41.5629 26.5175 40.2828 24.9987 40.2894C23.4267 40.2894 22.1268 41.6159 22.1334 43.1746C22.1334 44.7001 23.4864 46.0598 25.0119 46.02Z" fill="white"/>
<path d="M24.0701 23.1906C24.0701 22.4477 24.0767 21.7049 24.0701 20.962C24.0568 19.9539 24.0767 18.9457 24.0767 17.9376C24.0815 17.5298 24.0008 17.1254 23.8397 16.7507C23.6786 16.376 23.4408 16.0392 23.1415 15.7621C23.0818 15.7024 23.0155 15.6427 22.9558 15.583C22.1864 14.8004 21.9408 13.8785 22.2189 12.8172C22.524 11.6632 23.3929 10.9004 24.5801 10.728C26.1919 10.4892 27.6245 11.6698 27.8235 13.1754C27.9495 14.1305 27.6577 14.9596 26.9612 15.6295C26.6569 15.9112 26.4033 16.2432 26.2118 16.6111C25.9936 17.0612 25.8867 17.557 25.9 18.057C25.9067 19.7483 25.9199 21.4396 25.9199 23.1309C25.9199 24.8487 25.9177 26.5666 25.9133 28.2844C25.919 28.4497 25.9011 28.615 25.8602 28.7752C25.7342 29.2063 25.3296 29.465 24.8653 29.4186C24.4541 29.3788 24.1026 29.0074 24.0694 28.5895C24.0628 28.5166 24.0628 28.4436 24.0628 28.364C24.0701 26.6528 24.0701 24.9217 24.0701 23.1906ZM24.9788 14.6014C25.1824 14.6014 25.3814 14.5409 25.5506 14.4277C25.7198 14.3144 25.8516 14.1535 25.9292 13.9652C26.0068 13.777 26.0267 13.5699 25.9865 13.3703C25.9463 13.1707 25.8478 12.9876 25.7033 12.8441C25.5589 12.7006 25.3751 12.6032 25.1752 12.5643C24.9754 12.5253 24.7685 12.5467 24.5807 12.6255C24.393 12.7043 24.2329 12.8371 24.1207 13.007C24.0086 13.177 23.9494 13.3764 23.9507 13.58C23.9535 13.8512 24.0629 14.1104 24.2553 14.3015C24.4477 14.4926 24.7076 14.6004 24.9788 14.6014Z" fill="white"/>
</svg>
