<svg width="113" height="21" viewBox="0 0 113 21" fill="none" xmlns="http://www.w3.org/2000/svg">
<path d="M3.18 3.8C3.18 2.78 3.04 2.03 2.76 1.55C2.48 1.05 1.92 0.799999 1.08 0.799999H0.48V0.199999H8.28C10.46 0.199999 12.35 0.559999 13.95 1.28C15.57 2 16.38 3.39 16.38 5.45C16.38 6.39 16.06 7.24 15.42 8C14.78 8.76 13.8 9.36 12.48 9.8C14.32 10.1 15.6 10.65 16.32 11.45C17.06 12.23 17.43 13.28 17.43 14.6C17.43 16.62 16.63 18.03 15.03 18.83C13.45 19.61 11.5 20 9.18 20H3.18V3.8ZM8.73 9.35C9.55 9.35 10.32 9.2 11.04 8.9C11.78 8.58 12.38 8.12 12.84 7.52C13.3 6.9 13.53 6.16 13.53 5.3C13.53 4.4 13.26 3.65 12.72 3.05C12.18 2.43 11.49 1.98 10.65 1.7C9.83 1.4 8.99 1.25 8.13 1.25C7.43 1.25 6.68 1.35 5.88 1.55V9.35H8.73ZM8.73 18.95C10.55 18.95 11.95 18.59 12.93 17.87C13.93 17.15 14.43 16.11 14.43 14.75C14.43 13.39 13.94 12.35 12.96 11.63C12 10.91 10.59 10.55 8.73 10.55H5.88V18.53C6.84 18.81 7.79 18.95 8.73 18.95ZM24.1821 20.3C23.5421 20.3 22.8921 20.17 22.2321 19.91C21.5721 19.63 21.0021 19.18 20.5221 18.56C20.0621 17.94 19.8321 17.12 19.8321 16.1C19.8321 14.58 20.5321 13.5 21.9321 12.86C23.3521 12.22 25.2021 11.9 27.4821 11.9H28.3821C28.3821 9.94 28.1121 8.6 27.5721 7.88C27.0321 7.16 26.2521 6.8 25.2321 6.8C24.3321 6.8 23.6121 6.99 23.0721 7.37C22.5321 7.75 22.1521 8.41 21.9321 9.35H20.5821C20.5821 8.67 20.6221 8.14 20.7021 7.76C20.7821 7.36 20.9921 6.99 21.3321 6.65C21.6921 6.29 22.2821 6.03 23.1021 5.87C23.9421 5.69 24.8521 5.6 25.8321 5.6C27.4521 5.6 28.7321 6.04 29.6721 6.92C30.6121 7.78 31.0821 9.44 31.0821 11.9V20H29.5821L28.5321 18.65H28.3821C28.0221 19.11 27.4921 19.5 26.7921 19.82C26.0921 20.14 25.2221 20.3 24.1821 20.3ZM25.5321 18.95C26.1921 18.95 26.7421 18.79 27.1821 18.47C27.6221 18.15 28.0221 17.71 28.3821 17.15V13.1H27.4821C26.0021 13.1 24.8321 13.38 23.9721 13.94C23.1121 14.48 22.6821 15.2 22.6821 16.1C22.6821 17.02 22.9521 17.73 23.4921 18.23C24.0521 18.71 24.7321 18.95 25.5321 18.95ZM35.2655 3.8C35.2655 2.78 35.1255 2.03 34.8455 1.55C34.5655 1.05 34.0055 0.799999 33.1655 0.799999H32.5655V0.199999H35.2655C36.0055 0.199999 36.5555 0.299999 36.9155 0.499999C37.2955 0.679999 37.5655 1.02 37.7255 1.52C37.8855 2.02 37.9655 2.78 37.9655 3.8V7.1C38.3855 6.68 38.9255 6.33 39.5855 6.05C40.2655 5.75 41.0255 5.6 41.8655 5.6C43.3655 5.6 44.5855 6 45.5255 6.8C46.4855 7.6 46.9655 9 46.9655 11V20H44.2655V11C44.2655 9.6 43.9455 8.58 43.3055 7.94C42.6855 7.28 41.9055 6.95 40.9655 6.95C39.9055 6.95 38.9055 7.48 37.9655 8.54V20H35.2655V3.8ZM51.3844 9.5C51.3844 8.48 51.2444 7.73 50.9644 7.25C50.6844 6.75 50.1244 6.5 49.2844 6.5H48.9844V5.9H51.3844C52.1444 5.9 52.7144 6.01 53.0944 6.23C53.4944 6.43 53.7744 6.77 53.9344 7.25H54.0844C54.4444 6.79 54.9244 6.4 55.5244 6.08C56.1444 5.76 56.8644 5.6 57.6844 5.6C58.4844 5.6 59.0844 5.75 59.4844 6.05C59.8244 6.31 60.1744 6.76 60.5344 7.4L59.3344 8.3C59.1144 8 58.7944 7.78 58.3744 7.64C57.9544 7.48 57.4744 7.4 56.9344 7.4C56.3344 7.4 55.7844 7.54 55.2844 7.82C54.7844 8.08 54.3844 8.44 54.0844 8.9V20H51.3844V9.5ZM68.5945 20.3C67.2345 20.3 66.0545 19.98 65.0545 19.34C64.0545 18.68 63.2945 17.79 62.7745 16.67C62.2545 15.55 61.9945 14.31 61.9945 12.95C61.9945 11.59 62.2545 10.35 62.7745 9.23C63.2945 8.11 64.0545 7.23 65.0545 6.59C66.0545 5.93 67.2345 5.6 68.5945 5.6C69.9545 5.6 71.1345 5.93 72.1345 6.59C73.1345 7.23 73.8945 8.11 74.4145 9.23C74.9345 10.35 75.1945 11.59 75.1945 12.95C75.1945 14.31 74.9345 15.55 74.4145 16.67C73.8945 17.79 73.1345 18.68 72.1345 19.34C71.1345 19.98 69.9545 20.3 68.5945 20.3ZM68.5945 19.1C69.3345 19.1 69.9845 18.83 70.5445 18.29C71.1245 17.75 71.5645 17.01 71.8645 16.07C72.1845 15.13 72.3445 14.09 72.3445 12.95C72.3445 11.81 72.1845 10.77 71.8645 9.83C71.5645 8.89 71.1245 8.15 70.5445 7.61C69.9845 7.07 69.3345 6.8 68.5945 6.8C67.8545 6.8 67.1945 7.07 66.6145 7.61C66.0545 8.15 65.6145 8.89 65.2945 9.83C64.9945 10.77 64.8445 11.81 64.8445 12.95C64.8445 14.09 64.9945 15.13 65.2945 16.07C65.6145 17.01 66.0545 17.75 66.6145 18.29C67.1945 18.83 67.8545 19.1 68.5945 19.1ZM79.1627 9.5C79.1627 8.48 79.0227 7.73 78.7427 7.25C78.4627 6.75 77.9027 6.5 77.0627 6.5H76.4627V5.9H79.1627C79.9027 5.9 80.4627 6 80.8427 6.2C81.2427 6.4 81.5327 6.7 81.7127 7.1H81.8627C82.2827 6.68 82.8227 6.33 83.4827 6.05C84.1627 5.75 84.9227 5.6 85.7627 5.6C86.6027 5.6 87.3227 5.76 87.9227 6.08C88.5227 6.38 89.0027 6.92 89.3627 7.7C89.8827 7.04 90.5427 6.53 91.3427 6.17C92.1627 5.79 93.0027 5.6 93.8627 5.6C95.1427 5.6 96.1627 6 96.9227 6.8C97.6827 7.6 98.0627 9 98.0627 11V20H95.3627V11C95.3627 9.56 95.1627 8.53 94.7627 7.91C94.3627 7.27 93.7627 6.95 92.9627 6.95C92.4027 6.95 91.8127 7.16 91.1927 7.58C90.5727 7.98 90.1127 8.42 89.8127 8.9C89.9127 9.2 89.9627 9.9 89.9627 11V20H87.2627V11C87.2627 9.56 87.0627 8.53 86.6627 7.91C86.2627 7.27 85.6627 6.95 84.8627 6.95C83.8027 6.95 82.8027 7.48 81.8627 8.54V20H79.1627V9.5ZM105.627 20.3C104.987 20.3 104.337 20.17 103.677 19.91C103.017 19.63 102.447 19.18 101.967 18.56C101.507 17.94 101.277 17.12 101.277 16.1C101.277 14.58 101.977 13.5 103.377 12.86C104.797 12.22 106.647 11.9 108.927 11.9H109.827C109.827 9.94 109.557 8.6 109.017 7.88C108.477 7.16 107.697 6.8 106.677 6.8C105.777 6.8 105.057 6.99 104.517 7.37C103.977 7.75 103.597 8.41 103.377 9.35H102.027C102.027 8.67 102.067 8.14 102.147 7.76C102.227 7.36 102.437 6.99 102.777 6.65C103.137 6.29 103.727 6.03 104.547 5.87C105.387 5.69 106.297 5.6 107.277 5.6C108.897 5.6 110.177 6.04 111.117 6.92C112.057 7.78 112.527 9.44 112.527 11.9V20H111.027L109.977 18.65H109.827C109.467 19.11 108.937 19.5 108.237 19.82C107.537 20.14 106.667 20.3 105.627 20.3ZM106.977 18.95C107.637 18.95 108.187 18.79 108.627 18.47C109.067 18.15 109.467 17.71 109.827 17.15V13.1H108.927C107.447 13.1 106.277 13.38 105.417 13.94C104.557 14.48 104.127 15.2 104.127 16.1C104.127 17.02 104.397 17.73 104.937 18.23C105.497 18.71 106.177 18.95 106.977 18.95Z" fill="#1E1E1E"/>
</svg>
