<svg width="16" height="16" viewBox="0 0 16 16" fill="none" xmlns="http://www.w3.org/2000/svg">
<path d="M7.97401 0.0391846L7.01074 0.760816H8.92748L7.97401 0.0391846Z" fill="#171219"/>
<path d="M14.4648 4.9404V6.85713L15.7318 5.8906L14.4648 4.9404Z" fill="#171219"/>
<path d="M9.90332 11.0857L15.9996 15.6833V6.48816L9.90332 11.0857Z" fill="#171219"/>
<path d="M13.8285 7.34042V1.39755H2.11914V7.32735L7.97384 11.7453L13.8285 7.34042ZM4.17628 3.07266H11.7714C11.9477 3.07266 12.0881 3.21306 12.0881 3.38939C12.0881 3.56572 11.9477 3.70613 11.7714 3.70613H4.17628C3.99996 3.70613 3.85955 3.56572 3.85955 3.38939C3.85955 3.21306 3.99996 3.07266 4.17628 3.07266ZM4.17628 5.28327H11.7714C11.9477 5.28327 12.0881 5.42368 12.0881 5.60001C12.0881 5.77633 11.9477 5.91674 11.7714 5.91674H4.17628C3.99996 5.91674 3.85955 5.77633 3.85955 5.60001C3.85955 5.42368 3.99996 5.28327 4.17628 5.28327ZM3.85955 7.79756C3.85955 7.62123 3.99996 7.48082 4.17628 7.48082H11.7714C11.9477 7.48082 12.0881 7.62123 12.0881 7.79756C12.0881 7.97389 11.9477 8.11429 11.7714 8.11429H4.17628C3.99996 8.11429 3.85955 7.97389 3.85955 7.79756Z" fill="#171219"/>
<path d="M9.3848 11.4808L8.16684 12.4082C8.05582 12.4931 7.90235 12.4931 7.78806 12.4082L6.56358 11.4906L0.633789 15.9608H15.3146L9.3848 11.4808Z" fill="#171219"/>
<path d="M1.48603 4.9404L0.21582 5.8906L1.48603 6.85713V4.9404Z" fill="#171219"/>
<path d="M0 6.54041V15.6441L6.03102 11.0857L0 6.54041Z" fill="#171219"/>
</svg>
