<svg width="16" height="16" viewBox="0 0 16 16" fill="none" xmlns="http://www.w3.org/2000/svg">
<path d="M14.1093 2.87512H6.80236V2.81506C6.80908 2.7817 6.80908 2.74166 6.80908 2.70829V1.94757C6.80908 1.42707 6.37847 1 5.85366 1H5.16737H1.63499H0.955425C0.430614 1 0 1.42707 0 1.94757V2.62154V2.70162V4.40324V13.1249C0 14.1592 0.847771 14.9933 1.89066 15H14.1093C15.1522 15 16 14.1592 16 13.1249V4.75024C16 3.71592 15.1522 2.87512 14.1093 2.87512ZM14.1093 13.7521H1.89066C1.54079 13.7455 1.26493 13.4719 1.2582 13.1249V4.75691C1.26493 4.40991 1.54079 4.13632 1.89066 4.12965H14.1093C14.4592 4.13632 14.7351 4.40991 14.7418 4.75691V13.1249C14.7351 13.4719 14.4592 13.7455 14.1093 13.7521ZM10.8394 6.62536C10.8394 5.87798 11.4516 5.26406 12.2119 5.26406C12.9722 5.26406 13.5845 5.87131 13.5845 6.62536C13.5845 7.37274 12.9722 7.98665 12.2119 7.98665H12.2052C11.4449 7.98665 10.8394 7.37274 10.8394 6.62536ZM10.0723 9.40133L13.7527 12.9047H2.1127L5.54416 5.98475L7.81834 11.0095L10.0723 9.40133Z" fill="#171219"/>
</svg>
