<svg width="16" height="16" viewBox="0 0 16 16" fill="none" xmlns="http://www.w3.org/2000/svg">
<path d="M5.18038 4.82622C5.18038 3.26947 6.44218 2.00677 7.99937 2.00677C9.55746 2.00677 10.8184 3.26947 10.8184 4.82622C10.8184 6.38386 9.55746 7.64566 7.99937 7.64566C6.44218 7.64566 5.18038 6.38431 5.18038 4.82622ZM15.987 10.1334L15.593 7.77117C15.5222 7.34354 15.1623 6.98495 14.7432 6.88186C14.3684 7.21355 13.8772 7.41571 13.3375 7.41571C12.7983 7.41571 12.3065 7.21311 11.9322 6.88186C11.5118 6.9845 11.1528 7.34354 11.0819 7.77117L11.0725 7.82675C10.8385 7.60128 10.5481 7.43185 10.2352 7.3552C9.63904 7.88233 8.8582 8.20507 7.99982 8.20507C7.14144 8.20507 6.3606 7.88233 5.76444 7.3552C5.45156 7.43185 5.1611 7.60128 4.92712 7.82675L4.91771 7.77117C4.84688 7.34354 4.4865 6.98495 4.06739 6.88186C3.69311 7.21355 3.20139 7.41571 2.66215 7.41571C2.12247 7.41571 1.6312 7.21311 1.25646 6.88186C0.83691 6.9845 0.47742 7.34354 0.406598 7.77117L0.012593 10.1334C-0.0721248 10.6404 0.279745 11.0554 0.792982 11.0554H4.03019L3.78455 12.527C3.65008 13.3334 4.20948 13.9932 5.02663 13.9932H10.9726C11.7897 13.9932 12.3491 13.3321 12.2146 12.527L11.969 11.0554H15.2062C15.7199 11.0545 16.0713 10.6404 15.987 10.1334ZM13.337 7.06519C14.316 7.06519 15.1094 6.2718 15.1094 5.29284C15.1094 4.31432 14.3155 3.52049 13.337 3.52049C12.3585 3.52049 11.5651 4.31432 11.5651 5.29284C11.5651 6.2718 12.3594 7.06519 13.337 7.06519ZM2.66126 7.06519C3.63977 7.06519 4.43316 6.2718 4.43316 5.29284C4.43316 4.31432 3.63932 3.52049 2.66126 3.52049C1.68229 3.52049 0.888906 4.31432 0.888906 5.29284C0.888906 6.2718 1.68274 7.06519 2.66126 7.06519Z" fill="#171219"/>
</svg>
