<svg width="16" height="16" viewBox="0 0 16 16" fill="none" xmlns="http://www.w3.org/2000/svg">
<path d="M13.1263 0H2.87372C1.28909 0 0 1.28909 0 2.87372V13.1263C0 14.7109 1.28909 16 2.87372 16H13.1263C14.7109 16 16 14.7109 16 13.1263V2.87372C16 1.28909 14.7109 0 13.1263 0ZM13.5216 12.4863H8.39372C7.94303 13.8203 6.04978 13.8224 5.59844 12.4863H2.47844C1.85587 12.4863 1.85572 11.5451 2.47844 11.5451H5.59844C6.04909 10.211 7.94238 10.209 8.39372 11.5451H13.5216C14.1441 11.5451 14.1443 12.4863 13.5216 12.4863ZM13.5216 8.47059H12.4094C11.9587 9.80466 10.0655 9.80669 9.61409 8.47059H2.47844C1.85587 8.47059 1.85572 7.52941 2.47844 7.52941H9.61413C10.0648 6.19534 11.9581 6.19331 12.4094 7.52941H13.5216C14.1441 7.52941 14.1443 8.47059 13.5216 8.47059ZM13.5216 4.45491H6.38588C5.93519 5.78897 4.04194 5.791 3.59059 4.45491H2.47844C1.85587 4.45491 1.85572 3.51372 2.47844 3.51372H3.59059C4.04125 2.17966 5.93453 2.17763 6.38588 3.51372H13.5216C14.1441 3.51372 14.1443 4.45491 13.5216 4.45491Z" fill="#171219"/>
<path d="M6.9959 11.4824C6.29024 11.4824 6.29062 12.549 6.9959 12.549C7.70152 12.549 7.70114 11.4824 6.9959 11.4824Z" fill="#171219"/>
<path d="M4.98808 3.45099C4.28243 3.45099 4.28281 4.51764 4.98808 4.51764C5.69371 4.51768 5.69333 3.45099 4.98808 3.45099Z" fill="#171219"/>
<path d="M11.0115 7.46667C10.3059 7.46667 10.3062 8.53334 11.0115 8.53334C11.7172 8.53337 11.7168 7.46667 11.0115 7.46667Z" fill="#171219"/>
</svg>
