<svg width="16" height="16" viewBox="0 0 16 16" fill="none" xmlns="http://www.w3.org/2000/svg">
<path d="M14.9433 5.05583C14.601 4.7132 14.0567 4.69167 13.6886 4.99158C13.6354 5.03495 13.6766 4.99673 12.8662 5.80714L14.9698 7.9108L15.7259 7.1642C16.0914 6.79867 16.0914 6.20392 15.7259 5.83836L14.9433 5.05583Z" fill="#171219"/>
<path d="M8.55193 10.1609L7.31449 12.8126C7.23115 12.9912 7.26843 13.2029 7.40781 13.3423C7.54718 13.4817 7.75893 13.5189 7.93749 13.4356L10.5892 12.1981C10.6941 12.1491 10.3765 12.4464 14.3024 8.56953L12.2029 6.47003C8.31046 10.3625 8.60187 10.0539 8.55193 10.1609Z" fill="#171219"/>
<path d="M11.3789 12.7741C11.2641 12.8874 11.1317 12.9795 10.9856 13.0477L8.3339 14.2852C7.81246 14.5285 7.17543 14.4358 6.7449 14.0052C6.32831 13.5887 6.21578 12.9501 6.4649 12.4161L7.70237 9.76437C7.77187 9.61547 7.86606 9.48103 7.98228 9.36478L11.9687 5.37831V1.40625C11.9687 0.630844 11.3379 0 10.5625 0H1.40625C0.630843 0 0 0.630844 0 1.40625V14.5938C0 15.3692 0.630843 16 1.40625 16H10.5625C11.3379 16 11.9687 15.3692 11.9687 14.5938V12.1915L11.3789 12.7741ZM2.50003 3.03125H9.50002C9.7589 3.03125 9.96877 3.24113 9.96877 3.5C9.96877 3.75887 9.7589 3.96875 9.50002 3.96875H2.50003C2.24115 3.96875 2.03128 3.75887 2.03128 3.5C2.03128 3.24113 2.24115 3.03125 2.50003 3.03125ZM2.50003 5.53125H8.00002C8.2589 5.53125 8.46877 5.74113 8.46877 6C8.46877 6.25887 8.2589 6.46875 8.00002 6.46875H2.50003C2.24115 6.46875 2.03128 6.25887 2.03128 6C2.03128 5.74113 2.24115 5.53125 2.50003 5.53125ZM2.03128 8.5C2.03128 8.24113 2.24115 8.03125 2.50003 8.03125H6.50003C6.7589 8.03125 6.96878 8.24113 6.96878 8.5C6.96878 8.75887 6.7589 8.96875 6.50003 8.96875H2.50003C2.24115 8.96875 2.03128 8.75887 2.03128 8.5Z" fill="#171219"/>
</svg>
