<svg width="16" height="16" viewBox="0 0 16 16" fill="none" xmlns="http://www.w3.org/2000/svg">
<g clip-path="url(#clip0_839_9)">
<path d="M3.33333 0H0.666667C0.298667 0 0 0.298667 0 0.666667V3.33333C0 3.70133 0.298667 4 0.666667 4H3.33333C3.70133 4 4 3.70133 4 3.33333V0.666667C4 0.298667 3.70133 0 3.33333 0Z" fill="#171219"/>
<path d="M3.33333 6H0.666667C0.298667 6 0 6.29867 0 6.66667V9.33333C0 9.70133 0.298667 10 0.666667 10H3.33333C3.70133 10 4 9.70133 4 9.33333V6.66667C4 6.29867 3.70133 6 3.33333 6Z" fill="#171219"/>
<path d="M3.33333 12H0.666667C0.298667 12 0 12.2987 0 12.6667V15.3333C0 15.7013 0.298667 16 0.666667 16H3.33333C3.70133 16 4 15.7013 4 15.3333V12.6667C4 12.2987 3.70133 12 3.33333 12Z" fill="#171219"/>
<path d="M9.33333 0H6.66667C6.29867 0 6 0.298667 6 0.666667V3.33333C6 3.70133 6.29867 4 6.66667 4H9.33333C9.70133 4 10 3.70133 10 3.33333V0.666667C10 0.298667 9.70133 0 9.33333 0Z" fill="#171219"/>
<path d="M9.33333 6H6.66667C6.29867 6 6 6.29867 6 6.66667V9.33333C6 9.70133 6.29867 10 6.66667 10H9.33333C9.70133 10 10 9.70133 10 9.33333V6.66667C10 6.29867 9.70133 6 9.33333 6Z" fill="#171219"/>
<path d="M9.33333 12H6.66667C6.29867 12 6 12.2987 6 12.6667V15.3333C6 15.7013 6.29867 16 6.66667 16H9.33333C9.70133 16 10 15.7013 10 15.3333V12.6667C10 12.2987 9.70133 12 9.33333 12Z" fill="#171219"/>
<path d="M15.3333 0H12.6667C12.2987 0 12 0.298667 12 0.666667V3.33333C12 3.70133 12.2987 4 12.6667 4H15.3333C15.7013 4 16 3.70133 16 3.33333V0.666667C16 0.298667 15.7013 0 15.3333 0Z" fill="#171219"/>
<path d="M15.3333 6H12.6667C12.2987 6 12 6.29867 12 6.66667V9.33333C12 9.70133 12.2987 10 12.6667 10H15.3333C15.7013 10 16 9.70133 16 9.33333V6.66667C16 6.29867 15.7013 6 15.3333 6Z" fill="#171219"/>
<path d="M15.3333 12H12.6667C12.2987 12 12 12.2987 12 12.6667V15.3333C12 15.7013 12.2987 16 12.6667 16H15.3333C15.7013 16 16 15.7013 16 15.3333V12.6667C16 12.2987 15.7013 12 15.3333 12Z" fill="#171219"/>
</g>
<defs>
<clipPath id="clip0_839_9">
<rect width="16" height="16" fill="white"/>
</clipPath>
</defs>
</svg>
