<svg width="50" height="50" viewBox="0 0 50 50" fill="none" xmlns="http://www.w3.org/2000/svg">
<g clip-path="url(#clip0_94_626)">
<path d="M9.54573 48.9511C10.2693 49.6426 11.24 50.023 12.2799 50.023C13.2883 50.023 14.2383 49.662 14.9557 49.006L20.1061 44.2932C20.8343 43.6268 21.2412 42.7325 21.2519 41.7755C21.2585 41.2078 21.1219 40.6609 20.8636 40.1672L21.0648 40.0267C22.0777 39.3255 23.2778 38.9548 24.5345 38.9548H32.4675C34.471 38.9548 36.4269 38.3089 37.9735 37.1374L42.3904 33.7958C42.563 33.6875 42.7294 33.5629 42.8979 33.4119C42.9024 33.4081 42.9062 33.4034 42.9111 33.3995C42.936 33.3763 42.9629 33.3577 42.9877 33.3341L49.2201 27.1226C49.6626 26.6783 49.9069 26.0994 49.9069 25.4926C49.9069 24.8436 49.6171 24.2116 49.1038 23.7523C47.9017 22.6761 46.3464 22.4908 44.7731 22.7144C45.1108 22.666 44.3198 18.7253 44.2204 18.3561C43.8069 16.8183 43.1702 15.3337 42.3403 13.951C40.7652 11.3264 38.4839 9.07489 35.7324 7.50533L37.572 1.1413C37.6444 0.890921 37.5873 0.623503 37.4196 0.418013C37.2507 0.213295 36.9895 0.0921631 36.7126 0.0921631H26.5206C26.2437 0.0921631 25.9825 0.212513 25.8144 0.418399C25.646 0.623503 25.5897 0.890911 25.6613 1.1413L27.4943 7.50146C21.9105 10.6914 18.4697 16.2916 18.4697 22.2668C18.4697 23.4053 18.5914 24.5314 18.8307 25.6278H18.5032C17.1458 25.6278 15.8589 26.1092 14.8791 26.9839L10.8501 30.5856C10.3078 30.3181 9.70005 30.1757 9.06549 30.1757C8.0571 30.1757 7.10713 30.5368 6.3897 31.1928L1.23925 35.9063C-0.267986 37.2856 -0.293631 39.5541 1.18171 40.9631L9.54573 48.9511ZM35.5502 1.75634L34.0157 7.06468H29.2122L27.6822 1.75634H35.5502ZM20.2499 22.2667C20.2499 16.7459 23.5152 11.5811 28.7794 8.72984H34.4398C39.7095 11.5758 42.9775 16.7425 42.9775 22.2667C42.9775 22.7388 42.9473 23.2067 42.8993 23.6669C42.7912 23.7563 42.6849 23.8495 42.5847 23.9494L39.6121 26.9153L38.9622 27.2814C38.958 27.2837 38.9551 27.2868 38.951 27.2891C38.9464 27.2918 38.9415 27.293 38.9373 27.2957L36.966 28.4931C36.3546 27.8588 35.4729 27.4571 34.4898 27.4571L27.6351 27.459L26.2244 26.5287C25.3485 25.9475 24.2743 25.627 23.1992 25.627H20.6588C20.393 24.5357 20.2498 23.4103 20.2498 22.2668L20.2499 22.2667ZM16.1088 28.1869C16.7558 27.6099 17.6056 27.2922 18.5035 27.2922H23.2006C23.9097 27.2922 24.6176 27.5031 25.1971 27.8874L26.841 28.9713C26.8435 28.9728 26.8464 28.9736 26.8488 28.9752C26.8815 28.9961 26.9171 29.0127 26.9519 29.0293C26.9693 29.0379 26.985 29.0483 27.0024 29.0549C27.0297 29.0661 27.06 29.0727 27.0885 29.0808C27.1158 29.0886 27.1419 29.099 27.1697 29.104C27.1891 29.1079 27.2098 29.1079 27.2301 29.1106C27.2686 29.1156 27.3067 29.1211 27.3452 29.1218C27.3481 29.1218 27.351 29.1222 27.3543 29.1222L34.49 29.1199C35.3481 29.1199 36.0461 29.7724 36.0461 30.5746C36.0461 31.3769 35.3482 32.0294 34.49 32.0294L26.2941 32.0298C25.8024 32.0298 25.4041 32.4024 25.4041 32.8618C25.4041 33.3211 25.8024 33.6938 26.2941 33.6938H34.4891C36.3287 33.6938 37.8256 32.2945 37.8256 30.5747C37.8256 30.375 37.8036 30.1804 37.7651 29.9904L39.8965 28.6959L40.6317 28.2814C40.6963 28.2447 40.7522 28.2006 40.8027 28.1522C40.8085 28.1468 40.8176 28.1444 40.8234 28.1383L43.8825 25.0864C44.9517 24.0241 46.7487 23.9696 47.8801 24.9595C48.039 25.1019 48.1268 25.2908 48.1268 25.4908C48.1268 25.6212 48.0908 25.8132 47.9198 25.9846L41.7308 32.1544L41.249 32.5189C41.2241 32.5371 41.1981 32.5545 41.1753 32.5743L36.8541 35.8436C35.6226 36.7766 34.0649 37.2898 32.4678 37.2898H24.5353C22.894 37.2898 21.3272 37.7735 20.0037 38.6899L19.7669 38.8552L12.2284 31.6556L16.1088 28.1869ZM2.48503 37.0946L7.63505 32.3819C8.01796 32.0325 8.52505 31.8393 9.06567 31.8393C9.62285 31.8393 10.1423 32.0417 10.5278 32.4101L18.8917 40.3984C19.2717 40.7614 19.4774 41.2432 19.4721 41.7564C19.4663 42.2691 19.2494 42.7471 18.8607 43.1023L13.7106 47.8151C12.9337 48.5252 11.578 48.5113 10.8175 47.786L2.45442 39.7986C1.66542 39.0451 1.67908 37.8318 2.48505 37.0947L2.48503 37.0946Z" fill="white"/>
<path d="M18.1678 42.0687C18.1678 42.9445 17.4082 43.6542 16.4714 43.6542C15.5346 43.6542 14.7754 42.9445 14.7754 42.0687C14.7754 41.193 15.5346 40.4832 16.4714 40.4832C17.4081 40.4832 18.1678 41.193 18.1678 42.0687Z" fill="white"/>
<path d="M31.4281 20.2655L31.5279 20.2643C31.912 20.2643 32.278 20.4381 32.5061 20.7287C32.7317 21.0166 32.7938 21.3812 32.677 21.7283C32.552 22.0979 32.213 22.392 31.8131 22.4771C31.7216 22.4965 31.6285 22.5065 31.5366 22.5065C31.01 22.5065 30.5468 22.1958 30.3817 21.7337C30.2617 21.3974 29.9206 21.171 29.5315 21.171C29.2396 21.171 28.961 21.3038 28.788 21.5267C28.6195 21.7442 28.4361 22.012 28.5235 22.262C28.8211 23.1238 29.7476 23.7971 30.3407 24.0712V24.921C30.3407 25.3877 31.0287 25.767 31.5275 25.767C32.0267 25.767 32.7142 25.3873 32.7142 24.921V24.0712C33.3079 23.8204 34.1105 23.2279 34.452 22.4771C34.8394 21.6246 34.6805 20.5743 34.1357 19.6772C33.6828 18.9311 32.696 18.3997 31.616 18.3997H31.527C31.123 18.3997 30.7467 18.2945 30.5195 17.9721C30.2938 17.6521 30.2591 17.3053 30.4226 16.9451C30.5729 16.6173 30.8962 16.3901 31.2658 16.3185C31.349 16.3023 31.4339 16.3046 31.5179 16.3046C32.0445 16.3046 32.5085 16.6196 32.6732 17.0809C32.7924 17.4191 33.1344 17.6494 33.523 17.6494C33.817 17.6494 34.0951 17.5167 34.2673 17.2933C34.4354 17.0755 34.625 16.8081 34.536 16.5592C34.233 15.7121 33.3078 15.0295 32.7145 14.7648V13.9022C32.7145 13.4355 32.0266 13.0562 31.5278 13.0562C31.0294 13.0562 30.341 13.4358 30.341 13.9022V14.7648C29.7474 15.0105 28.9269 15.6142 28.5929 16.3886C28.2067 17.2818 28.3975 18.2698 29.006 19.1703C29.475 19.8665 30.4014 20.2655 31.428 20.2655L31.4281 20.2655Z" fill="white"/>
</g>
<defs>
<clipPath id="clip0_94_626">
<rect width="50" height="50" fill="white"/>
</clipPath>
</defs>
</svg>
