<svg width="50" height="50" viewBox="0 0 50 50" fill="none" xmlns="http://www.w3.org/2000/svg">
<rect width="50" height="50" fill="white"/>
<path d="M11.6954 44.52C8.71941 44.52 6.36741 43.416 4.63941 41.208C3.00741 39 2.19141 36.36 2.19141 33.288C2.19141 27.624 3.43941 22.632 5.93541 18.312C8.52741 13.992 12.7994 9.86398 18.7514 5.92798L21.3434 9.38398C18.1754 11.496 15.3914 14.088 12.9914 17.16C10.6874 20.136 9.53541 23.544 9.53541 27.384L11.6954 26.952C14.4794 26.952 16.6394 27.768 18.1754 29.4C19.7114 30.936 20.4794 33.048 20.4794 35.736C20.4794 38.424 19.7114 40.584 18.1754 42.216C16.6394 43.752 14.4794 44.52 11.6954 44.52ZM37.9034 44.52C34.9274 44.52 32.5754 43.416 30.8474 41.208C29.2154 39 28.3994 36.36 28.3994 33.288C28.3994 27.624 29.6474 22.632 32.1434 18.312C34.7354 13.992 39.0074 9.86398 44.9594 5.92798L47.5514 9.38398C44.3834 11.496 41.5994 14.088 39.1994 17.16C36.8954 20.136 35.7434 23.544 35.7434 27.384L37.9034 26.952C40.6874 26.952 42.8474 27.768 44.3834 29.4C45.9194 30.936 46.6874 33.048 46.6874 35.736C46.6874 38.424 45.9194 40.584 44.3834 42.216C42.8474 43.752 40.6874 44.52 37.9034 44.52Z" fill="#059F97"/>
</svg>
