<svg width="32" height="32" viewBox="0 0 32 32" fill="none" xmlns="http://www.w3.org/2000/svg">
<path d="M18.5801 31.7917C18.4468 31.8135 18.313 31.8335 18.1787 31.8518C18.313 31.8335 18.4468 31.8135 18.5801 31.7917Z" fill="#059F97"/>
<path d="M18.9001 31.7371C18.8364 31.7488 18.7727 31.7595 18.709 31.7705C18.7727 31.7595 18.8364 31.7488 18.9001 31.7371Z" fill="#059F97"/>
<path d="M17.821 31.8961C17.665 31.9137 17.5081 31.9293 17.3506 31.9425C17.5081 31.9293 17.665 31.9137 17.821 31.8961Z" fill="#059F97"/>
<path d="M18.1279 31.8586C18.053 31.8687 17.9775 31.8779 17.9023 31.8867C17.9775 31.8779 18.053 31.8687 18.1279 31.8586Z" fill="#059F97"/>
<path d="M19.3359 31.6508C19.2798 31.6627 19.2234 31.6747 19.167 31.6862C19.2234 31.6747 19.2798 31.6627 19.3359 31.6508Z" fill="#059F97"/>
<path d="M20.4165 31.382C20.3711 31.3949 20.3257 31.4071 20.2803 31.4198C20.3257 31.4071 20.3711 31.3949 20.4165 31.382Z" fill="#059F97"/>
<path d="M20.0898 31.4714C20.0405 31.4844 19.991 31.4976 19.9414 31.51C19.991 31.4976 20.0405 31.4846 20.0898 31.4714Z" fill="#059F97"/>
<path d="M19.6616 31.5782C19.6094 31.5905 19.5566 31.6019 19.5039 31.6136C19.5566 31.6019 19.6094 31.5905 19.6616 31.5782Z" fill="#059F97"/>
<path d="M17.3457 31.943C17.2615 31.9501 17.1772 31.9564 17.0928 31.962C17.1772 31.9564 17.2615 31.9501 17.3457 31.943Z" fill="#059F97"/>
<path d="M32 16C32 7.16479 24.8352 0 16 0C7.16479 0 0 7.16479 0 16C0 24.8352 7.16479 32 16 32C16.094 32 16.1875 31.998 16.2812 31.9963V19.541H12.8438V15.5349H16.2812V12.5869C16.2812 9.16797 18.3684 7.30713 21.4182 7.30713C22.8787 7.30713 24.134 7.41602 24.5 7.4646V11.0378H22.397C20.7378 11.0378 20.4165 11.8264 20.4165 12.9834V15.5349H24.3838L23.8667 19.541H20.4165V31.3818C27.1042 29.4646 32 23.3032 32 16Z" fill="#059F97"/>
<path d="M17.0571 31.9644C16.8906 31.9751 16.7234 31.9836 16.5557 31.9893C16.7234 31.9836 16.8906 31.9751 17.0571 31.9644Z" fill="#059F97"/>
<path d="M16.5469 31.9896C16.4585 31.9926 16.3699 31.9948 16.2812 31.9962C16.3699 31.9948 16.4585 31.9926 16.5469 31.9896Z" fill="#059F97"/>
</svg>
