<svg width="17" height="16" viewBox="0 0 17 16" fill="none" xmlns="http://www.w3.org/2000/svg">
<g clip-path="url(#clip0_89_459)">
<path d="M10.2998 4.0856C10.3209 4.06189 10.4191 3.98442 10.8049 3.98442L12.0699 3.98395C12.4814 3.98395 12.816 3.6492 12.816 3.23768V1.02679C12.816 0.615977 12.4819 0.281222 12.071 0.280518L10.1921 0.277466C9.03242 0.277466 8.04658 0.659993 7.34116 1.38385C6.6389 2.10442 6.26764 3.11032 6.26764 4.29265V5.48507H4.83026C4.41874 5.48507 4.08398 5.81982 4.08398 6.23134V8.61242C4.08398 9.02394 4.41874 9.35869 4.83026 9.35869H6.26764V14.9158C6.26764 15.3274 6.60239 15.6621 7.01391 15.6621H9.47762C9.88914 15.6621 10.2239 15.3274 10.2239 14.9158V9.35881H11.9809C12.3924 9.35881 12.727 9.02394 12.727 8.61265L12.728 6.23146C12.728 5.96114 12.5809 5.71101 12.3441 5.57873C12.2343 5.51746 12.1066 5.48507 11.9749 5.48507H10.2239V4.54301C10.2239 4.23596 10.2652 4.1248 10.2998 4.0856Z" fill="#059F97"/>
</g>
<defs>
<clipPath id="clip0_89_459">
<rect width="15.3546" height="15.3846" fill="white" transform="translate(0.763672 0.307495)"/>
</clipPath>
</defs>
</svg>
