<svg width="17" height="16" viewBox="0 0 17 16" fill="none" xmlns="http://www.w3.org/2000/svg">
<g clip-path="url(#clip0_89_463)">
<path d="M15.7303 3.51573C15.1749 2.85558 14.1496 2.5863 12.1915 2.5863H5.08358C3.08065 2.5863 2.03797 2.87295 1.48472 3.57578C0.945312 4.26104 0.945312 5.27072 0.945312 6.66814V9.33161C0.945312 12.0389 1.58531 13.4134 5.08358 13.4134H12.1916C13.8896 13.4134 14.8306 13.1758 15.4393 12.5932C16.0636 11.9958 16.3299 11.0203 16.3299 9.33161V6.66814C16.3299 5.19444 16.2882 4.17881 15.7303 3.51573ZM10.8223 8.36759L7.59459 10.0545C7.52243 10.0922 7.44353 10.1109 7.36472 10.1109C7.27549 10.1109 7.18645 10.0869 7.10759 10.0392C6.95911 9.94918 6.86844 9.78824 6.86844 9.61464V6.25166C6.86844 6.07836 6.95886 5.91757 7.10705 5.82754C7.25529 5.73752 7.43965 5.73137 7.59345 5.81127L10.8211 7.4873C10.9854 7.57256 11.0885 7.74208 11.0887 7.92705C11.0889 8.11216 10.9863 8.28194 10.8223 8.36759Z" fill="#059F97"/>
</g>
<defs>
<clipPath id="clip0_89_463">
<rect width="15.3846" height="15.3846" fill="white" transform="translate(0.945312 0.307495)"/>
</clipPath>
</defs>
</svg>
