<svg width="60" height="60" viewBox="0 0 60 60" fill="none" xmlns="http://www.w3.org/2000/svg">
<path d="M55.7998 27.1128L54.246 20.8977C54.6708 20.8075 54.9895 20.4306 54.9895 19.9791V18.977C54.9895 16.8013 53.2194 15.0313 51.0438 15.0313H43.9666V12.9644C43.9666 11.8938 43.0957 11.0228 42.0251 11.0228H5.94984C4.87922 11.0228 4.00828 11.8938 4.00828 12.9644V29.9999C4.00828 30.5187 4.42887 30.9394 4.94777 30.9394C5.46656 30.9394 5.88727 30.5188 5.88727 29.9999V12.9644C5.88727 12.9298 5.91527 12.9018 5.94984 12.9018H42.025C42.0595 12.9018 42.0875 12.9298 42.0875 12.9644V30.0002C42.0875 30.519 42.5081 30.9397 43.027 30.9397C43.5458 30.9397 43.9665 30.5191 43.9665 30.0002V28.9352H55.0488C55.0498 28.9352 55.0505 28.9354 55.0513 28.9354C55.0522 28.9354 55.053 28.9353 55.0539 28.9353C56.4176 28.9362 57.5755 29.8313 57.9732 31.0647H55.052C54.5332 31.0647 54.1125 31.4853 54.1125 32.0042V34.0083C54.1125 35.6315 55.433 36.952 57.0561 36.952H58.1209V41.0855H55.6644C54.8575 38.7555 52.6425 37.0771 50.0415 37.0771C47.4405 37.0771 45.2255 38.7555 44.4186 41.0855H43.9663V34.0082C43.9663 33.4894 43.5457 33.0687 43.0268 33.0687C42.508 33.0687 42.0873 33.4893 42.0873 34.0082V41.0853H22.5957C21.7888 38.7553 19.5738 37.0769 16.9729 37.0769C14.3719 37.0769 12.1568 38.7553 11.35 41.0853H5.94984C5.91527 41.0853 5.88727 41.0573 5.88727 41.0227V38.9559H9.95824C10.477 38.9559 10.8977 38.5353 10.8977 38.0164C10.8977 37.4975 10.4771 37.0769 9.95824 37.0769H0.939492C0.420703 37.0769 0 37.4975 0 38.0164C0 38.5353 0.420586 38.9559 0.939492 38.9559H4.0084V41.0227C4.0084 42.0933 4.87934 42.9643 5.94996 42.9643H11.0246C11.0244 42.9851 11.023 43.0059 11.023 43.0269C11.023 46.3076 13.6922 48.9767 16.9729 48.9767C20.2535 48.9767 22.9227 46.3076 22.9227 43.0269C22.9227 43.0058 22.9213 42.9851 22.9211 42.9643H44.0933C44.0931 42.9851 44.0917 43.0059 44.0917 43.0269C44.0917 46.3076 46.7609 48.9767 50.0415 48.9767C53.3222 48.9767 55.9914 46.3076 55.9914 43.0269C55.9914 43.0058 55.99 42.9851 55.9897 42.9643H59.0604C59.5792 42.9643 59.9999 42.5437 59.9999 42.0248V32.004C60 29.5299 58.1746 27.4743 55.7998 27.1128ZM43.9666 16.9102H51.0438C52.1835 16.9102 53.1107 17.8374 53.1107 18.977V19.0396H43.9666V16.9102ZM43.9666 27.0563V20.9185H52.3145L53.8489 27.0563H43.9666ZM16.9729 47.0981C14.7281 47.0981 12.9019 45.2719 12.9019 43.0271C12.9019 40.7822 14.7281 38.9561 16.9729 38.9561C19.2176 38.9561 21.0438 40.7822 21.0438 43.0271C21.0438 45.2719 19.2176 47.0981 16.9729 47.0981ZM50.0418 47.0981C47.797 47.0981 45.9708 45.2719 45.9708 43.0271C45.9708 40.7822 47.797 38.9561 50.0418 38.9561C52.2865 38.9561 54.1127 40.7822 54.1127 43.0271C54.1127 45.2719 52.2865 47.0981 50.0418 47.0981ZM58.1211 35.073H57.0564C56.4693 35.073 55.9916 34.5953 55.9916 34.0082V32.9435H58.121V35.073H58.1211Z" fill="white"/>
<path d="M16.9728 41.0857C15.9022 41.0857 15.0312 41.9566 15.0312 43.0273C15.0312 44.0979 15.9022 44.9688 16.9728 44.9688C18.0434 44.9688 18.9144 44.0979 18.9144 43.0273C18.9144 41.9566 18.0434 41.0857 16.9728 41.0857Z" fill="white"/>
<path d="M50.0422 41.0857C48.9715 41.0857 48.1006 41.9566 48.1006 43.0273C48.1006 44.0979 48.9715 44.9688 50.0422 44.9688C51.1128 44.9688 51.9837 44.0979 51.9837 43.0273C51.9837 41.9566 51.1128 41.0857 50.0422 41.0857Z" fill="white"/>
<path d="M39.0195 37.0773H24.9903C24.4715 37.0773 24.0508 37.4979 24.0508 38.0168C24.0508 38.5357 24.4714 38.9563 24.9903 38.9563H39.0195C39.5383 38.9563 39.959 38.5357 39.959 38.0168C39.959 37.4979 39.5384 37.0773 39.0195 37.0773Z" fill="white"/>
<path d="M14.9694 33.0688H2.94437C2.42559 33.0688 2.00488 33.4894 2.00488 34.0083C2.00488 34.5272 2.42547 34.9478 2.94437 34.9478H14.9694C15.4882 34.9478 15.9089 34.5272 15.9089 34.0083C15.9089 33.4894 15.4882 33.0688 14.9694 33.0688Z" fill="white"/>
<path d="M32.6681 20.3168C32.3013 19.95 31.7064 19.95 31.3396 20.3169L22.985 28.6714L18.6389 24.3252C18.272 23.9583 17.6771 23.9583 17.3103 24.3252C16.9434 24.6921 16.9434 25.2869 17.3103 25.6538L22.3208 30.6642C22.5042 30.8478 22.7447 30.9394 22.985 30.9394C23.2254 30.9394 23.466 30.8478 23.6493 30.6642L32.668 21.6455C33.0349 21.2785 33.0349 20.6837 32.6681 20.3168Z" fill="white"/>
</svg>
