<svg width="50" height="50" viewBox="0 0 50 50" fill="none" xmlns="http://www.w3.org/2000/svg">
<path d="M25.0003 32.3473C21.6485 32.3473 18.499 31.048 16.1314 28.6939C13.7638 26.3398 12.457 23.2083 12.457 19.8757C12.457 16.5431 13.7638 13.4116 16.1314 11.0575C18.499 8.70338 21.6485 7.40405 25.0003 7.40405C28.352 7.40405 31.5015 8.70338 33.8691 11.0575C36.2367 13.4116 37.5435 16.5431 37.5435 19.8757C37.5435 23.2083 36.2367 26.3398 33.8691 28.6939C31.4961 31.0533 28.352 32.3473 25.0003 32.3473ZM25.0003 9.04595C18.9911 9.04595 14.1031 13.9063 14.1031 19.8809C14.1031 25.8555 18.9914 30.7159 25.0003 30.7159C31.0092 30.7159 35.8975 25.8555 35.8975 19.8809C35.8975 13.9063 31.0092 9.04595 25.0003 9.04595Z" fill="white"/>
<path d="M23.1356 24.775L18.7559 20.4202L19.9151 19.2676L23.1356 22.4698L30.0853 15.5653L31.2445 16.7179L23.1356 24.775Z" fill="white"/>
<path d="M25.0001 39.7744C24.2182 39.7744 23.4362 39.5841 22.7199 39.2036C22.5723 39.1274 22.4302 39.0405 22.2935 38.948C22.0365 38.7795 21.7959 38.5783 21.5772 38.3609L19.4884 36.2841C18.8869 35.686 18.0831 35.3544 17.2302 35.3544H14.2776C11.6092 35.3544 9.43856 33.196 9.43856 30.543V27.6073C9.43856 26.77 9.09955 25.9491 8.50355 25.3619L6.41479 23.2851C4.5284 21.4095 4.5284 18.3595 6.41479 16.4839L8.50355 14.407C9.09954 13.8145 9.43856 12.9935 9.43856 12.1617V9.22595C9.43856 6.57283 11.6093 4.41458 14.2776 4.41458H17.2302C18.0832 4.41458 18.8869 4.08295 19.4884 3.48491L21.5772 1.40808C22.4903 0.500165 23.7041 0 25 0C26.2959 0 27.5043 0.500165 28.4228 1.40808L30.5116 3.48491C31.1131 4.08838 31.9169 4.41458 32.7698 4.41458H35.7224C38.3908 4.41458 40.5614 6.57293 40.5614 9.22595V12.1617C40.5614 13.0098 40.895 13.809 41.4964 14.407L43.5852 16.4839C45.4716 18.3595 45.4716 21.4095 43.5852 23.2851L41.4964 25.3619C40.895 25.9599 40.5614 26.7592 40.5614 27.6073V30.543C40.5614 33.1961 38.3907 35.3544 35.7224 35.3544H32.7698C31.9168 35.3544 31.1131 35.686 30.5116 36.2841L28.4228 38.3609C28.2041 38.5784 27.9635 38.7795 27.7065 38.948C27.5753 39.0405 27.4277 39.122 27.2801 39.2036C26.5638 39.5841 25.7819 39.7744 24.9999 39.7744H25.0001ZM14.2718 6.03971C12.5112 6.03971 11.0732 7.46409 11.0732 9.22012V12.1559C11.0732 13.4389 10.5701 14.6459 9.65699 15.5538L7.56823 17.6306C6.32154 18.8702 6.32154 20.8872 7.56823 22.1268L9.65699 24.2036C10.5701 25.1115 11.0732 26.3184 11.0732 27.6069V30.5426C11.0732 32.2932 12.5057 33.7231 14.2718 33.7231H17.2244C18.5148 33.7231 19.7287 34.2232 20.6473 35.1311L22.736 37.208C22.8837 37.3548 23.0422 37.4852 23.2117 37.5994C23.2992 37.6592 23.3922 37.7136 23.4906 37.7679C24.4365 38.2681 25.563 38.2681 26.5034 37.7679C26.6018 37.719 26.6948 37.6592 26.7823 37.6048C26.9518 37.4907 27.1158 37.3602 27.258 37.2134L29.3467 35.1366C30.2599 34.2287 31.4737 33.7285 32.7696 33.7285H35.7222C37.4828 33.7285 38.9209 32.3041 38.9209 30.5481V27.6123C38.9209 26.3293 39.4239 25.1169 40.337 24.209L42.4258 22.1322C43.6725 20.8926 43.6725 18.8756 42.4258 17.6361L40.337 15.5592C39.4239 14.6513 38.9209 13.4444 38.9209 12.1559V9.22019C38.9209 7.46963 37.4883 6.03978 35.7222 6.03978H32.7696C31.4792 6.03978 30.2598 5.53961 29.3467 4.6317L27.258 2.55487C26.0113 1.31529 23.9827 1.31529 22.736 2.55487L20.6473 4.6317C19.7341 5.53961 18.5203 6.03978 17.2244 6.03978L14.2718 6.03971Z" fill="white"/>
<path d="M19.078 50L15.3053 45.3897L9.39453 46.2814L14.2718 33.7285H17.2244C18.5148 33.7285 19.7287 34.2287 20.6473 35.1366L22.736 37.2134C22.8837 37.3602 23.0422 37.4907 23.2117 37.6049L23.7531 37.9691L19.078 50ZM15.9888 43.6337L18.5695 46.787L21.7737 38.5451C21.7081 38.4853 21.6425 38.4255 21.5823 38.3657L19.4936 36.2888C18.8921 35.6908 18.0883 35.3592 17.2353 35.3592H15.4036L11.948 44.2481L15.9888 43.6337Z" fill="white"/>
<path d="M30.9211 50L26.2461 37.9631L26.7874 37.5989C26.9569 37.4847 27.1155 37.3542 27.2631 37.2074L29.3519 35.1306C30.265 34.2227 31.4788 33.7225 32.7747 33.7225H35.7273L40.6046 46.2754L34.6939 45.3838L30.9211 50ZM28.2255 38.5447L31.4296 46.7921L34.0104 43.6388L38.0512 44.2477L34.5955 35.3588H32.7638C31.9108 35.3588 31.1071 35.6905 30.5056 36.2885L28.4168 38.3653C28.3567 38.4251 28.2911 38.4849 28.2255 38.5447L28.2255 38.5447Z" fill="white"/>
</svg>
