<svg width="50" height="50" viewBox="0 0 50 50" fill="none" xmlns="http://www.w3.org/2000/svg">
<g clip-path="url(#clip0_94_650)">
<path d="M28.2105 4.77039H22.0769H21.2098C20.7589 4.77039 20.3195 5.16263 20.3427 5.6231C20.3658 6.08357 20.7242 6.47581 21.2098 6.47581H27.3433H28.2105C28.6614 6.47581 29.1007 6.08357 29.0776 5.6231C29.0603 5.16263 28.696 4.77039 28.2105 4.77039Z" fill="white"/>
<path d="M48.224 0.847984C48.224 1.61543 48.276 2.39996 48.2182 3.16171C48.2124 3.2015 48.2124 3.24129 48.2067 3.28108C48.2298 3.11623 48.2067 3.25266 48.2009 3.28677C48.1778 3.37204 48.1604 3.45731 48.1315 3.54826C48.1142 3.59943 48.0217 3.80407 48.091 3.66196C48.0448 3.75292 47.9985 3.83819 47.9465 3.92346C47.9176 3.96325 47.8887 4.00873 47.8656 4.04852C47.8598 4.05989 47.7847 4.15654 47.8425 4.08263C47.8887 4.0201 47.7442 4.19065 47.7153 4.21907C47.6517 4.2816 47.5881 4.33844 47.5245 4.39529C47.4262 4.48056 47.6286 4.32708 47.5187 4.40098C47.4783 4.4294 47.4378 4.45783 47.3916 4.48625C47.3164 4.53173 47.2355 4.57152 47.1603 4.617C47.0216 4.69658 47.1199 4.63974 47.1603 4.62268C47.1256 4.63405 47.091 4.65111 47.0505 4.66248C46.9638 4.6909 46.8771 4.71932 46.7903 4.73638C46.7383 4.74775 46.6863 4.75912 46.6343 4.77049C46.721 4.75343 46.7094 4.7648 46.6285 4.77049C46.4493 4.78186 46.2643 4.78186 46.0851 4.78186H44.6688C44.2179 4.78186 43.7785 5.1741 43.8017 5.63457C43.8248 6.09504 44.1832 6.48728 44.6688 6.48728C45.8019 6.48728 46.987 6.60666 48.0333 6.08935C48.8831 5.67436 49.519 4.88415 49.8022 4.00307C49.9756 3.46871 49.9583 2.9116 49.9583 2.35453V0.853696C49.9583 0.410286 49.5594 -0.0217621 49.0911 0.000982219C48.6229 0.0180363 48.224 0.370494 48.224 0.848009V0.847984Z" fill="white"/>
<path d="M0.011291 0.847918C0.011291 1.59263 -0.0176139 2.34303 0.0170719 3.08201C0.0980043 4.90686 1.57215 6.36216 3.42204 6.47017C3.86138 6.49859 4.3123 6.47585 4.75164 6.47585C5.20255 6.47585 5.6419 6.0836 5.61877 5.62314C5.59565 5.16267 5.23723 4.77042 4.75164 4.77042H3.64752C3.57236 4.77042 3.49721 4.77042 3.41628 4.76474C3.35847 4.75905 3.18504 4.72495 3.32957 4.75905C3.24285 4.742 3.15036 4.72495 3.06365 4.69652C2.97693 4.67378 2.89022 4.64536 2.80929 4.61125C2.94803 4.6681 2.78617 4.5942 2.73992 4.57146C2.67055 4.53735 2.60696 4.49755 2.54337 4.45776C2.5029 4.42933 2.45665 4.40091 2.41619 4.37248C2.48556 4.42365 2.46822 4.41796 2.41619 4.3668C2.36416 4.31564 2.30635 4.26447 2.25433 4.21331C2.22542 4.18488 2.07512 4.01434 2.12715 4.07687C2.17918 4.1394 2.06356 3.98023 2.04044 3.95181C1.99419 3.87791 1.95372 3.79832 1.90748 3.72442C1.89013 3.69599 1.83811 3.57661 1.9017 3.72442C1.89013 3.69031 1.87279 3.6562 1.86123 3.6164C1.83811 3.5425 1.81498 3.47428 1.79186 3.40039C1.7803 3.36628 1.73983 3.16731 1.75139 3.24689C1.76874 3.35491 1.74561 3.19004 1.74561 3.16731C1.73983 3.11614 1.73983 3.05929 1.73983 3.00814C1.73405 2.67842 1.73983 2.3487 1.73983 2.02468V0.853574C1.73983 0.410164 1.34095 -0.0218841 0.872696 0.000860149C0.410222 0.0179142 0.0113418 0.370372 0.0113418 0.847887L0.011291 0.847918Z" fill="white"/>
<path d="M20.3597 4.8897C20.3597 5.77084 20.3019 6.65196 20.1863 7.52743C20.2036 7.391 20.1689 7.64681 20.1632 7.6866C20.1458 7.78893 20.1343 7.88557 20.1169 7.98221C20.0764 8.2096 20.036 8.43699 19.9897 8.6587C19.903 9.09074 19.799 9.52278 19.6776 9.95485C19.4463 10.7905 19.1573 11.6148 18.822 12.4164C18.874 12.297 18.8162 12.4278 18.8104 12.4505C18.7873 12.5017 18.7642 12.5528 18.741 12.604C18.7006 12.695 18.6601 12.7859 18.6139 12.8769C18.5156 13.0815 18.4173 13.2862 18.3133 13.4908C18.1109 13.8831 17.897 14.2696 17.6716 14.6505C17.4519 15.02 17.2207 15.3781 16.9779 15.7306C16.8565 15.9069 16.7351 16.0831 16.6079 16.2536C16.5385 16.3446 16.4691 16.4355 16.3998 16.5265C16.3709 16.5606 16.3477 16.5947 16.3188 16.6288C16.1512 16.8448 16.3651 16.572 16.2668 16.6913C15.7118 17.3906 15.1106 18.05 14.4632 18.6696C13.4689 19.6247 12.567 20.3011 11.4514 21.0458C10.6363 21.5972 9.81533 22.143 9.00021 22.6944C9.14473 22.6546 9.28926 22.6148 9.43955 22.5807H4.75118L5.61832 23.4334V18.0556V8.63597V5.5605C5.61832 5.36153 5.6241 5.16257 5.61832 4.9636V4.94086C5.60675 4.72484 5.56051 5.06592 5.6241 4.86127C5.6241 4.86696 5.69925 4.63388 5.653 4.74757C5.60675 4.86126 5.71081 4.65093 5.71081 4.65093C5.76862 4.57135 5.76284 4.57135 5.70503 4.64525C5.73972 4.60545 5.76862 4.57135 5.80909 4.53723C5.83799 4.50881 5.93626 4.45196 5.80909 4.53155C5.87268 4.49176 5.93626 4.45196 6.00564 4.42353C5.84955 4.49744 5.99986 4.42922 6.04611 4.42353C6.09814 4.41785 6.25423 4.41216 6.08657 4.41216C6.12126 4.41216 6.16173 4.40648 6.19641 4.41216C7.0173 4.4349 7.83817 4.41216 8.65329 4.41216H13.3474C15.5557 4.41216 17.7698 4.38374 19.9781 4.41216C19.9377 4.41216 19.822 4.36669 19.9781 4.41216C20.0128 4.42353 20.2209 4.50881 20.0533 4.42353C20.1111 4.45196 20.1631 4.48038 20.2151 4.51449C20.3308 4.58839 20.0764 4.38374 20.2383 4.54291C20.3944 4.69641 20.1805 4.40648 20.2845 4.59408C20.3076 4.63956 20.3365 4.67935 20.3597 4.71914C20.273 4.5486 20.3597 4.75893 20.3712 4.79304C20.4233 5.03181 20.3539 4.66229 20.3597 4.88968C20.3712 5.33309 20.747 5.76514 21.2268 5.7424C21.6835 5.71966 22.1055 5.3672 22.0939 4.88968C22.0593 3.67316 21.0881 2.73511 19.8509 2.72378C19.5619 2.71809 19.2728 2.72378 18.9838 2.72378H14.9372H6.50862C5.9999 2.72378 5.52007 2.75789 5.05756 3.00233C4.29447 3.40595 3.89561 4.21314 3.8898 5.04319C3.88402 5.79926 3.8898 6.55535 3.8898 7.30577V16.6686C3.8898 18.8913 3.86089 21.1084 3.8898 23.3311V23.4391C3.8898 23.8996 4.28868 24.2919 4.75693 24.2919H8.53188C8.96546 24.2919 9.54354 24.3771 9.93083 24.1441C10.4974 23.803 11.0349 23.405 11.5784 23.0355C13.1566 21.9781 14.6944 20.8981 16.0355 19.5451C17.8217 17.743 19.2901 15.6169 20.3018 13.3032C21.4695 10.6427 22.0938 7.78324 22.0938 4.88407C22.0938 4.44066 21.695 4.00861 21.2267 4.03136C20.7584 4.05978 20.3596 4.41224 20.3596 4.88976L20.3597 4.8897Z" fill="white"/>
<path d="M13.1619 48.2594H6.85489C6.51959 48.2594 6.1843 48.265 5.84901 48.2594H5.7912H5.71027C5.94151 48.2707 5.70449 48.2594 5.71605 48.248C5.73917 48.2196 5.82011 48.3276 5.68715 48.2309C5.63512 48.1968 5.64668 48.2082 5.71605 48.2594C5.68715 48.2366 5.66402 48.2139 5.6409 48.1855C5.57731 48.0774 5.69871 48.2992 5.64668 48.1855C5.57731 48.0377 5.63512 48.1514 5.62934 48.157C5.61778 48.1684 5.60621 47.9353 5.61778 48.1627C5.63512 48.5493 5.61199 48.1116 5.61778 48.0888V48.0661C5.62356 47.6397 5.61778 47.2134 5.61778 46.7814V40.1529V32.2113V29.2609C5.61778 28.7663 5.6409 28.2717 5.61778 27.7772V27.709L4.75064 28.5617H9.56036H10.2425C9.96502 28.3514 9.68754 28.1467 9.40427 27.9364C9.5199 28.6356 9.62973 29.3348 9.74535 30.0341C10.0171 31.7168 10.2888 33.3995 10.5662 35.0878C10.8958 37.1059 11.2195 39.1297 11.549 41.1478C11.8323 42.8817 12.1097 44.6155 12.393 46.3437C12.526 47.1566 12.6589 47.9695 12.7919 48.7881C12.7572 48.5892 12.8266 48.2879 13.1619 48.2595C12.711 48.2936 12.2716 48.6233 12.2947 49.1122C12.3121 49.5442 12.6763 50.0047 13.1619 49.9649C14.0637 49.891 14.5898 49.2031 14.4568 48.3334C14.4452 48.2481 14.4279 48.1629 14.4163 48.0776C14.347 47.6399 14.2718 47.2021 14.2024 46.7644C13.9365 45.1329 13.6764 43.5013 13.4105 41.8698C13.0752 39.8119 12.7456 37.7484 12.4104 35.6905C12.1155 33.8656 11.8207 32.0409 11.5259 30.216C11.4276 29.6078 11.3293 28.9995 11.231 28.3856C11.1848 28.1013 11.1617 27.8001 11.0923 27.5215C11.0865 27.5101 11.0865 27.4931 11.0865 27.4817C11.0287 27.1179 10.6009 26.8564 10.2483 26.8564H5.43857H4.75642C4.28817 26.8564 3.88929 27.2486 3.88929 27.7091V31.4895V39.431V46.4404C3.88929 46.9634 3.88351 47.4863 3.88929 48.0094C3.89507 48.6689 4.17255 49.2658 4.73331 49.6466C5.17265 49.9479 5.66403 49.9707 6.16692 49.9707H12.9884H13.1734C13.6243 49.9707 14.0636 49.5784 14.0405 49.1179C14.0116 48.6518 13.6532 48.2595 13.1618 48.2595L13.1619 48.2594Z" fill="white"/>
<path d="M10.6199 24.0535V26.282C10.6199 26.3388 10.5852 27.0835 10.6199 27.0949C10.5968 27.0892 10.6603 26.9699 10.6661 26.9528C10.6661 26.9471 10.7644 26.8505 10.6892 26.9244C10.6141 26.9983 10.7239 26.8903 10.7528 26.8846C10.7817 26.8732 10.88 26.8732 10.8511 26.8562C10.8164 26.8334 10.7008 26.8562 10.6603 26.8562H5.47482H4.41119H4.12214C4.09901 26.8562 4.06433 26.8505 4.04698 26.8562C4.00652 26.8675 4.03542 26.822 4.05855 26.8618C4.05277 26.8562 4.26667 26.9983 4.19729 26.9244C4.11058 26.8391 4.34181 27.0892 4.26666 27.0949V27.0381C4.27822 26.9016 4.26666 26.7652 4.26666 26.6288V25.236C4.26666 24.8665 4.28978 24.4913 4.26666 24.1218C4.26666 24.1161 4.27244 24.0536 4.26666 24.0536C4.284 24.0593 4.22619 24.1729 4.22041 24.1957C4.22041 24.2014 4.12214 24.298 4.19729 24.2241C4.26088 24.1616 4.15682 24.2582 4.1337 24.2639C4.01808 24.3094 4.00074 24.2866 4.11058 24.2923C4.7696 24.3094 5.43436 24.2923 6.09345 24.2923H9.08795H10.2557C10.4234 24.2923 10.6893 24.3435 10.8454 24.2923H10.8743C10.8685 24.3549 10.6026 24.1275 10.7008 24.2241C10.7702 24.2923 10.6777 24.2014 10.6777 24.1957C10.6488 24.1388 10.6257 24.1275 10.6199 24.0536C10.6488 24.497 11.0015 24.929 11.487 24.9063C11.9322 24.8892 12.3831 24.5311 12.3542 24.0536C12.3022 23.2065 11.672 22.604 10.8049 22.5926C10.5448 22.5869 10.2846 22.5926 10.0245 22.5926H6.97799H4.3245C3.96608 22.5926 3.60767 22.5926 3.28393 22.7802C2.80989 23.053 2.54975 23.5249 2.52662 24.0593C2.52084 24.1616 2.52662 24.2639 2.52662 24.3662C2.52662 25.2531 2.51506 26.1455 2.52662 27.0381C2.53819 27.8794 3.15096 28.5389 4.01806 28.5673C4.20883 28.573 4.40539 28.5673 4.59616 28.5673H10.3308C10.51 28.5673 10.6892 28.573 10.8627 28.5673C11.7472 28.5332 12.3426 27.8624 12.3541 27.0097C12.3599 26.1115 12.3541 25.2133 12.3541 24.3208V24.065C12.3541 23.6216 11.9552 23.1895 11.487 23.2123C11.0187 23.2237 10.6198 23.5761 10.6198 24.0536L10.6199 24.0535Z" fill="white"/>
<path d="M43.802 4.78745V11.0692V21.0004V23.2801L44.6691 22.4274H39.9751C40.1196 22.4672 40.2641 22.5069 40.4144 22.5411C39.6166 22.0124 38.8189 21.4894 38.0154 20.9607L37.7032 20.7561C37.3274 20.5059 36.8765 20.1933 36.5933 19.9715C35.7608 19.3235 34.9804 18.6185 34.2577 17.8512C31.3731 14.7928 29.4943 10.6713 29.1359 6.49255C29.0838 5.92406 29.0896 5.34993 29.0607 4.78142C29.0549 4.62793 29.0549 4.73026 29.0492 4.77574C29.0549 4.72458 29.0723 4.6791 29.0838 4.62793C29.107 4.4915 29.1012 4.57677 29.0781 4.62225C29.1012 4.57677 29.1301 4.53698 29.1474 4.4915C29.211 4.36075 29.1763 4.45171 29.1416 4.48581C29.1763 4.44602 29.211 4.4176 29.2457 4.3778C29.344 4.26978 29.2804 4.34938 29.2457 4.37211C29.3093 4.33232 29.3729 4.29253 29.4423 4.2641C29.2862 4.338 29.5463 4.24705 29.5983 4.23568C29.5521 4.24136 29.448 4.24136 29.6041 4.24705H29.6388H29.8296H31.9743H39.2814H42.2239H43.0563H43.2471H43.276C43.3107 4.24705 43.4494 4.25842 43.2818 4.23568C43.3338 4.24136 43.3801 4.25842 43.4321 4.26979C43.5824 4.29252 43.3974 4.24136 43.4726 4.28115C43.5188 4.30389 43.5593 4.33232 43.5997 4.35506C43.7096 4.41759 43.513 4.26979 43.5997 4.35506L43.7038 4.45738C43.7905 4.54834 43.6402 4.34937 43.7038 4.45738C43.7269 4.49718 43.7558 4.54265 43.7789 4.58245C43.8425 4.69046 43.7443 4.46307 43.7789 4.58245C43.7905 4.63361 43.8078 4.67909 43.8194 4.73025C43.8368 4.88374 43.7963 4.54265 43.8021 4.7871C43.8136 5.23051 44.1894 5.66256 44.6692 5.63981C45.1259 5.61707 45.5479 5.26462 45.5363 4.7871C45.5016 3.54781 44.5189 2.58138 43.2528 2.55862C43.0389 2.55293 42.825 2.55862 42.6111 2.55862H39.1368H30.6851H29.7255C28.9682 2.55862 28.2688 2.83149 27.8005 3.43408C27.338 4.02529 27.3149 4.69613 27.338 5.41807C27.3611 6.14003 27.4247 6.86204 27.523 7.57825C27.7138 8.98803 28.0433 10.3809 28.5289 11.7224C29.448 14.2692 30.8412 16.617 32.6564 18.6464C34.0381 20.1984 35.6568 21.4604 37.391 22.603C37.9922 22.9952 38.5934 23.3932 39.1889 23.7854C39.3623 23.8991 39.5357 24.0412 39.7439 24.0981C39.9231 24.1436 40.1254 24.1265 40.3104 24.1265H44.3282H44.6634C45.1317 24.1265 45.5306 23.7343 45.5306 23.2738V16.9921V7.06081V4.78118C45.5306 4.33777 45.1317 3.90572 44.6634 3.92847C44.201 3.95121 43.8021 4.30935 43.8021 4.78687L43.802 4.78745Z" fill="white"/>
<path d="M43.8014 27.5379V30.4485V36.9576V43.8134V47.7643V47.8894V47.9122C43.8014 48.1225 43.7956 47.9122 43.8072 47.9122C43.7783 47.9917 43.7783 48.0088 43.8072 47.9519C43.8361 47.8951 43.8303 47.9065 43.7898 47.9804C43.7898 47.9804 43.7089 48.0997 43.7783 48.0145C43.8419 47.9292 43.7494 48.0429 43.7262 48.06C43.6337 48.1395 43.8419 47.9974 43.7262 48.0543C43.7031 48.0656 43.5701 48.1395 43.6626 48.0884C43.7667 48.0372 43.5413 48.077 43.6626 48.0884C43.7667 48.0941 43.6395 48.0884 43.6222 48.0884H43.6048H43.3852H40.593H37.2112C36.9221 48.0884 36.6215 48.0656 36.3325 48.0884C36.3209 48.0884 36.2689 48.0827 36.2573 48.0884H36.2458C36.2458 48.0941 36.477 48.1623 36.5001 48.1793C36.5926 48.2476 36.6389 48.3783 36.6504 48.4863C36.662 48.6341 36.6157 48.6853 36.6331 48.5886C36.8123 47.4516 37.0031 46.3204 37.1823 45.1892C37.5349 43.0005 37.8933 40.8119 38.2459 38.629C38.6101 36.3834 38.9743 34.138 39.3385 31.8925C39.5524 30.5793 39.7605 29.2718 39.9744 27.9586C39.986 27.8961 39.9917 27.8335 40.0033 27.771C39.7258 27.9813 39.4483 28.186 39.1651 28.3963H43.9748H44.6569C45.1078 28.3963 45.5472 28.0041 45.5241 27.5436C45.5009 27.0831 45.1425 26.6909 44.6569 26.6909H39.8472H39.1651C38.8182 26.6909 38.3904 26.9524 38.3268 27.3162C38.1707 28.2769 38.0147 29.2433 37.8586 30.2041C37.5059 32.3757 37.1533 34.5416 36.8065 36.7131C36.4307 39.0381 36.0492 41.3689 35.6734 43.694C35.4479 45.1037 35.2167 46.5136 34.9912 47.9178C34.9797 48.003 34.9623 48.0883 34.9508 48.1793C34.8178 49.0547 35.3901 49.7767 36.3035 49.7937C37.1128 49.8108 37.9279 49.7937 38.743 49.7937H42.2925C43.1943 49.7937 44.2349 49.9358 44.946 49.2707C45.4952 48.7477 45.5299 48.094 45.5299 47.4118V45.5017V39.0325V31.972V27.7482V27.5378C45.5299 27.0944 45.131 26.6624 44.6627 26.6851C44.2003 26.7079 43.8014 27.0603 43.8014 27.5378L43.8014 27.5379Z" fill="white"/>
<path d="M45.1609 23.883V26.1115C45.1609 26.1684 45.1262 26.9131 45.1609 26.9244C45.1378 26.9188 45.2014 26.7994 45.2071 26.7823C45.2071 26.7766 45.3054 26.68 45.2303 26.7539C45.1551 26.8278 45.265 26.7198 45.2939 26.7141C45.3228 26.7027 45.421 26.7027 45.3921 26.6857C45.3575 26.6629 45.2418 26.6857 45.2014 26.6857H40.0158H38.9522H38.6632C38.64 26.6857 38.6053 26.68 38.588 26.6857C38.5475 26.6971 38.5764 26.6516 38.5996 26.6914C38.5938 26.6857 38.8077 26.8278 38.7383 26.7539C38.6516 26.6686 38.8828 26.9188 38.8077 26.9244V26.8676C38.8192 26.7312 38.8077 26.5947 38.8077 26.4583V25.0656C38.8077 24.6961 38.8308 24.3209 38.8077 23.9513C38.8077 23.9456 38.8135 23.8831 38.8077 23.8831C38.825 23.8888 38.7672 24.0025 38.7614 24.0252C38.7614 24.0309 38.6632 24.1276 38.7383 24.0536C38.8019 23.9911 38.6978 24.0878 38.6747 24.0934C38.5591 24.1389 38.5418 24.1162 38.6516 24.1219C39.3106 24.1389 39.9754 24.1219 40.6345 24.1219H43.629H44.7967C44.9644 24.1219 45.2303 24.173 45.3864 24.1219H45.4153C45.4095 24.1844 45.1436 23.957 45.2419 24.0536C45.3112 24.1219 45.2187 24.0309 45.2187 24.0252C45.1898 23.9684 45.1667 23.957 45.1609 23.8831C45.1898 24.3265 45.5425 24.7586 46.0281 24.7358C46.4732 24.7188 46.9241 24.3606 46.8952 23.8831C46.8432 23.0361 46.2131 22.4335 45.3459 22.4221C45.0858 22.4164 44.8257 22.4221 44.5655 22.4221H41.519H38.8655C38.5071 22.4221 38.1487 22.4221 37.8249 22.6097C37.3509 22.8825 37.0908 23.3544 37.0676 23.8888C37.0619 23.9911 37.0676 24.0934 37.0676 24.1958C37.0676 25.0826 37.0561 25.9751 37.0676 26.8676C37.0792 27.709 37.692 28.3684 38.5591 28.3968C38.7499 28.4025 38.9464 28.3968 39.1372 28.3968H44.8719C45.0511 28.3968 45.2303 28.4025 45.4037 28.3968C46.2882 28.3627 46.8894 27.6919 46.8951 26.8392C46.9009 25.941 46.8951 25.0429 46.8951 24.1503V23.8945C46.8951 23.4511 46.4963 23.0191 46.028 23.0418C45.5597 23.0532 45.1609 23.4056 45.1609 23.8832L45.1609 23.883Z" fill="white"/>
<path d="M13.6531 3.57664C13.6358 3.86656 13.6069 4.15079 13.5722 4.44072C13.5664 4.50894 13.5549 4.57716 13.5491 4.65105C13.5317 4.76476 13.4913 4.9694 13.5433 4.71359C13.5086 4.8955 13.4913 5.07741 13.4624 5.25932C13.393 5.70273 13.3121 6.14047 13.2196 6.57824C12.9826 7.73791 12.682 8.88053 12.3235 10.0062C12.1096 10.6713 11.8784 11.3365 11.6298 11.9902C11.3408 12.7406 11.1153 13.2636 10.78 13.9799C9.95335 15.7422 8.9648 17.4249 7.82019 19.0109C7.54849 19.3861 7.75082 19.9602 8.13236 20.1763C8.56593 20.4264 9.04574 20.2445 9.31745 19.8693C11.2657 17.1634 12.7629 14.1504 13.8208 11.0011C14.5088 8.94892 15.0059 6.83416 15.2776 4.6853C15.3238 4.31579 15.3701 3.94628 15.3874 3.57678C15.4106 3.13337 14.9712 2.70132 14.5203 2.72407C14.0347 2.7468 13.6763 3.09926 13.6532 3.57678L13.6531 3.57664Z" fill="white"/>
<path d="M34.0322 3.40603C34.09 4.55437 34.2923 5.70271 34.5236 6.82828C35.0728 9.51716 35.9572 12.1321 37.125 14.6221C37.9574 16.3957 38.9517 18.0955 40.1021 19.6929C40.3738 20.0681 40.8594 20.2444 41.2872 19.9999C41.663 19.7839 41.8711 19.2097 41.5994 18.8345C40.582 17.419 39.6859 15.9239 38.9112 14.3663C38.7378 14.0082 38.5644 13.6501 38.4025 13.2862C38.2406 12.9223 38.1597 12.7405 38.0036 12.3482C37.7319 11.6831 37.4833 11.0122 37.2579 10.3301C36.8706 9.16473 36.5411 7.9823 36.2809 6.78854C36.1826 6.32807 36.0901 5.86192 36.0092 5.39582C35.9745 5.20253 35.9456 5.00357 35.9167 4.81029C35.9051 4.72501 35.8936 4.63975 35.882 4.55448C35.8705 4.49194 35.9109 4.78187 35.8936 4.62269C35.8878 4.57721 35.882 4.53742 35.8762 4.49194C35.83 4.12812 35.7837 3.76998 35.7664 3.40618C35.7433 2.96278 35.3849 2.53073 34.8993 2.55347C34.4484 2.57621 34.009 2.92867 34.0321 3.40618L34.0322 3.40603Z" fill="white"/>
</g>
<defs>
<clipPath id="clip0_94_650">
<rect width="50" height="50" fill="white"/>
</clipPath>
</defs>
</svg>
