<svg width="49" height="49" viewBox="0 0 49 49" fill="none" xmlns="http://www.w3.org/2000/svg">
<circle cx="24.4186" cy="24.4186" r="24.4186" fill="#FF0302"/>
<g clip-path="url(#clip0_450_9784)">
<path d="M38.0952 17.9245L38.0953 17.9249C38.3863 19.018 38.5413 20.7628 38.6199 22.2879C38.6586 23.0393 38.6779 23.7188 38.6876 24.2105C38.6925 24.4561 38.6949 24.6545 38.6961 24.791C38.6967 24.8592 38.697 24.912 38.6971 24.9475L38.6973 24.9874L38.6973 24.9973L38.6973 24.9995V25V25.0001V25.0001V25.0006L38.6973 25.0029L38.6973 25.0127L38.6971 25.0527C38.697 25.0881 38.6967 25.1409 38.6961 25.2091C38.6949 25.3457 38.6925 25.544 38.6876 25.7897C38.6779 26.2813 38.6586 26.9608 38.6199 27.7122C38.5413 29.2373 38.3863 30.9822 38.0953 32.0753L38.0952 32.0756C37.9593 32.5869 37.6915 33.0535 37.3186 33.4288C36.946 33.8038 36.4815 34.0745 35.9715 34.2137C35.4628 34.3502 34.5052 34.4652 33.292 34.5542C32.0987 34.6418 30.719 34.7005 29.4055 34.7397C28.0933 34.779 26.8531 34.7986 25.9407 34.8084C25.4846 34.8133 25.1108 34.8158 24.8511 34.817C24.7213 34.8176 24.6201 34.8179 24.5515 34.8181L24.4734 34.8182L24.4537 34.8182L24.4488 34.8182H24.4476H24.4473L24.4473 35.5682L24.4472 34.8182H24.4469H24.4458L24.4409 34.8182L24.4211 34.8182L24.3431 34.8181C24.2744 34.8179 24.1732 34.8176 24.0434 34.817C23.7838 34.8158 23.4099 34.8133 22.9538 34.8084C22.0414 34.7986 20.8013 34.779 19.489 34.7397C18.1755 34.7005 16.7959 34.6418 15.6025 34.5542C14.3893 34.4652 13.4317 34.3502 12.923 34.2137C12.413 34.0745 11.9485 33.8038 11.5759 33.4288C11.203 33.0535 10.9353 32.5869 10.7994 32.0756L10.7993 32.0753C10.5082 30.9822 10.3532 29.2373 10.2747 27.7122C10.236 26.9608 10.2166 26.2813 10.2069 25.7897C10.2021 25.544 10.1997 25.3457 10.1985 25.2091C10.1979 25.1409 10.1976 25.0881 10.1974 25.0527L10.1973 25.0127L10.1973 25.0029L10.1973 25.0006L10.1973 25.0001V25L10.1973 24.9995L10.1973 24.9973L10.1973 24.9874L10.1974 24.9475C10.1976 24.912 10.1979 24.8592 10.1985 24.791C10.1997 24.6545 10.2021 24.4561 10.2069 24.2105C10.2166 23.7188 10.236 23.0393 10.2747 22.2879C10.3532 20.7628 10.5082 19.018 10.7993 17.9249L10.7994 17.9245C10.9353 17.4132 11.203 16.9466 11.5759 16.5713C11.9485 16.1964 12.4129 15.9257 12.9228 15.7865C13.4314 15.65 14.3891 15.535 15.6025 15.4459C16.7959 15.3584 18.1755 15.2997 19.489 15.2604C20.8013 15.2212 22.0414 15.2015 22.9538 15.1917C23.4099 15.1868 23.7838 15.1843 24.0434 15.1831C24.1732 15.1825 24.2744 15.1822 24.3431 15.182L24.4211 15.1819L24.4409 15.1819L24.4458 15.1819L24.4469 15.1819L24.4472 15.1819L24.4473 14.4319L24.4473 15.1819L24.4476 15.1819L24.4488 15.1819L24.4537 15.1819L24.4734 15.1819L24.5515 15.182C24.6201 15.1822 24.7213 15.1825 24.8511 15.1831C25.1108 15.1843 25.4846 15.1868 25.9407 15.1917C26.8531 15.2015 28.0933 15.2212 29.4055 15.2604C30.719 15.2997 32.0987 15.3584 33.292 15.4459C34.5054 15.535 35.4631 15.65 35.9717 15.7865C36.4816 15.9257 36.9461 16.1964 37.3186 16.5713C37.6915 16.9466 37.9593 17.4132 38.0952 17.9245Z" stroke="white" stroke-width="1.5"/>
<path d="M21.3799 29.4609V20.5393L29.2208 25.0001L21.3799 29.4609Z" fill="#FEFEFE"/>
</g>
<defs>
<clipPath id="clip0_450_9784">
<rect width="30" height="30" fill="white" transform="translate(9.41797 10)"/>
</clipPath>
</defs>
</svg>
