<svg class="footer-social-ico" width="26" height="26" viewBox="0 0 26 26" fill="none" xmlns="http://www.w3.org/2000/svg">
<g clip-path="url(#clip0-fb)">
<path d="M12.5024 24.9997C10.0295 25.0006 7.61187 24.2681 5.55527 22.8949C3.49868 21.5217 1.89552 19.5694 0.948546 17.285C0.00157495 15.0006 -0.246666 12.4867 0.235221 10.0611C0.717107 7.63564 1.90747 5.40751 3.65577 3.65858C5.40406 1.90964 7.63175 0.718461 10.0571 0.235686C12.4824 -0.247089 14.9964 0.000230696 17.2812 0.946365C19.566 1.8925 21.5188 3.49495 22.8928 5.55104C24.2668 7.60713 25.0001 10.0245 25.0001 12.4974C24.9953 15.8109 23.6772 18.9874 21.3346 21.3309C18.992 23.6744 15.816 24.9936 12.5024 24.9997Z" fill="#245A9B"/>
<path fill-rule="evenodd" clip-rule="evenodd" d="M10.5377 12.5576V19.7979C10.5377 19.8477 10.5575 19.8955 10.5927 19.9307C10.6279 19.9659 10.6757 19.9857 10.7255 19.9857H13.4137C13.4387 19.9863 13.4636 19.9819 13.4869 19.9728C13.5102 19.9636 13.5315 19.9499 13.5494 19.9324C13.5673 19.9149 13.5816 19.894 13.5913 19.8709C13.601 19.8478 13.606 19.823 13.606 19.7979V12.4385H15.5752C15.622 12.4388 15.6672 12.4215 15.7019 12.3902C15.7367 12.3588 15.7584 12.3157 15.763 12.2691L15.9508 10.048C15.9527 10.0222 15.9492 9.99631 15.9406 9.97192C15.932 9.94752 15.9185 9.92517 15.9009 9.90625C15.8832 9.88733 15.8619 9.87226 15.8382 9.86198C15.8145 9.8517 15.7889 9.84642 15.763 9.84649H13.606V8.27111C13.606 8.09378 13.6765 7.92372 13.8018 7.79833C13.9272 7.67294 14.0973 7.60249 14.2746 7.60249H15.7767C15.8018 7.6031 15.8267 7.5987 15.85 7.58954C15.8733 7.58037 15.8946 7.56664 15.9125 7.54914C15.9304 7.53165 15.9446 7.51074 15.9544 7.48766C15.9641 7.46457 15.9691 7.43978 15.9691 7.41473V5.19821C15.9691 5.14719 15.9488 5.09827 15.9127 5.0622C15.8767 5.02613 15.8278 5.00586 15.7767 5.00586H13.2396C12.8847 5.00526 12.533 5.07474 12.2049 5.21031C11.8768 5.34588 11.5787 5.54488 11.3277 5.7959C11.0767 6.04692 10.8777 6.34503 10.7421 6.67311C10.6066 7.0012 10.5371 7.35283 10.5377 7.70782V9.84649H9.19587C9.14607 9.84649 9.09831 9.86628 9.0631 9.90149C9.02788 9.9367 9.0081 9.98446 9.0081 10.0343V12.2508C9.0081 12.3006 9.02788 12.3483 9.0631 12.3835C9.09831 12.4188 9.14607 12.4385 9.19587 12.4385H10.5377V12.5576Z" fill="white"/>
</g>
<defs>
<clipPath id="clip0-fb">
<rect width="25" height="25" fill="white"/>
</clipPath>
</defs>
</svg>
