<svg width="16" height="16" viewBox="0 0 16 16" fill="none" xmlns="http://www.w3.org/2000/svg">
<g clip-path="url(#clip0_89_453)">
<path d="M11.5277 0.307495H4.47208C2.17576 0.307495 0.307617 2.17564 0.307617 4.47196V11.5277C0.307617 13.8239 2.17576 15.6921 4.47208 15.6921H11.5279C13.8241 15.6921 15.6922 13.8239 15.6922 11.5277V4.47196C15.6922 2.17564 13.8241 0.307495 11.5277 0.307495V0.307495ZM7.99991 12.2064C5.68034 12.2064 3.7933 10.3194 3.7933 7.99979C3.7933 5.68022 5.68034 3.79318 7.99991 3.79318C10.3195 3.79318 12.2065 5.68022 12.2065 7.99979C12.2065 10.3194 10.3195 12.2064 7.99991 12.2064V12.2064ZM12.3071 4.78524C11.6216 4.78524 11.0641 4.2277 11.0641 3.54223C11.0641 2.85676 11.6216 2.29912 12.3071 2.29912C12.9926 2.29912 13.5502 2.85676 13.5502 3.54223C13.5502 4.2277 12.9926 4.78524 12.3071 4.78524Z" fill="#059F97"/>
<path d="M8.00001 4.69519C6.17788 4.69519 4.69531 6.17764 4.69531 7.99988C4.69531 9.82201 6.17788 11.3046 8.00001 11.3046C9.82225 11.3046 11.3047 9.82201 11.3047 7.99988C11.3047 6.17764 9.82225 4.69519 8.00001 4.69519V4.69519Z" fill="#059F97"/>
<path d="M12.3069 3.20117C12.1189 3.20117 11.9658 3.35423 11.9658 3.54226C11.9658 3.7303 12.1189 3.88336 12.3069 3.88336C12.4951 3.88336 12.6481 3.73042 12.6481 3.54226C12.6481 3.35411 12.4951 3.20117 12.3069 3.20117Z" fill="#059F97"/>
</g>
<defs>
<clipPath id="clip0_89_453">
<rect width="15.3846" height="15.3846" fill="white" transform="translate(0.307617 0.307495)"/>
</clipPath>
</defs>
</svg>
