<svg class="footer-social-ico" width="26" height="26" viewBox="0 0 26 26" fill="none" xmlns="http://www.w3.org/2000/svg">
<g clip-path="url(#clip0-inst)">
<path d="M12.4886 23.3408C18.5354 23.3408 23.4373 18.4389 23.4373 12.3921C23.4373 6.34528 18.5354 1.44336 12.4886 1.44336C6.44175 1.44336 1.53983 6.34528 1.53983 12.3921C1.53983 18.4389 6.44175 23.3408 12.4886 23.3408Z" fill="white"/>
<path d="M12.4968 24.9988C10.0239 24.9988 7.60653 24.2654 5.55043 22.8914C3.49434 21.5174 1.89189 19.5646 0.945756 17.2798C-0.000377947 14.995 -0.247696 12.481 0.235082 10.0557C0.71786 7.63034 1.90905 5.40265 3.65799 3.65436C5.40693 1.90606 7.63505 0.715696 10.0606 0.233813C12.4861 -0.248071 15 0.000174399 17.2844 0.947151C19.5689 1.89413 21.5211 3.4973 22.8943 5.5539C24.2676 7.6105 25 10.0281 24.9991 12.5011C24.9955 15.8153 23.6769 18.9927 21.333 21.3358C18.989 23.679 15.8111 24.9963 12.4968 24.9988ZM16.715 7.42546C16.5326 7.42546 16.3544 7.47953 16.2027 7.58084C16.0511 7.68215 15.9329 7.82615 15.8631 7.99462C15.7934 8.1631 15.7751 8.34848 15.8107 8.52733C15.8463 8.70618 15.9341 8.87046 16.063 8.99941C16.192 9.12835 16.3562 9.21616 16.5351 9.25174C16.7139 9.28731 16.8993 9.26906 17.0678 9.19927C17.2363 9.12949 17.3803 9.01131 17.4816 8.85969C17.5829 8.70807 17.637 8.52981 17.637 8.34746C17.637 8.10293 17.5398 7.86841 17.3669 7.6955C17.194 7.5226 16.9595 7.42546 16.715 7.42546ZM12.6028 8.61483C11.834 8.61392 11.0822 8.84107 10.4425 9.26754C9.80283 9.69401 9.30401 10.3006 9.00916 11.0107C8.71431 11.7207 8.63669 12.5022 8.78613 13.2564C8.93556 14.0106 9.30532 14.7034 9.84863 15.2474C10.3919 15.7914 11.0844 16.1619 11.8384 16.3123C12.5924 16.4626 13.374 16.3859 14.0844 16.0919C14.7947 15.7979 15.402 15.2998 15.8292 14.6606C16.2564 14.0214 16.4845 13.2699 16.4845 12.5011C16.4832 11.4715 16.074 10.4845 15.3465 9.75606C14.619 9.02764 13.6324 8.61727 12.6028 8.61483ZM12.6028 14.9858C12.1103 14.9858 11.6288 14.8397 11.2193 14.566C10.8099 14.2922 10.4908 13.9032 10.3025 13.448C10.1142 12.9929 10.0652 12.4921 10.1616 12.0091C10.2581 11.5261 10.4956 11.0825 10.8442 10.7345C11.1928 10.3866 11.6368 10.1499 12.12 10.0543C12.6032 9.95879 13.1039 10.0087 13.5587 10.1979C14.0135 10.387 14.402 10.7068 14.6749 11.1168C14.9479 11.5268 15.0932 12.0085 15.0922 12.5011C15.091 13.1605 14.8282 13.7925 14.3615 14.2583C13.8948 14.7242 13.2623 14.9858 12.6028 14.9858ZM20.4398 9.26945C20.4398 8.01257 19.9405 6.80717 19.0518 5.91842C18.163 5.02967 16.9576 4.53038 15.7008 4.53038H9.445C8.18812 4.53038 6.98272 5.02967 6.09397 5.91842C5.20522 6.80717 4.70593 8.01257 4.70593 9.26945V15.5252C4.70593 16.7821 5.20522 17.9875 6.09397 18.8762C6.98272 19.765 8.18812 20.2643 9.445 20.2643H15.7008C16.9576 20.2643 18.163 19.765 19.0518 18.8762C19.9405 17.9875 20.4398 16.7821 20.4398 15.5252V9.26945ZM18.9554 15.5252C18.9554 16.3884 18.6125 17.2162 18.0022 17.8266C17.3918 18.437 16.564 18.7799 15.7008 18.7799H9.445C8.58219 18.7787 7.75506 18.4354 7.14496 17.8253C6.53486 17.2152 6.19157 16.388 6.19035 15.5252V9.26945C6.19157 8.40664 6.53486 7.57951 7.14496 6.96941C7.75506 6.35931 8.58219 6.01602 9.445 6.0148H15.7008C16.564 6.0148 17.3918 6.3577 18.0022 6.96806C18.6125 7.57843 18.9554 8.40627 18.9554 9.26945V15.5252Z" fill="url(#paint0_linear-inst)"/>
</g>
<defs>
<linearGradient id="paint0_linear-inst" x1="2.40093" y1="21.0987" x2="33.4124" y2="-5.30735" gradientUnits="userSpaceOnUse">
<stop stop-color="#FFE185"/>
<stop offset="0.21" stop-color="#FFBB36"/>
<stop offset="0.38" stop-color="#FF5176"/>
<stop offset="0.52" stop-color="#F63395"/>
<stop offset="0.74" stop-color="#A436D2"/>
<stop offset="1" stop-color="#5F4EED"/>
</linearGradient>
<clipPath id="clip0-inst">
<rect width="25" height="25" fill="white"/>
</clipPath>
</defs>
</svg>
