<svg width="16" height="16" viewBox="0 0 16 16" fill="none" xmlns="http://www.w3.org/2000/svg">
<g clip-path="url(#clip0_89_468)">
<path fill-rule="evenodd" clip-rule="evenodd" d="M13.3666 9.18248C13.877 9.68072 14.4156 10.1495 14.8733 10.698C15.0755 10.9417 15.2669 11.1933 15.4133 11.4761C15.6208 11.8782 15.4329 12.3207 15.0724 12.3447L12.8311 12.3437C12.253 12.3917 11.7919 12.159 11.4041 11.7637C11.0938 11.4477 10.8065 11.1113 10.5081 10.7845C10.3857 10.651 10.2577 10.5253 10.1048 10.426C9.79879 10.2274 9.53321 10.2882 9.35837 10.6073C9.18029 10.9319 9.1399 11.2913 9.12241 11.653C9.0984 12.1808 8.93888 12.3195 8.40873 12.3437C7.27576 12.3971 6.20052 12.2257 5.20165 11.6542C4.32101 11.1503 3.63812 10.439 3.04373 9.63371C1.88645 8.06568 1.0002 6.34266 0.203674 4.57137C0.0243824 4.1723 0.155502 3.95808 0.595821 3.9505C1.32699 3.93629 2.05806 3.93731 2.79008 3.94949C3.08725 3.95383 3.28398 4.12428 3.39873 4.40502C3.79431 5.37771 4.27835 6.30313 4.88593 7.16093C5.04773 7.3893 5.21272 7.61767 5.44767 7.77841C5.70758 7.95639 5.90547 7.8974 6.02775 7.60787C6.10534 7.42428 6.13931 7.22654 6.1568 7.02991C6.21472 6.35343 6.22236 5.67811 6.12076 5.00401C6.05838 4.5833 5.82141 4.31095 5.40162 4.23134C5.1874 4.19075 5.21929 4.11104 5.32302 3.98876C5.50317 3.77788 5.6726 3.64661 6.01036 3.64661H8.54334C8.94211 3.72531 9.03067 3.90445 9.08526 4.3057L9.08743 7.11933C9.08309 7.27466 9.16502 7.7356 9.44481 7.83841C9.66873 7.91161 9.81633 7.73247 9.95068 7.59048C10.5572 6.94681 10.99 6.18612 11.3767 5.39843C11.5483 5.05208 11.6958 4.69239 11.8388 4.33299C11.9448 4.0663 12.111 3.93508 12.4114 3.94089L14.8493 3.94307C14.9216 3.94307 14.9947 3.94413 15.0647 3.95611C15.4755 4.02612 15.5881 4.20283 15.4612 4.60398C15.2613 5.23335 14.8723 5.75783 14.492 6.28473C14.0855 6.84728 13.6507 7.39056 13.2475 7.95644C12.8771 8.47319 12.9065 8.73366 13.3666 9.18248Z" fill="#059F97"/>
</g>
<defs>
<clipPath id="clip0_89_468">
<rect width="15.3846" height="15.3846" fill="white" transform="translate(0.125977 0.307495)"/>
</clipPath>
</defs>
</svg>
