<svg width="16" height="16" viewBox="0 0 16 16" fill="none" xmlns="http://www.w3.org/2000/svg">
<path d="M11.3333 8.66666V4C11.3333 3.08134 10.5853 2.33334 9.66669 2.33334H1.66669C0.748 2.33334 0 3.08134 0 4V8.66666C0 9.42801 0.512656 10.0713 1.21066 10.27C1.092 10.4227 0.962 10.5787 0.826 10.7334C0.824 10.736 0.821344 10.7387 0.819344 10.7414C0.720688 10.844 0.666687 10.9767 0.666687 11.1154C0.666687 11.4187 0.920031 11.6654 1.23203 11.6654C1.25269 11.6654 3.55737 11.3534 4.78803 10.3334H9.66669C10.5853 10.3334 11.3333 9.58535 11.3333 8.66666Z" fill="#171219"/>
<path d="M14.3332 4.33466L12.3332 4.33331C12.2452 4.33331 12.1599 4.36866 12.0972 4.43066C12.0346 4.49266 11.9999 4.578 11.9999 4.66666V8.66665C11.9999 9.95334 10.9532 11 9.66654 11H5.17789C5.05855 11 4.94855 11.0633 4.88923 11.1666C4.82989 11.2693 4.82989 11.3966 4.88923 11.5C5.18589 12.0146 5.73923 12.3346 6.33323 12.3346H11.2119C12.4432 13.3546 14.7479 13.6666 14.7679 13.6666C15.0792 13.6666 15.3332 13.42 15.3332 13.1166C15.3332 12.978 15.2786 12.844 15.1839 12.7446C15.1812 12.742 15.0005 12.5426 14.7892 12.2713C15.4872 12.0726 15.9999 11.4293 15.9999 10.668V6.00134C15.9999 5.08266 15.2519 4.33466 14.3332 4.33466Z" fill="#171219"/>
</svg>
