<svg width="16" height="16" viewBox="0 0 16 16" fill="none" xmlns="http://www.w3.org/2000/svg">
<g clip-path="url(#clip0_1152_218)">
<path d="M14.133 5.66667H10.3997C9.53301 5.66667 8.99967 5.13333 8.99967 4.26667V0.533333C8.99967 0.233333 8.76634 0 8.46634 0H2.93301C2.06634 0 1.33301 0.733333 1.33301 1.6V14.4C1.33301 15.2667 2.06634 16 2.93301 16H13.0663C13.933 16 14.6663 15.2667 14.6663 14.4V6.2C14.6663 5.9 14.433 5.66667 14.133 5.66667Z" fill="#171219"/>
<path d="M14.5663 3.63333L11.033 0.1C10.9663 0.0333333 10.833 0 10.733 0C10.533 0 10.333 0.166667 10.333 0.366667V3.2C10.333 3.8 10.8663 4.33333 11.4663 4.33333H14.2997C14.4997 4.33333 14.6663 4.13333 14.6663 3.93333C14.6663 3.83333 14.633 3.7 14.5663 3.63333Z" fill="#171219"/>
</g>
<defs>
<clipPath id="clip0_1152_218">
<rect width="16" height="16" fill="white"/>
</clipPath>
</defs>
</svg>
