<svg width="16" height="16" viewBox="0 0 16 16" fill="none" xmlns="http://www.w3.org/2000/svg">
<path d="M15.0157 0.478119H12.0657C11.7595 0.478119 11.497 0.696869 11.4376 0.996869L10.9188 3.75312H0.984458C0.712583 3.74062 0.228207 4.025 0.368833 4.5625L1.92508 10.175C2.00321 10.45 2.25321 10.6438 2.54071 10.6438H10.397C10.7032 10.6438 10.9657 10.425 11.0251 10.125L12.6345 1.76562L15.022 1.75937C15.3751 1.75937 15.6595 1.475 15.6595 1.12187C15.6563 0.765619 15.3688 0.478119 15.0157 0.478119V0.478119Z" fill="#171219"/>
<path d="M8.90605 11.7063C7.8748 11.7063 7.03418 12.5625 7.03418 13.6125C7.03418 14.6625 7.8748 15.5188 8.90605 15.5188C9.9373 15.5188 10.7779 14.6625 10.7779 13.6125C10.7779 12.5625 9.9373 11.7063 8.90605 11.7063Z" fill="#171219"/>
<path d="M3.95586 11.7063C2.92461 11.7063 2.08398 12.5625 2.08398 13.6125C2.08398 14.6625 2.92461 15.5188 3.95586 15.5188C4.98711 15.5188 5.82773 14.6625 5.82773 13.6125C5.82773 12.5625 4.98711 11.7063 3.95586 11.7063Z" fill="#171219"/>
</svg>
