<svg width="16" height="16" viewBox="0 0 16 16" fill="none" xmlns="http://www.w3.org/2000/svg">
<g clip-path="url(#clip0_749_620)">
<path d="M14.542 0.655212C14.2572 0.655212 14.0259 0.886176 14.0259 1.17133C14.0259 1.45616 14.2572 1.68745 14.542 1.68745C14.7768 1.68745 14.9678 1.87841 14.9678 2.11293V13.8862C14.9678 14.1207 14.7768 14.3117 14.542 14.3117C14.2572 14.3117 14.0259 14.543 14.0259 14.8278C14.0259 15.113 14.2572 15.3439 14.542 15.3439C15.3458 15.3439 16 14.6901 16 13.8862V2.11293C16 1.30907 15.3458 0.655212 14.542 0.655212ZM12.1501 0.655212C11.8653 0.655212 11.634 0.886176 11.634 1.17133C11.634 1.45616 11.8653 1.68745 12.1501 1.68745C12.3849 1.68745 12.5759 1.87841 12.5759 2.11293V13.8862C12.5759 14.1207 12.3849 14.3117 12.1501 14.3117C11.8653 14.3117 11.634 14.543 11.634 14.8278C11.634 15.113 11.8653 15.3439 12.1501 15.3439C12.9543 15.3439 13.6081 14.6901 13.6081 13.8862V2.11293C13.6081 1.30907 12.9543 0.655212 12.1501 0.655212ZM11.2162 2.11293V13.8862C11.2162 14.6901 10.5624 15.3439 9.75821 15.3439H4.92798C4.6425 15.3439 4.41154 15.1123 4.41186 14.8269C4.41315 14.3662 4.41121 13.4485 4.41121 11.5798C4.41121 11.2227 4.12154 10.9334 3.76478 10.9334C1.8961 10.9334 0.978377 10.9314 0.517418 10.9327C0.23194 10.9331 0.000331199 10.7021 0.000331199 10.4166V2.11293C0.000331199 1.30778 0.652899 0.655212 1.45805 0.655212H9.75821C10.5624 0.655212 11.2162 1.30907 11.2162 2.11293ZM3.91703 11.9437V14.8278C3.91703 15.2786 3.3722 15.5216 3.03576 15.193C-0.0796673 12.0772 0.0511367 12.2574 0.0100084 12.043C-0.0530226 11.7278 0.189521 11.4276 0.51645 11.4276H3.40091C3.68574 11.4276 3.91703 11.6585 3.91703 11.9437Z" fill="#171219"/>
</g>
<defs>
<clipPath id="clip0_749_620">
<rect width="16" height="16" fill="white"/>
</clipPath>
</defs>
</svg>
