<svg width="16" height="16" viewBox="0 0 16 16" fill="none" xmlns="http://www.w3.org/2000/svg">
<path d="M10.8438 7.5625H0.46875C0.209656 7.5625 0 7.77216 0 8.03125V14.5938C0 15.3692 0.630813 16 1.40625 16H9.90625C10.6817 16 11.3125 15.3692 11.3125 14.5938V8.03125C11.3125 7.77216 11.1028 7.5625 10.8438 7.5625ZM8.4375 10.375C8.4375 11.9259 7.17591 13.1875 5.625 13.1875C4.07409 13.1875 2.8125 11.9259 2.8125 10.375V9.90625C2.8125 9.64716 3.02216 9.4375 3.28125 9.4375C3.54034 9.4375 3.75 9.64716 3.75 9.90625V10.375C3.75 11.4091 4.59091 12.25 5.625 12.25C6.65909 12.25 7.5 11.4091 7.5 10.375V9.90625C7.5 9.64716 7.70966 9.4375 7.96875 9.4375C8.22784 9.4375 8.4375 9.64716 8.4375 9.90625V10.375Z" fill="#171219"/>
<path d="M15.5312 3.8125H13.125V2.8125C13.125 1.26159 11.8634 0 10.3125 0C8.76159 0 7.5 1.26159 7.5 2.8125V3.8125H5.09375C4.83466 3.8125 4.625 4.02216 4.625 4.28125V6.625H10.8438C11.6192 6.625 12.25 7.25581 12.25 8.03125V14.5938C12.25 15.1234 12.0667 15.6071 11.7693 16H14.5938C15.3692 16 16 15.3692 16 14.5938V4.28125C16 4.02216 15.7903 3.8125 15.5312 3.8125ZM12.1875 3.8125H8.4375V2.8125C8.4375 1.77841 9.27841 0.9375 10.3125 0.9375C11.3466 0.9375 12.1875 1.77841 12.1875 2.8125V3.8125Z" fill="#171219"/>
</svg>
