<svg width="16" height="16" viewBox="0 0 16 16" fill="none" xmlns="http://www.w3.org/2000/svg">
<path d="M13.0208 0H2.97913C1.33644 0 0 1.33647 0 2.97919V13.0208C0 14.6635 1.33644 16 2.97913 16H13.0208C14.6635 16 16 14.6635 16 13.0208V2.97919C16 1.33647 14.6635 0 13.0208 0ZM12.5188 12.2344H3.48125C3.22234 12.2344 3.0125 12.0245 3.0125 11.7656C3.0125 11.5068 3.22234 11.2969 3.48125 11.2969H12.5188C12.7776 11.2969 12.9875 11.5068 12.9875 11.7656C12.9875 12.0245 12.7776 12.2344 12.5188 12.2344ZM12.5188 8.46875H3.48125C3.22234 8.46875 3.0125 8.25887 3.0125 8C3.0125 7.74113 3.22234 7.53125 3.48125 7.53125H12.5188C12.7776 7.53125 12.9875 7.74113 12.9875 8C12.9875 8.25887 12.7776 8.46875 12.5188 8.46875ZM12.5188 4.70312H3.48125C3.22234 4.70312 3.0125 4.49325 3.0125 4.23438C3.0125 3.9755 3.22234 3.76562 3.48125 3.76562H12.5188C12.7776 3.76562 12.9875 3.9755 12.9875 4.23438C12.9875 4.49325 12.7776 4.70312 12.5188 4.70312Z" fill="#171219"/>
</svg>
