<svg width="16" height="16" viewBox="0 0 16 16" fill="none" xmlns="http://www.w3.org/2000/svg">
<path d="M15.2727 0H0.727273C0.325624 0 0 0.325624 0 0.727273V15.2727C0 15.6744 0.325624 16 0.727273 16H15.2727C15.6744 16 16 15.6744 16 15.2727V0.727273C16 0.325624 15.6744 0 15.2727 0ZM12.3636 8.72727H8.72727V12.3636C8.72727 12.7653 8.40165 13.0909 8 13.0909C7.59835 13.0909 7.27273 12.7653 7.27273 12.3636V8.72727H3.63636C3.23471 8.72727 2.90909 8.40165 2.90909 8C2.90909 7.59835 3.23471 7.27273 3.63636 7.27273H7.27273V3.63636C7.27273 3.23471 7.59835 2.90909 8 2.90909C8.40165 2.90909 8.72727 3.23471 8.72727 3.63636V7.27273H12.3636C12.7653 7.27273 13.0909 7.59835 13.0909 8C13.0909 8.40165 12.7653 8.72727 12.3636 8.72727Z" fill="#171219"/>
</svg>
